NimbusMonL-ReguObli.ufo
<glyph name="exclam" format="1">
  <advance width="600"/>
  <unicode hex="0021"/>
  <outline>
    <contour>
      <point x="458" y="563" type="line" smooth="yes"/>
      <point x="461" y="575"/>
      <point x="463" y="584"/>
      <point x="463" y="589" type="curve" smooth="yes"/>
      <point x="463" y="606"/>
      <point x="449" y="618"/>
      <point x="431" y="618" type="curve" smooth="yes"/>
      <point x="402" y="618"/>
      <point x="386" y="601"/>
      <point x="380" y="563" type="curve" smooth="yes"/>
      <point x="329" y="237" type="line" smooth="yes"/>
      <point x="328" y="231"/>
      <point x="328" y="228"/>
      <point x="328" y="224" type="curve" smooth="yes"/>
      <point x="328" y="216"/>
      <point x="335" y="209"/>
      <point x="343" y="209" type="curve" smooth="yes"/>
      <point x="357" y="209"/>
      <point x="365" y="217"/>
      <point x="370" y="237" type="curve" smooth="yes"/>
    </contour>
    <contour>
      <point x="311" y="85" type="line" smooth="yes"/>
      <point x="277" y="85"/>
      <point x="246" y="57"/>
      <point x="246" y="24" type="curve" smooth="yes"/>
      <point x="246" y="1"/>
      <point x="264" y="-15"/>
      <point x="290" y="-15" type="curve" smooth="yes"/>
      <point x="302" y="-15" type="line" smooth="yes"/>
      <point x="337" y="-15"/>
      <point x="368" y="13"/>
      <point x="368" y="45" type="curve" smooth="yes"/>
      <point x="368" y="69"/>
      <point x="350" y="85"/>
      <point x="323" y="85" type="curve" smooth="yes"/>
    </contour>
  </outline>
</glyph>
<glyph name="quotedbl" format="1">
  <advance width="600"/>
  <unicode hex="0022"/>
  <outline>
    <contour>
      <point x="274" y="604" type="line"/>
      <point x="254" y="351" type="line"/>
      <point x="254" y="341" type="line" smooth="yes"/>
      <point x="254" y="325"/>
      <point x="263" y="315"/>
      <point x="277" y="315" type="curve" smooth="yes"/>
      <point x="295" y="315"/>
      <point x="306" y="326"/>
      <point x="315" y="351" type="curve" smooth="yes"/>
      <point x="402" y="604" type="line"/>
    </contour>
    <contour>
      <point x="454" y="604" type="line"/>
      <point x="434" y="351" type="line"/>
      <point x="434" y="341" type="line" smooth="yes"/>
      <point x="434" y="325"/>
      <point x="443" y="315"/>
      <point x="457" y="315" type="curve" smooth="yes"/>
      <point x="474" y="315"/>
      <point x="486" y="326"/>
      <point x="495" y="351" type="curve" smooth="yes"/>
      <point x="582" y="604" type="line"/>
    </contour>
  </outline>
</glyph>
<glyph name="numbersign" format="1">
  <advance width="600"/>
  <unicode hex="0023"/>
  <outline>
    <contour>
      <point x="466" y="356" type="line"/>
      <point x="557" y="356" type="line" smooth="yes"/>
      <point x="577" y="356"/>
      <point x="589" y="366"/>
      <point x="589" y="381" type="curve" smooth="yes"/>
      <point x="589" y="392"/>
      <point x="583" y="397"/>
      <point x="566" y="397" type="curve" smooth="yes"/>
      <point x="477" y="397" type="line"/>
      <point x="540" y="619" type="line" smooth="yes"/>
      <point x="543" y="629"/>
      <point x="543" y="629"/>
      <point x="543" y="632" type="curve" smooth="yes"/>
      <point x="543" y="640"/>
      <point x="536" y="647"/>
      <point x="526" y="647" type="curve" smooth="yes"/>
      <point x="514" y="647"/>
      <point x="505" y="639"/>
      <point x="500" y="622" type="curve" smooth="yes"/>
      <point x="437" y="397" type="line"/>
      <point x="346" y="397" type="line"/>
      <point x="409" y="619" type="line" smooth="yes"/>
      <point x="410" y="623"/>
      <point x="411" y="629"/>
      <point x="411" y="632" type="curve" smooth="yes"/>
      <point x="411" y="640"/>
      <point x="404" y="647"/>
      <point x="395" y="647" type="curve" smooth="yes"/>
      <point x="382" y="647"/>
      <point x="374" y="639"/>
      <point x="369" y="622" type="curve" smooth="yes"/>
      <point x="305" y="397" type="line"/>
      <point x="225" y="397" type="line" smooth="yes"/>
      <point x="204" y="397"/>
      <point x="192" y="388"/>
      <point x="192" y="372" type="curve" smooth="yes"/>
      <point x="192" y="361"/>
      <point x="199" y="356"/>
      <point x="216" y="356" type="curve" smooth="yes"/>
      <point x="294" y="356" type="line"/>
      <point x="258" y="230" type="line"/>
      <point x="169" y="230" type="line" smooth="yes"/>
      <point x="149" y="230"/>
      <point x="137" y="221"/>
      <point x="137" y="205" type="curve" smooth="yes"/>
      <point x="137" y="194"/>
      <point x="144" y="189"/>
      <point x="160" y="189" type="curve" smooth="yes"/>
      <point x="247" y="189" type="line"/>
      <point x="184" y="-33" type="line" smooth="yes"/>
      <point x="181" y="-43"/>
      <point x="181" y="-43"/>
      <point x="181" y="-46" type="curve" smooth="yes"/>
      <point x="181" y="-55"/>
      <point x="188" y="-62"/>
      <point x="197" y="-62" type="curve" smooth="yes"/>
      <point x="210" y="-62"/>
      <point x="219" y="-54"/>
      <point x="224" y="-36" type="curve" smooth="yes"/>
      <point x="287" y="189" type="line"/>
      <point x="378" y="189" type="line"/>
      <point x="315" y="-33" type="line"/>
      <point x="314" y="-39"/>
      <point x="313" y="-43"/>
      <point x="313" y="-46" type="curve" smooth="yes"/>
      <point x="313" y="-55"/>
      <point x="320" y="-62"/>
      <point x="329" y="-62" type="curve" smooth="yes"/>
      <point x="342" y="-62"/>
      <point x="350" y="-54"/>
      <point x="355" y="-36" type="curve" smooth="yes"/>
      <point x="419" y="189" type="line"/>
      <point x="501" y="189" type="line" smooth="yes"/>
      <point x="521" y="189"/>
      <point x="534" y="199"/>
      <point x="534" y="214" type="curve" smooth="yes"/>
      <point x="534" y="225"/>
      <point x="527" y="230"/>
      <point x="510" y="230" type="curve" smooth="yes"/>
      <point x="430" y="230" type="line"/>
    </contour>
    <contour>
      <point x="425" y="356" type="line"/>
      <point x="390" y="230" type="line"/>
      <point x="299" y="230" type="line"/>
      <point x="334" y="356" type="line"/>
    </contour>
  </outline>
</glyph>
<glyph name="dollar" format="1">
  <advance width="600"/>
  <unicode hex="0024"/>
  <outline>
    <contour>
      <point x="403" y="576" type="line"/>
      <point x="305" y="565"/>
      <point x="225" y="489"/>
      <point x="225" y="409" type="curve" smooth="yes"/>
      <point x="225" y="383"/>
      <point x="238" y="356"/>
      <point x="256" y="341" type="curve" smooth="yes"/>
      <point x="277" y="325"/>
      <point x="304" y="315"/>
      <point x="366" y="303" type="curve" smooth="yes"/>
      <point x="433" y="289"/>
      <point x="448" y="285"/>
      <point x="466" y="271" type="curve" smooth="yes"/>
      <point x="481" y="260"/>
      <point x="492" y="239"/>
      <point x="492" y="220" type="curve" smooth="yes"/>
      <point x="492" y="151"/>
      <point x="412" y="92"/>
      <point x="320" y="92" type="curve" smooth="yes"/>
      <point x="287" y="92"/>
      <point x="247" y="101"/>
      <point x="229" y="114" type="curve" smooth="yes"/>
      <point x="216" y="123"/>
      <point x="189" y="151"/>
      <point x="189" y="155" type="curve"/>
      <point x="192" y="187" type="line"/>
      <point x="187" y="195"/>
      <point x="181" y="199"/>
      <point x="176" y="199" type="curve" smooth="yes"/>
      <point x="163" y="199"/>
      <point x="153" y="188"/>
      <point x="149" y="171" type="curve" smooth="yes"/>
      <point x="133" y="92" type="line" smooth="yes"/>
      <point x="132" y="88"/>
      <point x="131" y="82"/>
      <point x="131" y="80" type="curve" smooth="yes"/>
      <point x="131" y="72"/>
      <point x="139" y="65"/>
      <point x="147" y="65" type="curve" smooth="yes"/>
      <point x="161" y="65"/>
      <point x="169" y="74"/>
      <point x="173" y="92" type="curve" smooth="yes"/>
      <point x="177" y="108" type="line"/>
      <point x="197" y="79"/>
      <point x="246" y="56"/>
      <point x="292" y="54" type="curve"/>
      <point x="266" y="-65" type="line"/>
      <point x="265" y="-76" type="line"/>
      <point x="265" y="-85"/>
      <point x="272" y="-92"/>
      <point x="281" y="-92" type="curve" smooth="yes"/>
      <point x="295" y="-92"/>
      <point x="303" y="-83"/>
      <point x="307" y="-65" type="curve" smooth="yes"/>
      <point x="333" y="54" type="line"/>
      <point x="450" y="66"/>
      <point x="534" y="140"/>
      <point x="534" y="232" type="curve" smooth="yes"/>
      <point x="534" y="257"/>
      <point x="521" y="286"/>
      <point x="502" y="301" type="curve" smooth="yes"/>
      <point x="480" y="320"/>
      <point x="454" y="329"/>
      <point x="385" y="342" type="curve" smooth="yes"/>
      <point x="327" y="354"/>
      <point x="308" y="360"/>
      <point x="291" y="371" type="curve" smooth="yes"/>
      <point x="277" y="381"/>
      <point x="267" y="401"/>
      <point x="267" y="418" type="curve" smooth="yes"/>
      <point x="267" y="478"/>
      <point x="342" y="539"/>
      <point x="416" y="539" type="curve" smooth="yes"/>
      <point x="441" y="539"/>
      <point x="475" y="530"/>
      <point x="493" y="520" type="curve"/>
      <point x="507" y="511"/>
      <point x="527" y="490"/>
      <point x="527" y="485" type="curve"/>
      <point x="525" y="461" type="line"/>
      <point x="530" y="452"/>
      <point x="535" y="448"/>
      <point x="542" y="448" type="curve" smooth="yes"/>
      <point x="554" y="448"/>
      <point x="564" y="458"/>
      <point x="567" y="476" type="curve" smooth="yes"/>
      <point x="580" y="536" type="line"/>
      <point x="582" y="543"/>
      <point x="582" y="545"/>
      <point x="582" y="548" type="curve" smooth="yes"/>
      <point x="582" y="556"/>
      <point x="575" y="563"/>
      <point x="566" y="563" type="curve" smooth="yes"/>
      <point x="553" y="563"/>
      <point x="544" y="553"/>
      <point x="539" y="534" type="curve"/>
      <point x="508" y="562"/>
      <point x="487" y="572"/>
      <point x="444" y="576" type="curve"/>
      <point x="455" y="628" type="line"/>
      <point x="456" y="639" type="line"/>
      <point x="456" y="648"/>
      <point x="449" y="655"/>
      <point x="440" y="655" type="curve" smooth="yes"/>
      <point x="426" y="655"/>
      <point x="418" y="646"/>
      <point x="414" y="628" type="curve" smooth="yes"/>
    </contour>
  </outline>
</glyph>
<glyph name="percent" format="1">
  <advance width="600"/>
  <unicode hex="0025"/>
  <outline>
    <contour>
      <point x="412" y="236" type="curve" smooth="yes"/>
      <point x="334" y="236"/>
      <point x="260" y="163"/>
      <point x="260" y="86" type="curve" smooth="yes"/>
      <point x="260" y="30"/>
      <point x="302" y="-12"/>
      <point x="358" y="-12" type="curve" smooth="yes"/>
      <point x="437" y="-12"/>
      <point x="511" y="61"/>
      <point x="511" y="137" type="curve" smooth="yes"/>
      <point x="511" y="196"/>
      <point x="470" y="236"/>
    </contour>
    <contour>
      <point x="403" y="198" type="curve" smooth="yes"/>
      <point x="444" y="198"/>
      <point x="472" y="170"/>
      <point x="472" y="131" type="curve" smooth="yes"/>
      <point x="472" y="76"/>
      <point x="421" y="26"/>
      <point x="366" y="26" type="curve" smooth="yes"/>
      <point x="327" y="26"/>
      <point x="299" y="55"/>
      <point x="299" y="94" type="curve" smooth="yes"/>
      <point x="299" y="147"/>
      <point x="350" y="198"/>
    </contour>
    <contour>
      <point x="367" y="611" type="curve" smooth="yes"/>
      <point x="290" y="611"/>
      <point x="216" y="538"/>
      <point x="216" y="462" type="curve" smooth="yes"/>
      <point x="216" y="405"/>
      <point x="257" y="363"/>
      <point x="314" y="363" type="curve" smooth="yes"/>
      <point x="393" y="363"/>
      <point x="467" y="436"/>
      <point x="467" y="512" type="curve" smooth="yes"/>
      <point x="467" y="570"/>
      <point x="426" y="611"/>
    </contour>
    <contour>
      <point x="360" y="573" type="curve" smooth="yes"/>
      <point x="400" y="573"/>
      <point x="428" y="545"/>
      <point x="428" y="505" type="curve" smooth="yes"/>
      <point x="428" y="451"/>
      <point x="377" y="401"/>
      <point x="322" y="401" type="curve" smooth="yes"/>
      <point x="284" y="401"/>
      <point x="255" y="430"/>
      <point x="255" y="469" type="curve" smooth="yes"/>
      <point x="255" y="522"/>
      <point x="306" y="573"/>
    </contour>
    <contour>
      <point x="569" y="344" type="line" smooth="yes"/>
      <point x="584" y="348"/>
      <point x="591" y="356"/>
      <point x="591" y="367" type="curve" smooth="yes"/>
      <point x="591" y="375"/>
      <point x="585" y="382"/>
      <point x="578" y="382" type="curve" smooth="yes"/>
      <point x="573" y="382"/>
      <point x="570" y="381"/>
      <point x="565" y="380" type="curve"/>
      <point x="159" y="258" type="line"/>
      <point x="145" y="253"/>
      <point x="137" y="245"/>
      <point x="137" y="235" type="curve" smooth="yes"/>
      <point x="137" y="227"/>
      <point x="143" y="220"/>
      <point x="151" y="220" type="curve" smooth="yes"/>
      <point x="154" y="220"/>
      <point x="159" y="220"/>
      <point x="163" y="222" type="curve"/>
    </contour>
  </outline>
</glyph>
<glyph name="ampersand" format="1">
  <advance width="600"/>
  <unicode hex="0026"/>
  <outline>
    <contour>
      <point x="393" y="0" type="line"/>
      <point x="451" y="0" type="line" smooth="yes"/>
      <point x="470" y="0"/>
      <point x="483" y="10"/>
      <point x="483" y="25" type="curve" smooth="yes"/>
      <point x="483" y="37"/>
      <point x="476" y="41"/>
      <point x="460" y="41" type="curve" smooth="yes"/>
      <point x="422" y="41" type="line"/>
      <point x="403" y="82" type="line"/>
      <point x="429" y="110"/>
      <point x="457" y="154"/>
      <point x="483" y="208" type="curve"/>
      <point x="495" y="208" type="line" smooth="yes"/>
      <point x="515" y="208"/>
      <point x="527" y="217"/>
      <point x="527" y="233" type="curve" smooth="yes"/>
      <point x="527" y="245"/>
      <point x="521" y="249"/>
      <point x="504" y="249" type="curve" smooth="yes"/>
      <point x="461" y="249" type="line"/>
      <point x="440" y="200"/>
      <point x="417" y="159"/>
      <point x="388" y="121" type="curve"/>
      <point x="314" y="298" type="line" smooth="yes"/>
      <point x="297" y="339"/>
      <point x="290" y="364"/>
      <point x="290" y="381" type="curve" smooth="yes"/>
      <point x="290" y="429"/>
      <point x="341" y="478"/>
      <point x="391" y="478" type="curve" smooth="yes"/>
      <point x="414" y="478"/>
      <point x="431" y="470"/>
      <point x="448" y="452" type="curve"/>
      <point x="483" y="468" type="line" smooth="yes"/>
      <point x="499" y="476"/>
      <point x="505" y="483"/>
      <point x="505" y="494" type="curve" smooth="yes"/>
      <point x="505" y="502"/>
      <point x="498" y="510"/>
      <point x="490" y="510" type="curve" smooth="yes"/>
      <point x="486" y="510"/>
      <point x="479" y="508"/>
      <point x="472" y="505" type="curve"/>
      <point x="461" y="499" type="line"/>
      <point x="442" y="513"/>
      <point x="422" y="519"/>
      <point x="399" y="519" type="curve" smooth="yes"/>
      <point x="324" y="519"/>
      <point x="249" y="449"/>
      <point x="249" y="379" type="curve" smooth="yes"/>
      <point x="249" y="359"/>
      <point x="253" y="348"/>
      <point x="277" y="287" type="curve"/>
      <point x="192" y="263"/>
      <point x="132" y="189"/>
      <point x="132" y="108" type="curve" smooth="yes"/>
      <point x="132" y="37"/>
      <point x="181" y="-16"/>
      <point x="247" y="-16" type="curve" smooth="yes"/>
      <point x="293" y="-16"/>
      <point x="334" y="5"/>
      <point x="372" y="48" type="curve"/>
    </contour>
    <contour>
      <point x="357" y="86" type="line"/>
      <point x="326" y="47"/>
      <point x="290" y="25"/>
      <point x="255" y="25" type="curve" smooth="yes"/>
      <point x="209" y="25"/>
      <point x="174" y="65"/>
      <point x="174" y="116" type="curve" smooth="yes"/>
      <point x="174" y="180"/>
      <point x="222" y="237"/>
      <point x="287" y="251" type="curve"/>
    </contour>
  </outline>
</glyph>
<glyph name="quotesingle" format="1">
  <advance width="600"/>
  <unicode hex="0027"/>
  <outline>
    <contour>
      <point x="364" y="604" type="line"/>
      <point x="344" y="351" type="line"/>
      <point x="344" y="341" type="line" smooth="yes"/>
      <point x="344" y="325"/>
      <point x="353" y="315"/>
      <point x="367" y="315" type="curve" smooth="yes"/>
      <point x="384" y="315"/>
      <point x="396" y="326"/>
      <point x="405" y="351" type="curve" smooth="yes"/>
      <point x="492" y="604" type="line"/>
    </contour>
  </outline>
</glyph>
<glyph name="parenleft" format="1">
  <advance width="600"/>
  <unicode hex="0028"/>
  <outline>
    <contour>
      <point x="566" y="604" type="curve" smooth="yes"/>
      <point x="553" y="604"/>
      <point x="536" y="586"/>
      <point x="493" y="530" type="curve" smooth="yes"/>
      <point x="381" y="383"/>
      <point x="335" y="268"/>
      <point x="335" y="138" type="curve" smooth="yes"/>
      <point x="335" y="89"/>
      <point x="340" y="54"/>
      <point x="354" y="4" type="curve" smooth="yes"/>
      <point x="370" y="-54"/>
      <point x="383" y="-90"/>
      <point x="398" y="-115" type="curve"/>
      <point x="401" y="-121"/>
      <point x="406" y="-124"/>
      <point x="411" y="-124" type="curve" smooth="yes"/>
      <point x="424" y="-124"/>
      <point x="437" y="-112"/>
      <point x="437" y="-101" type="curve" smooth="yes"/>
      <point x="437" y="-99"/>
      <point x="436" y="-96"/>
      <point x="435" y="-93" type="curve" smooth="yes"/>
      <point x="406" y="-9"/>
      <point x="394" y="56"/>
      <point x="394" y="124" type="curve" smooth="yes"/>
      <point x="394" y="270"/>
      <point x="449" y="406"/>
      <point x="572" y="567" type="curve" smooth="yes"/>
      <point x="583" y="581"/>
      <point x="583" y="581"/>
      <point x="583" y="588" type="curve" smooth="yes"/>
      <point x="583" y="597"/>
      <point x="576" y="604"/>
    </contour>
  </outline>
</glyph>
<glyph name="parenright" format="1">
  <advance width="600"/>
  <unicode hex="0029"/>
  <outline>
    <contour>
      <point x="296" y="604" type="curve" smooth="yes"/>
      <point x="283" y="604"/>
      <point x="270" y="592"/>
      <point x="270" y="581" type="curve" smooth="yes"/>
      <point x="270" y="579"/>
      <point x="271" y="576"/>
      <point x="272" y="573" type="curve" smooth="yes"/>
      <point x="301" y="489"/>
      <point x="313" y="424"/>
      <point x="313" y="356" type="curve" smooth="yes"/>
      <point x="313" y="208"/>
      <point x="256" y="69"/>
      <point x="130" y="-93" type="curve" smooth="yes"/>
      <point x="125" y="-99"/>
      <point x="124" y="-103"/>
      <point x="124" y="-108" type="curve" smooth="yes"/>
      <point x="124" y="-117"/>
      <point x="131" y="-124"/>
      <point x="141" y="-124" type="curve" smooth="yes"/>
      <point x="154" y="-124"/>
      <point x="172" y="-106"/>
      <point x="214" y="-50" type="curve" smooth="yes"/>
      <point x="326" y="97"/>
      <point x="372" y="212"/>
      <point x="372" y="342" type="curve" smooth="yes"/>
      <point x="372" y="422"/>
      <point x="345" y="533"/>
      <point x="309" y="595" type="curve"/>
      <point x="306" y="601"/>
      <point x="301" y="604"/>
    </contour>
  </outline>
</glyph>
<glyph name="asterisk" format="1">
  <advance width="600"/>
  <unicode hex="002A"/>
  <outline>
    <contour>
      <point x="372" y="438" type="line"/>
      <point x="249" y="480" type="line" smooth="yes"/>
      <point x="241" y="483"/>
      <point x="240" y="483"/>
      <point x="236" y="483" type="curve" smooth="yes"/>
      <point x="223" y="483"/>
      <point x="211" y="471"/>
      <point x="211" y="458" type="curve" smooth="yes"/>
      <point x="211" y="451"/>
      <point x="217" y="444"/>
      <point x="224" y="443" type="curve"/>
      <point x="227" y="442" type="line"/>
      <point x="351" y="400" type="line"/>
      <point x="246" y="288" type="line"/>
      <point x="236" y="276"/>
      <point x="234" y="274"/>
      <point x="234" y="266" type="curve" smooth="yes"/>
      <point x="234" y="257"/>
      <point x="241" y="250"/>
      <point x="251" y="250" type="curve" smooth="yes"/>
      <point x="258" y="250"/>
      <point x="264" y="254"/>
      <point x="274" y="264" type="curve" smooth="yes"/>
      <point x="379" y="376" type="line"/>
      <point x="437" y="264" type="line" smooth="yes"/>
      <point x="443" y="253"/>
      <point x="446" y="250"/>
      <point x="454" y="250" type="curve" smooth="yes"/>
      <point x="466" y="250"/>
      <point x="479" y="262"/>
      <point x="479" y="273" type="curve" smooth="yes"/>
      <point x="479" y="276"/>
      <point x="477" y="284"/>
      <point x="475" y="288" type="curve" smooth="yes"/>
      <point x="417" y="400" type="line"/>
      <point x="560" y="442" type="line" smooth="yes"/>
      <point x="578" y="448"/>
      <point x="586" y="455"/>
      <point x="586" y="468" type="curve" smooth="yes"/>
      <point x="586" y="476"/>
      <point x="579" y="484"/>
      <point x="571" y="484" type="curve" smooth="yes"/>
      <point x="568" y="484"/>
      <point x="561" y="483"/>
      <point x="556" y="481" type="curve"/>
      <point x="413" y="438" type="line"/>
      <point x="443" y="577" type="line"/>
      <point x="444" y="589" type="line"/>
      <point x="444" y="597"/>
      <point x="437" y="604"/>
      <point x="428" y="604" type="curve" smooth="yes"/>
      <point x="414" y="604"/>
      <point x="406" y="595"/>
      <point x="402" y="577" type="curve" smooth="yes"/>
    </contour>
  </outline>
</glyph>
<glyph name="plus" format="1">
  <advance width="600"/>
  <unicode hex="002B"/>
  <outline>
    <contour>
      <point x="375" y="261" type="line"/>
      <point x="556" y="261" type="line" smooth="yes"/>
      <point x="575" y="261"/>
      <point x="588" y="271"/>
      <point x="588" y="286" type="curve" smooth="yes"/>
      <point x="588" y="298"/>
      <point x="581" y="302"/>
      <point x="564" y="302" type="curve" smooth="yes"/>
      <point x="384" y="302" type="line"/>
      <point x="427" y="503" type="line"/>
      <point x="428" y="514" type="line"/>
      <point x="428" y="523"/>
      <point x="421" y="530"/>
      <point x="412" y="530" type="curve" smooth="yes"/>
      <point x="398" y="530"/>
      <point x="389" y="521"/>
      <point x="386" y="503" type="curve" smooth="yes"/>
      <point x="343" y="302" type="line"/>
      <point x="162" y="302" type="line" smooth="yes"/>
      <point x="143" y="302"/>
      <point x="131" y="292"/>
      <point x="131" y="277" type="curve" smooth="yes"/>
      <point x="131" y="266"/>
      <point x="138" y="261"/>
      <point x="154" y="261" type="curve" smooth="yes"/>
      <point x="334" y="261" type="line"/>
      <point x="291" y="59" type="line"/>
      <point x="290" y="47" type="line"/>
      <point x="290" y="39"/>
      <point x="297" y="32"/>
      <point x="306" y="32" type="curve" smooth="yes"/>
      <point x="320" y="32"/>
      <point x="328" y="41"/>
      <point x="332" y="59" type="curve" smooth="yes"/>
    </contour>
  </outline>
</glyph>
<glyph name="comma" format="1">
  <advance width="600"/>
  <unicode hex="002C"/>
  <outline>
    <contour>
      <point x="238" y="145" type="line"/>
      <point x="115" y="-105" type="line" smooth="yes"/>
      <point x="112" y="-111"/>
      <point x="110" y="-117"/>
      <point x="110" y="-122" type="curve" smooth="yes"/>
      <point x="110" y="-135"/>
      <point x="120" y="-145"/>
      <point x="133" y="-145" type="curve" smooth="yes"/>
      <point x="147" y="-145"/>
      <point x="155" y="-139"/>
      <point x="170" y="-120" type="curve" smooth="yes"/>
      <point x="371" y="145" type="line"/>
    </contour>
  </outline>
</glyph>
<glyph name="hyphen" format="1">
  <advance width="600"/>
  <unicode hex="002D"/>
  <outline>
    <contour>
      <point x="556" y="258" type="line" smooth="yes"/>
      <point x="576" y="258"/>
      <point x="588" y="268"/>
      <point x="588" y="283" type="curve" smooth="yes"/>
      <point x="588" y="294"/>
      <point x="581" y="299"/>
      <point x="565" y="299" type="curve" smooth="yes"/>
      <point x="163" y="299" type="line" smooth="yes"/>
      <point x="143" y="299"/>
      <point x="131" y="290"/>
      <point x="131" y="274" type="curve" smooth="yes"/>
      <point x="131" y="263"/>
      <point x="138" y="258"/>
      <point x="154" y="258" type="curve" smooth="yes"/>
    </contour>
  </outline>
</glyph>
<glyph name="period" format="1">
  <advance width="600"/>
  <unicode hex="002E"/>
  <outline>
    <contour>
      <point x="319" y="116" type="line" smooth="yes"/>
      <point x="275" y="116"/>
      <point x="235" y="79"/>
      <point x="235" y="37" type="curve" smooth="yes"/>
      <point x="235" y="6"/>
      <point x="258" y="-15"/>
      <point x="291" y="-15" type="curve" smooth="yes"/>
      <point x="302" y="-15" type="line" smooth="yes"/>
      <point x="346" y="-15"/>
      <point x="386" y="22"/>
      <point x="386" y="64" type="curve" smooth="yes"/>
      <point x="386" y="95"/>
      <point x="363" y="116"/>
      <point x="330" y="116" type="curve" smooth="yes"/>
    </contour>
  </outline>
</glyph>
<glyph name="slash" format="1">
  <advance width="600"/>
  <unicode hex="002F"/>
  <outline>
    <contour>
      <point x="617" y="633" type="line"/>
      <point x="623" y="643"/>
      <point x="625" y="647"/>
      <point x="625" y="652" type="curve" smooth="yes"/>
      <point x="625" y="661"/>
      <point x="618" y="668"/>
      <point x="608" y="668" type="curve" smooth="yes"/>
      <point x="599" y="668"/>
      <point x="592" y="664"/>
      <point x="583" y="650" type="curve" smooth="yes"/>
      <point x="107" y="-46" type="line" smooth="yes"/>
      <point x="101" y="-55"/>
      <point x="99" y="-60"/>
      <point x="99" y="-65" type="curve" smooth="yes"/>
      <point x="99" y="-74"/>
      <point x="107" y="-81"/>
      <point x="115" y="-81" type="curve" smooth="yes"/>
      <point x="125" y="-81"/>
      <point x="131" y="-77"/>
      <point x="141" y="-63" type="curve" smooth="yes"/>
    </contour>
  </outline>
</glyph>
<glyph name="zero" format="1">
  <advance width="600"/>
  <unicode hex="0030"/>
  <outline>
    <contour>
      <point x="561" y="351" type="line" smooth="yes"/>
      <point x="568" y="382"/>
      <point x="571" y="412"/>
      <point x="571" y="441" type="curve" smooth="yes"/>
      <point x="571" y="553"/>
      <point x="519" y="618"/>
      <point x="430" y="618" type="curve" smooth="yes"/>
      <point x="320" y="618"/>
      <point x="220" y="509"/>
      <point x="187" y="351" type="curve" smooth="yes"/>
      <point x="166" y="251" type="line" smooth="yes"/>
      <point x="159" y="221"/>
      <point x="156" y="191"/>
      <point x="156" y="162" type="curve" smooth="yes"/>
      <point x="156" y="50"/>
      <point x="208" y="-15"/>
      <point x="298" y="-15" type="curve" smooth="yes"/>
      <point x="408" y="-15"/>
      <point x="506" y="94"/>
      <point x="540" y="251" type="curve" smooth="yes"/>
    </contour>
    <contour>
      <point x="227" y="346" type="line" smooth="yes"/>
      <point x="240" y="410"/>
      <point x="273" y="478"/>
      <point x="313" y="524" type="curve" smooth="yes"/>
      <point x="342" y="559"/>
      <point x="380" y="577"/>
      <point x="422" y="577" type="curve" smooth="yes"/>
      <point x="492" y="577"/>
      <point x="527" y="526"/>
      <point x="527" y="425" type="curve" smooth="yes"/>
      <point x="527" y="398"/>
      <point x="524" y="370"/>
      <point x="519" y="346" type="curve" smooth="yes"/>
      <point x="500" y="257" type="line" smooth="yes"/>
      <point x="486" y="193"/>
      <point x="453" y="124"/>
      <point x="414" y="79" type="curve" smooth="yes"/>
      <point x="385" y="44"/>
      <point x="346" y="26"/>
      <point x="305" y="26" type="curve" smooth="yes"/>
      <point x="235" y="26"/>
      <point x="200" y="77"/>
      <point x="200" y="178" type="curve" smooth="yes"/>
      <point x="200" y="206"/>
      <point x="203" y="233"/>
      <point x="208" y="257" type="curve" smooth="yes"/>
    </contour>
  </outline>
</glyph>
<glyph name="one" format="1">
  <advance width="600"/>
  <unicode hex="0031"/>
  <outline>
    <contour>
      <point x="451" y="612" type="line"/>
      <point x="254" y="554" type="line" smooth="yes"/>
      <point x="236" y="548"/>
      <point x="228" y="541"/>
      <point x="228" y="528" type="curve" smooth="yes"/>
      <point x="228" y="520"/>
      <point x="235" y="512"/>
      <point x="243" y="512" type="curve" smooth="yes"/>
      <point x="246" y="512"/>
      <point x="247" y="512"/>
      <point x="258" y="515" type="curve" smooth="yes"/>
      <point x="398" y="557" type="line"/>
      <point x="289" y="41" type="line"/>
      <point x="149" y="41" type="line" smooth="yes"/>
      <point x="129" y="41"/>
      <point x="117" y="32"/>
      <point x="117" y="16" type="curve" smooth="yes"/>
      <point x="117" y="5"/>
      <point x="124" y="0"/>
      <point x="141" y="0" type="curve" smooth="yes"/>
      <point x="461" y="0" type="line" smooth="yes"/>
      <point x="480" y="0"/>
      <point x="492" y="10"/>
      <point x="492" y="25" type="curve" smooth="yes"/>
      <point x="492" y="37"/>
      <point x="486" y="41"/>
      <point x="469" y="41" type="curve" smooth="yes"/>
      <point x="330" y="41" type="line"/>
    </contour>
  </outline>
</glyph>
<glyph name="two" format="1">
  <advance width="600"/>
  <unicode hex="0032"/>
  <outline>
    <contour>
      <point x="132" y="41" type="line"/>
      <point x="133" y="44" type="line"/>
      <point x="239" y="122"/>
      <point x="450" y="290"/>
      <point x="496" y="334" type="curve" smooth="yes"/>
      <point x="552" y="388"/>
      <point x="572" y="427"/>
      <point x="572" y="479" type="curve" smooth="yes"/>
      <point x="572" y="555"/>
      <point x="505" y="618"/>
      <point x="424" y="618" type="curve" smooth="yes"/>
      <point x="360" y="618"/>
      <point x="299" y="591"/>
      <point x="250" y="542" type="curve" smooth="yes"/>
      <point x="225" y="516"/>
      <point x="203" y="481"/>
      <point x="203" y="466" type="curve" smooth="yes"/>
      <point x="203" y="459"/>
      <point x="211" y="452"/>
      <point x="219" y="452" type="curve" smooth="yes"/>
      <point x="230" y="452"/>
      <point x="237" y="458"/>
      <point x="244" y="472" type="curve" smooth="yes"/>
      <point x="273" y="533"/>
      <point x="344" y="577"/>
      <point x="414" y="577" type="curve" smooth="yes"/>
      <point x="478" y="577"/>
      <point x="530" y="529"/>
      <point x="530" y="471" type="curve" smooth="yes"/>
      <point x="530" y="414"/>
      <point x="507" y="385"/>
      <point x="380" y="282" type="curve" smooth="yes"/>
      <point x="97" y="60" type="line"/>
      <point x="84" y="0" type="line"/>
      <point x="478" y="0" type="line"/>
      <point x="494" y="77" type="line" smooth="yes"/>
      <point x="496" y="85"/>
      <point x="496" y="86"/>
      <point x="496" y="89" type="curve" smooth="yes"/>
      <point x="496" y="97"/>
      <point x="489" y="104"/>
      <point x="480" y="104" type="curve" smooth="yes"/>
      <point x="466" y="104"/>
      <point x="457" y="95"/>
      <point x="453" y="77" type="curve" smooth="yes"/>
      <point x="446" y="41" type="line"/>
    </contour>
  </outline>
</glyph>
<glyph name="three" format="1">
  <advance width="600"/>
  <unicode hex="0033"/>
  <outline>
    <contour>
      <point x="444" y="328" type="curve"/>
      <point x="528" y="361"/>
      <point x="579" y="422"/>
      <point x="579" y="493" type="curve" smooth="yes"/>
      <point x="579" y="567"/>
      <point x="520" y="618"/>
      <point x="433" y="618" type="curve" smooth="yes"/>
      <point x="374" y="618"/>
      <point x="313" y="597"/>
      <point x="267" y="561" type="curve" smooth="yes"/>
      <point x="246" y="545"/>
      <point x="237" y="534"/>
      <point x="237" y="525" type="curve" smooth="yes"/>
      <point x="237" y="515"/>
      <point x="244" y="509"/>
      <point x="253" y="509" type="curve" smooth="yes"/>
      <point x="261" y="509"/>
      <point x="264" y="511"/>
      <point x="277" y="523" type="curve" smooth="yes"/>
      <point x="315" y="558"/>
      <point x="367" y="577"/>
      <point x="424" y="577" type="curve" smooth="yes"/>
      <point x="491" y="577"/>
      <point x="537" y="539"/>
      <point x="537" y="485" type="curve" smooth="yes"/>
      <point x="537" y="413"/>
      <point x="466" y="353"/>
      <point x="380" y="353" type="curve" smooth="yes"/>
      <point x="339" y="353"/>
      <point x="339" y="353"/>
      <point x="332" y="347" type="curve" smooth="yes"/>
      <point x="326" y="342"/>
      <point x="322" y="335"/>
      <point x="322" y="328" type="curve" smooth="yes"/>
      <point x="322" y="317"/>
      <point x="329" y="312"/>
      <point x="345" y="312" type="curve" smooth="yes"/>
      <point x="428" y="313"/>
      <point x="496" y="260"/>
      <point x="496" y="193" type="curve" smooth="yes"/>
      <point x="496" y="107"/>
      <point x="400" y="26"/>
      <point x="297" y="26" type="curve" smooth="yes"/>
      <point x="240" y="26"/>
      <point x="190" y="44"/>
      <point x="149" y="81" type="curve" smooth="yes"/>
      <point x="143" y="86"/>
      <point x="139" y="88"/>
      <point x="133" y="88" type="curve" smooth="yes"/>
      <point x="122" y="88"/>
      <point x="110" y="76"/>
      <point x="110" y="64" type="curve" smooth="yes"/>
      <point x="110" y="53"/>
      <point x="122" y="41"/>
      <point x="148" y="26" type="curve" smooth="yes"/>
      <point x="194" y="-2"/>
      <point x="238" y="-15"/>
      <point x="287" y="-15" type="curve" smooth="yes"/>
      <point x="415" y="-15"/>
      <point x="538" y="89"/>
      <point x="538" y="197" type="curve" smooth="yes"/>
      <point x="538" y="254"/>
      <point x="505" y="301"/>
    </contour>
  </outline>
</glyph>
<glyph name="four" format="1">
  <advance width="600"/>
  <unicode hex="0034"/>
  <outline>
    <contour>
      <point x="412" y="169" type="line"/>
      <point x="385" y="41" type="line"/>
      <point x="309" y="41" type="line" smooth="yes"/>
      <point x="289" y="41"/>
      <point x="277" y="32"/>
      <point x="277" y="16" type="curve" smooth="yes"/>
      <point x="277" y="5"/>
      <point x="284" y="0"/>
      <point x="300" y="0" type="curve" smooth="yes"/>
      <point x="451" y="0" type="line" smooth="yes"/>
      <point x="470" y="0"/>
      <point x="483" y="10"/>
      <point x="483" y="25" type="curve" smooth="yes"/>
      <point x="483" y="36"/>
      <point x="476" y="41"/>
      <point x="459" y="41" type="curve" smooth="yes"/>
      <point x="425" y="41" type="line"/>
      <point x="453" y="169" type="line"/>
      <point x="487" y="169" type="line" smooth="yes"/>
      <point x="506" y="169"/>
      <point x="518" y="178"/>
      <point x="518" y="194" type="curve" smooth="yes"/>
      <point x="518" y="206"/>
      <point x="512" y="210"/>
      <point x="495" y="210" type="curve" smooth="yes"/>
      <point x="461" y="210" type="line"/>
      <point x="545" y="604" type="line"/>
      <point x="461" y="604" type="line"/>
      <point x="151" y="216" type="line"/>
      <point x="141" y="169" type="line"/>
    </contour>
    <contour>
      <point x="420" y="210" type="line"/>
      <point x="189" y="210" type="line"/>
      <point x="472" y="563" type="line"/>
      <point x="495" y="563" type="line"/>
    </contour>
  </outline>
</glyph>
<glyph name="five" format="1">
  <advance width="600"/>
  <unicode hex="0035"/>
  <outline>
    <contour>
      <point x="310" y="563" type="line"/>
      <point x="552" y="563" type="line" smooth="yes"/>
      <point x="572" y="563"/>
      <point x="584" y="572"/>
      <point x="584" y="588" type="curve" smooth="yes"/>
      <point x="584" y="599"/>
      <point x="577" y="604"/>
      <point x="560" y="604" type="curve" smooth="yes"/>
      <point x="278" y="604" type="line"/>
      <point x="221" y="335" type="line"/>
      <point x="220" y="333"/>
      <point x="220" y="330"/>
      <point x="220" y="328" type="curve"/>
      <point x="221" y="319"/>
      <point x="227" y="313"/>
      <point x="235" y="313" type="curve" smooth="yes"/>
      <point x="241" y="313"/>
      <point x="246" y="315"/>
      <point x="259" y="321" type="curve" smooth="yes"/>
      <point x="305" y="342"/>
      <point x="352" y="354"/>
      <point x="392" y="354" type="curve" smooth="yes"/>
      <point x="462" y="354"/>
      <point x="506" y="311"/>
      <point x="506" y="242" type="curve" smooth="yes"/>
      <point x="506" y="202"/>
      <point x="491" y="157"/>
      <point x="466" y="118" type="curve" smooth="yes"/>
      <point x="427" y="59"/>
      <point x="367" y="26"/>
      <point x="299" y="26" type="curve" smooth="yes"/>
      <point x="242" y="26"/>
      <point x="192" y="49"/>
      <point x="153" y="93" type="curve" smooth="yes"/>
      <point x="147" y="100"/>
      <point x="143" y="102"/>
      <point x="138" y="102" type="curve" smooth="yes"/>
      <point x="125" y="102"/>
      <point x="113" y="90"/>
      <point x="113" y="78" type="curve" smooth="yes"/>
      <point x="113" y="65"/>
      <point x="133" y="45"/>
      <point x="165" y="23" type="curve" smooth="yes"/>
      <point x="202" y="-2"/>
      <point x="245" y="-15"/>
      <point x="292" y="-15" type="curve" smooth="yes"/>
      <point x="429" y="-15"/>
      <point x="548" y="108"/>
      <point x="548" y="250" type="curve" smooth="yes"/>
      <point x="548" y="338"/>
      <point x="491" y="395"/>
      <point x="405" y="395" type="curve" smooth="yes"/>
      <point x="363" y="395"/>
      <point x="324" y="386"/>
      <point x="268" y="365" type="curve"/>
    </contour>
  </outline>
</glyph>
<glyph name="six" format="1">
  <advance width="600"/>
  <unicode hex="0036"/>
  <outline>
    <contour>
      <point x="228" y="242" type="curve"/>
      <point x="239" y="318"/>
      <point x="257" y="369"/>
      <point x="290" y="420" type="curve" smooth="yes"/>
      <point x="349" y="510"/>
      <point x="458" y="577"/>
      <point x="546" y="577" type="curve" smooth="yes"/>
      <point x="565" y="577"/>
      <point x="582" y="574"/>
      <point x="591" y="569" type="curve"/>
      <point x="599" y="564"/>
      <point x="603" y="563"/>
      <point x="608" y="563" type="curve" smooth="yes"/>
      <point x="620" y="563"/>
      <point x="631" y="575"/>
      <point x="631" y="587" type="curve" smooth="yes"/>
      <point x="631" y="604"/>
      <point x="598" y="618"/>
      <point x="560" y="618" type="curve" smooth="yes"/>
      <point x="478" y="618"/>
      <point x="390" y="580"/>
      <point x="319" y="513" type="curve" smooth="yes"/>
      <point x="235" y="434"/>
      <point x="184" y="308"/>
      <point x="184" y="179" type="curve" smooth="yes"/>
      <point x="184" y="60"/>
      <point x="242" y="-15"/>
      <point x="333" y="-15" type="curve" smooth="yes"/>
      <point x="445" y="-15"/>
      <point x="552" y="99"/>
      <point x="552" y="219" type="curve" smooth="yes"/>
      <point x="552" y="304"/>
      <point x="497" y="364"/>
      <point x="420" y="364" type="curve" smooth="yes"/>
      <point x="349" y="364"/>
      <point x="287" y="324"/>
    </contour>
    <contour>
      <point x="222" y="188" type="curve"/>
      <point x="256" y="232"/>
      <point x="271" y="250"/>
      <point x="289" y="266" type="curve" smooth="yes"/>
      <point x="329" y="303"/>
      <point x="373" y="323"/>
      <point x="412" y="323" type="curve" smooth="yes"/>
      <point x="468" y="323"/>
      <point x="510" y="275"/>
      <point x="510" y="212" type="curve" smooth="yes"/>
      <point x="510" y="116"/>
      <point x="429" y="26"/>
      <point x="343" y="26" type="curve" smooth="yes"/>
      <point x="283" y="26"/>
      <point x="246" y="58"/>
      <point x="230" y="123" type="curve" smooth="yes"/>
      <point x="225" y="145"/>
      <point x="224" y="148"/>
    </contour>
  </outline>
</glyph>
<glyph name="seven" format="1">
  <advance width="600"/>
  <unicode hex="0037"/>
  <outline>
    <contour>
      <point x="553" y="545" type="line"/>
      <point x="284" y="32" type="line" smooth="yes"/>
      <point x="280" y="24"/>
      <point x="278" y="19"/>
      <point x="278" y="14" type="curve" smooth="yes"/>
      <point x="278" y="6"/>
      <point x="285" y="-1"/>
      <point x="294" y="-1" type="curve" smooth="yes"/>
      <point x="305" y="-1"/>
      <point x="311" y="4"/>
      <point x="319" y="20" type="curve" smooth="yes"/>
      <point x="592" y="539" type="line"/>
      <point x="606" y="604" type="line"/>
      <point x="233" y="604" type="line"/>
      <point x="217" y="528" type="line" smooth="yes"/>
      <point x="216" y="523"/>
      <point x="215" y="518"/>
      <point x="215" y="515" type="curve" smooth="yes"/>
      <point x="215" y="507"/>
      <point x="223" y="500"/>
      <point x="231" y="500" type="curve" smooth="yes"/>
      <point x="245" y="500"/>
      <point x="254" y="509"/>
      <point x="258" y="528" type="curve" smooth="yes"/>
      <point x="265" y="563" type="line"/>
      <point x="557" y="563" type="line"/>
    </contour>
  </outline>
</glyph>
<glyph name="eight" format="1">
  <advance width="600"/>
  <unicode hex="0038"/>
  <outline>
    <contour>
      <point x="441" y="313" type="curve"/>
      <point x="475" y="328"/>
      <point x="491" y="338"/>
      <point x="510" y="353" type="curve" smooth="yes"/>
      <point x="552" y="388"/>
      <point x="576" y="436"/>
      <point x="576" y="483" type="curve" smooth="yes"/>
      <point x="576" y="561"/>
      <point x="515" y="618"/>
      <point x="432" y="618" type="curve" smooth="yes"/>
      <point x="323" y="618"/>
      <point x="216" y="522"/>
      <point x="216" y="424" type="curve" smooth="yes"/>
      <point x="216" y="376"/>
      <point x="237" y="344"/>
      <point x="291" y="313" type="curve"/>
      <point x="197" y="274"/>
      <point x="143" y="206"/>
      <point x="143" y="128" type="curve" smooth="yes"/>
      <point x="143" y="45"/>
      <point x="207" y="-15"/>
      <point x="296" y="-15" type="curve" smooth="yes"/>
      <point x="412" y="-15"/>
      <point x="524" y="87"/>
      <point x="524" y="192" type="curve" smooth="yes"/>
      <point x="524" y="244"/>
      <point x="496" y="285"/>
    </contour>
    <contour>
      <point x="422" y="577" type="curve" smooth="yes"/>
      <point x="489" y="577"/>
      <point x="534" y="535"/>
      <point x="534" y="473" type="curve" smooth="yes"/>
      <point x="534" y="399"/>
      <point x="457" y="333"/>
      <point x="370" y="333" type="curve" smooth="yes"/>
      <point x="305" y="333"/>
      <point x="257" y="374"/>
      <point x="257" y="429" type="curve" smooth="yes"/>
      <point x="257" y="504"/>
      <point x="338" y="577"/>
    </contour>
    <contour>
      <point x="361" y="293" type="curve" smooth="yes"/>
      <point x="434" y="293"/>
      <point x="482" y="250"/>
      <point x="482" y="184" type="curve" smooth="yes"/>
      <point x="482" y="103"/>
      <point x="396" y="26"/>
      <point x="305" y="26" type="curve" smooth="yes"/>
      <point x="235" y="26"/>
      <point x="185" y="71"/>
      <point x="185" y="135" type="curve" smooth="yes"/>
      <point x="185" y="219"/>
      <point x="268" y="293"/>
    </contour>
  </outline>
</glyph>
<glyph name="nine" format="1">
  <advance width="600"/>
  <unicode hex="0039"/>
  <outline>
    <contour>
      <point x="545" y="361" type="curve"/>
      <point x="542" y="340"/>
      <point x="542" y="340"/>
      <point x="541" y="334" type="curve" smooth="yes"/>
      <point x="532" y="282"/>
      <point x="510" y="225"/>
      <point x="483" y="183" type="curve" smooth="yes"/>
      <point x="424" y="93"/>
      <point x="315" y="26"/>
      <point x="227" y="26" type="curve" smooth="yes"/>
      <point x="208" y="26"/>
      <point x="191" y="29"/>
      <point x="182" y="34" type="curve"/>
      <point x="174" y="39"/>
      <point x="170" y="40"/>
      <point x="165" y="40" type="curve" smooth="yes"/>
      <point x="153" y="40"/>
      <point x="142" y="28"/>
      <point x="142" y="16" type="curve" smooth="yes"/>
      <point x="142" y="-1"/>
      <point x="175" y="-15"/>
      <point x="213" y="-15" type="curve" smooth="yes"/>
      <point x="295" y="-15"/>
      <point x="383" y="23"/>
      <point x="454" y="90" type="curve" smooth="yes"/>
      <point x="538" y="169"/>
      <point x="589" y="295"/>
      <point x="589" y="424" type="curve" smooth="yes"/>
      <point x="589" y="543"/>
      <point x="531" y="618"/>
      <point x="440" y="618" type="curve" smooth="yes"/>
      <point x="328" y="618"/>
      <point x="221" y="504"/>
      <point x="221" y="384" type="curve" smooth="yes"/>
      <point x="221" y="299"/>
      <point x="276" y="239"/>
      <point x="353" y="239" type="curve" smooth="yes"/>
      <point x="424" y="239"/>
      <point x="487" y="279"/>
    </contour>
    <contour>
      <point x="551" y="415" type="curve"/>
      <point x="517" y="371"/>
      <point x="502" y="353"/>
      <point x="484" y="337" type="curve" smooth="yes"/>
      <point x="444" y="300"/>
      <point x="400" y="280"/>
      <point x="361" y="280" type="curve" smooth="yes"/>
      <point x="305" y="280"/>
      <point x="263" y="328"/>
      <point x="263" y="391" type="curve" smooth="yes"/>
      <point x="263" y="487"/>
      <point x="344" y="577"/>
      <point x="430" y="577" type="curve" smooth="yes"/>
      <point x="490" y="577"/>
      <point x="527" y="545"/>
      <point x="543" y="480" type="curve" smooth="yes"/>
      <point x="548" y="459"/>
      <point x="549" y="454"/>
    </contour>
  </outline>
</glyph>
<glyph name="colon" format="1">
  <advance width="600"/>
  <unicode hex="003A"/>
  <outline>
    <contour>
      <point x="319" y="116" type="line" smooth="yes"/>
      <point x="275" y="116"/>
      <point x="235" y="79"/>
      <point x="235" y="37" type="curve" smooth="yes"/>
      <point x="235" y="6"/>
      <point x="258" y="-15"/>
      <point x="291" y="-15" type="curve" smooth="yes"/>
      <point x="302" y="-15" type="line" smooth="yes"/>
      <point x="346" y="-15"/>
      <point x="386" y="22"/>
      <point x="386" y="65" type="curve" smooth="yes"/>
      <point x="386" y="95"/>
      <point x="363" y="116"/>
      <point x="330" y="116" type="curve" smooth="yes"/>
    </contour>
    <contour>
      <point x="383" y="417" type="line" smooth="yes"/>
      <point x="339" y="417"/>
      <point x="299" y="379"/>
      <point x="299" y="337" type="curve" smooth="yes"/>
      <point x="299" y="306"/>
      <point x="322" y="285"/>
      <point x="355" y="285" type="curve" smooth="yes"/>
      <point x="366" y="285" type="line" smooth="yes"/>
      <point x="410" y="285"/>
      <point x="450" y="323"/>
      <point x="450" y="365" type="curve" smooth="yes"/>
      <point x="450" y="396"/>
      <point x="427" y="417"/>
      <point x="394" y="417" type="curve" smooth="yes"/>
    </contour>
  </outline>
</glyph>
<glyph name="semicolon" format="1">
  <advance width="600"/>
  <unicode hex="003B"/>
  <outline>
    <contour>
      <point x="242" y="145" type="line"/>
      <point x="119" y="-105" type="line" smooth="yes"/>
      <point x="116" y="-111"/>
      <point x="114" y="-117"/>
      <point x="114" y="-122" type="curve" smooth="yes"/>
      <point x="114" y="-135"/>
      <point x="124" y="-145"/>
      <point x="138" y="-145" type="curve" smooth="yes"/>
      <point x="151" y="-145"/>
      <point x="159" y="-139"/>
      <point x="174" y="-120" type="curve" smooth="yes"/>
      <point x="375" y="145" type="line"/>
    </contour>
    <contour>
      <point x="359" y="417" type="line" smooth="yes"/>
      <point x="315" y="417"/>
      <point x="275" y="379"/>
      <point x="275" y="337" type="curve" smooth="yes"/>
      <point x="275" y="306"/>
      <point x="298" y="285"/>
      <point x="331" y="285" type="curve" smooth="yes"/>
      <point x="342" y="285" type="line" smooth="yes"/>
      <point x="386" y="285"/>
      <point x="426" y="323"/>
      <point x="426" y="365" type="curve" smooth="yes"/>
      <point x="426" y="396"/>
      <point x="403" y="417"/>
      <point x="370" y="417" type="curve" smooth="yes"/>
    </contour>
  </outline>
</glyph>
<glyph name="less" format="1">
  <advance width="600"/>
  <unicode hex="003C"/>
  <outline>
    <contour>
      <point x="131" y="281" type="line"/>
      <point x="498" y="49" type="line" smooth="yes"/>
      <point x="503" y="46"/>
      <point x="508" y="44"/>
      <point x="511" y="44" type="curve" smooth="yes"/>
      <point x="516" y="44"/>
      <point x="524" y="48"/>
      <point x="528" y="54" type="curve" smooth="yes"/>
      <point x="530" y="57" type="line"/>
      <point x="533" y="61"/>
      <point x="535" y="66"/>
      <point x="535" y="70" type="curve" smooth="yes"/>
      <point x="535" y="76"/>
      <point x="533" y="79"/>
      <point x="526" y="84" type="curve"/>
      <point x="213" y="281" type="line"/>
      <point x="610" y="478" type="line" smooth="yes"/>
      <point x="621" y="484"/>
      <point x="627" y="491"/>
      <point x="627" y="499" type="curve" smooth="yes"/>
      <point x="627" y="502"/>
      <point x="627" y="503"/>
      <point x="626" y="505" type="curve"/>
      <point x="625" y="508" type="line" smooth="yes"/>
      <point x="623" y="514"/>
      <point x="618" y="518"/>
      <point x="611" y="518" type="curve" smooth="yes"/>
      <point x="609" y="518"/>
      <point x="604" y="516"/>
      <point x="598" y="513" type="curve" smooth="yes"/>
    </contour>
  </outline>
</glyph>
<glyph name="equal" format="1">
  <advance width="600"/>
  <unicode hex="003D"/>
  <outline>
    <contour>
      <point x="593" y="334" type="line" smooth="yes"/>
      <point x="613" y="334"/>
      <point x="625" y="344"/>
      <point x="625" y="359" type="curve" smooth="yes"/>
      <point x="625" y="370"/>
      <point x="618" y="375"/>
      <point x="602" y="375" type="curve" smooth="yes"/>
      <point x="158" y="375" type="line" smooth="yes"/>
      <point x="138" y="375"/>
      <point x="126" y="366"/>
      <point x="126" y="350" type="curve" smooth="yes"/>
      <point x="126" y="339"/>
      <point x="133" y="334"/>
      <point x="149" y="334" type="curve" smooth="yes"/>
    </contour>
    <contour>
      <point x="562" y="190" type="line" smooth="yes"/>
      <point x="582" y="190"/>
      <point x="594" y="200"/>
      <point x="594" y="215" type="curve" smooth="yes"/>
      <point x="594" y="226"/>
      <point x="587" y="231"/>
      <point x="571" y="231" type="curve" smooth="yes"/>
      <point x="127" y="231" type="line" smooth="yes"/>
      <point x="107" y="231"/>
      <point x="95" y="222"/>
      <point x="95" y="206" type="curve" smooth="yes"/>
      <point x="95" y="195"/>
      <point x="102" y="190"/>
      <point x="118" y="190" type="curve" smooth="yes"/>
    </contour>
  </outline>
</glyph>
<glyph name="greater" format="1">
  <advance width="600"/>
  <unicode hex="003E"/>
  <outline>
    <contour>
      <point x="588" y="281" type="line"/>
      <point x="221" y="513" type="line" smooth="yes"/>
      <point x="216" y="516"/>
      <point x="211" y="518"/>
      <point x="208" y="518" type="curve" smooth="yes"/>
      <point x="203" y="518"/>
      <point x="196" y="514"/>
      <point x="191" y="508" type="curve"/>
      <point x="189" y="505" type="line"/>
      <point x="186" y="502"/>
      <point x="184" y="496"/>
      <point x="184" y="492" type="curve" smooth="yes"/>
      <point x="184" y="486"/>
      <point x="186" y="483"/>
      <point x="193" y="478" type="curve"/>
      <point x="506" y="281" type="line"/>
      <point x="109" y="84" type="line" smooth="yes"/>
      <point x="98" y="78"/>
      <point x="92" y="71"/>
      <point x="92" y="63" type="curve" smooth="yes"/>
      <point x="92" y="61"/>
      <point x="92" y="59"/>
      <point x="93" y="57" type="curve"/>
      <point x="94" y="54" type="line" smooth="yes"/>
      <point x="96" y="48"/>
      <point x="101" y="44"/>
      <point x="108" y="44" type="curve" smooth="yes"/>
      <point x="110" y="44"/>
      <point x="115" y="46"/>
      <point x="121" y="49" type="curve" smooth="yes"/>
    </contour>
  </outline>
</glyph>
<glyph name="question" format="1">
  <advance width="600"/>
  <unicode hex="003F"/>
  <outline>
    <contour>
      <point x="375" y="247" type="line"/>
      <point x="444" y="277"/>
      <point x="481" y="297"/>
      <point x="515" y="323" type="curve" smooth="yes"/>
      <point x="556" y="356"/>
      <point x="581" y="406"/>
      <point x="581" y="455" type="curve" smooth="yes"/>
      <point x="581" y="531"/>
      <point x="525" y="577"/>
      <point x="433" y="577" type="curve" smooth="yes"/>
      <point x="381" y="577"/>
      <point x="348" y="569"/>
      <point x="279" y="541" type="curve" smooth="yes"/>
      <point x="264" y="535"/>
      <point x="259" y="533"/>
      <point x="247" y="529" type="curve"/>
      <point x="233" y="461" type="line" smooth="yes"/>
      <point x="232" y="456"/>
      <point x="231" y="452"/>
      <point x="231" y="450" type="curve" smooth="yes"/>
      <point x="231" y="441"/>
      <point x="238" y="434"/>
      <point x="248" y="434" type="curve" smooth="yes"/>
      <point x="261" y="434"/>
      <point x="270" y="443"/>
      <point x="274" y="461" type="curve" smooth="yes"/>
      <point x="282" y="502" type="line"/>
      <point x="340" y="528"/>
      <point x="374" y="536"/>
      <point x="419" y="536" type="curve" smooth="yes"/>
      <point x="492" y="536"/>
      <point x="539" y="500"/>
      <point x="539" y="444" type="curve" smooth="yes"/>
      <point x="539" y="377"/>
      <point x="482" y="328"/>
      <point x="340" y="274" type="curve"/>
      <point x="325" y="206" type="line"/>
      <point x="324" y="194" type="line"/>
      <point x="324" y="186"/>
      <point x="331" y="179"/>
      <point x="340" y="179" type="curve" smooth="yes"/>
      <point x="354" y="179"/>
      <point x="363" y="188"/>
      <point x="366" y="206" type="curve"/>
    </contour>
    <contour>
      <point x="305" y="85" type="line" smooth="yes"/>
      <point x="268" y="85"/>
      <point x="237" y="58"/>
      <point x="237" y="24" type="curve" smooth="yes"/>
      <point x="237" y="0"/>
      <point x="255" y="-15"/>
      <point x="284" y="-15" type="curve" smooth="yes"/>
      <point x="312" y="-15" type="line" smooth="yes"/>
      <point x="349" y="-15"/>
      <point x="380" y="12"/>
      <point x="380" y="45" type="curve" smooth="yes"/>
      <point x="380" y="70"/>
      <point x="363" y="85"/>
      <point x="333" y="85" type="curve" smooth="yes"/>
    </contour>
  </outline>
</glyph>
<glyph name="at" format="1">
  <advance width="600"/>
  <unicode hex="0040"/>
  <outline>
    <contour>
      <point x="449" y="145" type="line"/>
      <point x="482" y="145" type="line" smooth="yes"/>
      <point x="502" y="145"/>
      <point x="514" y="154"/>
      <point x="514" y="170" type="curve" smooth="yes"/>
      <point x="514" y="180"/>
      <point x="509" y="184"/>
      <point x="498" y="186" type="curve"/>
      <point x="557" y="463" type="line" smooth="yes"/>
      <point x="560" y="475"/>
      <point x="561" y="487"/>
      <point x="561" y="499" type="curve" smooth="yes"/>
      <point x="561" y="574"/>
      <point x="510" y="624"/>
      <point x="433" y="624" type="curve" smooth="yes"/>
      <point x="320" y="624"/>
      <point x="214" y="513"/>
      <point x="182" y="361" type="curve" smooth="yes"/>
      <point x="147" y="198" type="line" smooth="yes"/>
      <point x="142" y="172"/>
      <point x="139" y="146"/>
      <point x="139" y="121" type="curve" smooth="yes"/>
      <point x="139" y="70"/>
      <point x="154" y="20"/>
      <point x="178" y="-13" type="curve" smooth="yes"/>
      <point x="202" y="-46"/>
      <point x="238" y="-62"/>
      <point x="286" y="-62" type="curve" smooth="yes"/>
      <point x="364" y="-62"/>
      <point x="450" y="-27"/>
      <point x="450" y="5" type="curve" smooth="yes"/>
      <point x="450" y="13"/>
      <point x="443" y="20"/>
      <point x="434" y="20" type="curve" smooth="yes"/>
      <point x="427" y="20"/>
      <point x="425" y="19"/>
      <point x="412" y="9" type="curve" smooth="yes"/>
      <point x="388" y="-9"/>
      <point x="344" y="-21"/>
      <point x="301" y="-21" type="curve" smooth="yes"/>
      <point x="264" y="-21"/>
      <point x="236" y="-11"/>
      <point x="218" y="9" type="curve" smooth="yes"/>
      <point x="195" y="35"/>
      <point x="181" y="82"/>
      <point x="181" y="131" type="curve" smooth="yes"/>
      <point x="181" y="152"/>
      <point x="184" y="176"/>
      <point x="188" y="198" type="curve" smooth="yes"/>
      <point x="222" y="358" type="line" smooth="yes"/>
      <point x="250" y="490"/>
      <point x="334" y="583"/>
      <point x="425" y="583" type="curve" smooth="yes"/>
      <point x="483" y="583"/>
      <point x="519" y="547"/>
      <point x="519" y="490" type="curve" smooth="yes"/>
      <point x="519" y="480"/>
      <point x="518" y="472"/>
      <point x="516" y="463" type="curve" smooth="yes"/>
      <point x="506" y="416" type="line"/>
      <point x="477" y="416"/>
      <point x="461" y="414"/>
      <point x="438" y="408" type="curve" smooth="yes"/>
      <point x="356" y="384"/>
      <point x="297" y="316"/>
      <point x="297" y="245" type="curve" smooth="yes"/>
      <point x="297" y="187"/>
      <point x="343" y="147"/>
      <point x="408" y="147" type="curve" smooth="yes"/>
      <point x="419" y="147"/>
      <point x="430" y="148"/>
      <point x="450" y="150" type="curve"/>
    </contour>
    <contour>
      <point x="459" y="192" type="line"/>
      <point x="446" y="189"/>
      <point x="432" y="188"/>
      <point x="420" y="188" type="curve" smooth="yes"/>
      <point x="371" y="188"/>
      <point x="339" y="214"/>
      <point x="339" y="255" type="curve" smooth="yes"/>
      <point x="339" y="322"/>
      <point x="410" y="376"/>
      <point x="498" y="376" type="curve"/>
    </contour>
  </outline>
</glyph>
<glyph name="B" format="1">
  <advance width="600"/>
  <unicode hex="0042"/>
  <outline>
    <contour>
      <point x="133" y="41" type="line"/>
      <point x="79" y="41" type="line" smooth="yes"/>
      <point x="59" y="41"/>
      <point x="47" y="32"/>
      <point x="47" y="17" type="curve" smooth="yes"/>
      <point x="47" y="5"/>
      <point x="54" y="0"/>
      <point x="70" y="0" type="curve" smooth="yes"/>
      <point x="377" y="0" type="line" smooth="yes"/>
      <point x="479" y="0"/>
      <point x="577" y="88"/>
      <point x="577" y="181" type="curve" smooth="yes"/>
      <point x="577" y="234"/>
      <point x="544" y="273"/>
      <point x="477" y="298" type="curve"/>
      <point x="554" y="335"/>
      <point x="591" y="383"/>
      <point x="591" y="445" type="curve" smooth="yes"/>
      <point x="591" y="515"/>
      <point x="533" y="563"/>
      <point x="448" y="563" type="curve" smooth="yes"/>
      <point x="190" y="563" type="line" smooth="yes"/>
      <point x="170" y="563"/>
      <point x="158" y="554"/>
      <point x="158" y="539" type="curve" smooth="yes"/>
      <point x="158" y="527"/>
      <point x="165" y="522"/>
      <point x="181" y="522" type="curve" smooth="yes"/>
      <point x="235" y="522" type="line"/>
    </contour>
    <contour>
      <point x="232" y="313" type="line"/>
      <point x="276" y="522" type="line"/>
      <point x="440" y="522" type="line" smooth="yes"/>
      <point x="476" y="522"/>
      <point x="501" y="514"/>
      <point x="521" y="496" type="curve" smooth="yes"/>
      <point x="538" y="480"/>
      <point x="549" y="457"/>
      <point x="549" y="437" type="curve" smooth="yes"/>
      <point x="549" y="368"/>
      <point x="474" y="313"/>
      <point x="379" y="313" type="curve" smooth="yes"/>
    </contour>
    <contour>
      <point x="174" y="41" type="line"/>
      <point x="223" y="272" type="line"/>
      <point x="372" y="272" type="line" smooth="yes"/>
      <point x="433" y="272"/>
      <point x="465" y="265"/>
      <point x="493" y="246" type="curve" smooth="yes"/>
      <point x="518" y="229"/>
      <point x="535" y="201"/>
      <point x="535" y="175" type="curve" smooth="yes"/>
      <point x="535" y="104"/>
      <point x="463" y="41"/>
      <point x="382" y="41" type="curve" smooth="yes"/>
    </contour>
  </outline>
</glyph>
<glyph name="C" format="1">
  <advance width="600"/>
  <unicode hex="0043"/>
  <outline>
    <contour>
      <point x="586" y="507" type="line"/>
      <point x="549" y="552"/>
      <point x="494" y="576"/>
      <point x="428" y="576" type="curve" smooth="yes"/>
      <point x="361" y="576"/>
      <point x="296" y="550"/>
      <point x="242" y="502" type="curve" smooth="yes"/>
      <point x="188" y="455"/>
      <point x="145" y="386"/>
      <point x="132" y="325" type="curve" smooth="yes"/>
      <point x="115" y="242" type="line" smooth="yes"/>
      <point x="112" y="227"/>
      <point x="110" y="212"/>
      <point x="110" y="196" type="curve" smooth="yes"/>
      <point x="110" y="76"/>
      <point x="201" y="-16"/>
      <point x="319" y="-16" type="curve" smooth="yes"/>
      <point x="389" y="-16"/>
      <point x="461" y="14"/>
      <point x="524" y="67" type="curve" smooth="yes"/>
      <point x="551" y="91"/>
      <point x="558" y="100"/>
      <point x="558" y="111" type="curve" smooth="yes"/>
      <point x="558" y="119"/>
      <point x="552" y="125"/>
      <point x="542" y="125" type="curve" smooth="yes"/>
      <point x="534" y="125"/>
      <point x="530" y="123"/>
      <point x="522" y="115" type="curve" smooth="yes"/>
      <point x="454" y="51"/>
      <point x="397" y="25"/>
      <point x="328" y="25" type="curve" smooth="yes"/>
      <point x="227" y="25"/>
      <point x="152" y="101"/>
      <point x="152" y="203" type="curve" smooth="yes"/>
      <point x="152" y="217"/>
      <point x="154" y="233"/>
      <point x="157" y="248" type="curve" smooth="yes"/>
      <point x="172" y="319" type="line" smooth="yes"/>
      <point x="197" y="438"/>
      <point x="309" y="536"/>
      <point x="419" y="536" type="curve" smooth="yes"/>
      <point x="464" y="536"/>
      <point x="515" y="518"/>
      <point x="538" y="494" type="curve" smooth="yes"/>
      <point x="546" y="486"/>
      <point x="570" y="449"/>
      <point x="570" y="446" type="curve"/>
      <point x="566" y="408" type="line"/>
      <point x="572" y="399"/>
      <point x="577" y="396"/>
      <point x="583" y="396" type="curve" smooth="yes"/>
      <point x="596" y="396"/>
      <point x="606" y="406"/>
      <point x="609" y="424" type="curve" smooth="yes"/>
      <point x="633" y="536" type="line" smooth="yes"/>
      <point x="634" y="541"/>
      <point x="635" y="546"/>
      <point x="635" y="548" type="curve" smooth="yes"/>
      <point x="635" y="557"/>
      <point x="628" y="563"/>
      <point x="618" y="563" type="curve" smooth="yes"/>
      <point x="605" y="563"/>
      <point x="596" y="554"/>
      <point x="592" y="536" type="curve" smooth="yes"/>
    </contour>
  </outline>
</glyph>
<glyph name="D" format="1">
  <advance width="600"/>
  <unicode hex="0044"/>
  <outline>
    <contour>
      <point x="113" y="41" type="line"/>
      <point x="79" y="41" type="line" smooth="yes"/>
      <point x="59" y="41"/>
      <point x="47" y="32"/>
      <point x="47" y="16" type="curve" smooth="yes"/>
      <point x="47" y="5"/>
      <point x="54" y="0"/>
      <point x="70" y="0" type="curve" smooth="yes"/>
      <point x="290" y="0" type="line" smooth="yes"/>
      <point x="419" y="0"/>
      <point x="544" y="112"/>
      <point x="574" y="254" type="curve" smooth="yes"/>
      <point x="586" y="310" type="line" smooth="yes"/>
      <point x="590" y="329"/>
      <point x="592" y="348"/>
      <point x="592" y="368" type="curve" smooth="yes"/>
      <point x="592" y="484"/>
      <point x="519" y="563"/>
      <point x="410" y="563" type="curve" smooth="yes"/>
      <point x="190" y="563" type="line" smooth="yes"/>
      <point x="170" y="563"/>
      <point x="158" y="554"/>
      <point x="158" y="538" type="curve" smooth="yes"/>
      <point x="158" y="527"/>
      <point x="165" y="522"/>
      <point x="181" y="522" type="curve" smooth="yes"/>
      <point x="215" y="522" type="line"/>
    </contour>
    <contour>
      <point x="154" y="41" type="line"/>
      <point x="256" y="522" type="line"/>
      <point x="399" y="522" type="line" smooth="yes"/>
      <point x="453" y="522"/>
      <point x="488" y="507"/>
      <point x="514" y="472" type="curve" smooth="yes"/>
      <point x="538" y="440"/>
      <point x="551" y="399"/>
      <point x="551" y="357" type="curve" smooth="yes"/>
      <point x="551" y="346"/>
      <point x="549" y="332"/>
      <point x="547" y="318" type="curve"/>
      <point x="531" y="245" type="line" smooth="yes"/>
      <point x="508" y="139"/>
      <point x="399" y="41"/>
      <point x="303" y="41" type="curve" smooth="yes"/>
    </contour>
  </outline>
</glyph>
<glyph name="F" format="1">
  <advance width="600"/>
  <unicode hex="0046"/>
  <outline>
    <contour>
      <point x="223" y="272" type="line"/>
      <point x="368" y="272" type="line"/>
      <point x="358" y="227" type="line"/>
      <point x="357" y="215" type="line"/>
      <point x="357" y="207"/>
      <point x="364" y="200"/>
      <point x="373" y="200" type="curve" smooth="yes"/>
      <point x="387" y="200"/>
      <point x="396" y="209"/>
      <point x="399" y="227" type="curve" smooth="yes"/>
      <point x="427" y="358" type="line" smooth="yes"/>
      <point x="428" y="362"/>
      <point x="429" y="368"/>
      <point x="429" y="370" type="curve" smooth="yes"/>
      <point x="429" y="379"/>
      <point x="422" y="385"/>
      <point x="412" y="385" type="curve" smooth="yes"/>
      <point x="399" y="385"/>
      <point x="390" y="376"/>
      <point x="386" y="358" type="curve" smooth="yes"/>
      <point x="377" y="313" type="line"/>
      <point x="232" y="313" type="line"/>
      <point x="276" y="522" type="line"/>
      <point x="590" y="522" type="line"/>
      <point x="569" y="424" type="line"/>
      <point x="568" y="412" type="line"/>
      <point x="568" y="404"/>
      <point x="576" y="397"/>
      <point x="584" y="397" type="curve" smooth="yes"/>
      <point x="598" y="397"/>
      <point x="607" y="406"/>
      <point x="610" y="424" type="curve" smooth="yes"/>
      <point x="640" y="563" type="line"/>
      <point x="190" y="563" type="line" smooth="yes"/>
      <point x="170" y="563"/>
      <point x="158" y="554"/>
      <point x="158" y="538" type="curve" smooth="yes"/>
      <point x="158" y="527"/>
      <point x="165" y="522"/>
      <point x="181" y="522" type="curve" smooth="yes"/>
      <point x="235" y="522" type="line"/>
      <point x="133" y="41" type="line"/>
      <point x="79" y="41" type="line" smooth="yes"/>
      <point x="59" y="41"/>
      <point x="47" y="32"/>
      <point x="47" y="16" type="curve" smooth="yes"/>
      <point x="47" y="5"/>
      <point x="54" y="0"/>
      <point x="70" y="0" type="curve" smooth="yes"/>
      <point x="304" y="0" type="line" smooth="yes"/>
      <point x="323" y="0"/>
      <point x="336" y="10"/>
      <point x="336" y="25" type="curve" smooth="yes"/>
      <point x="336" y="36"/>
      <point x="329" y="41"/>
      <point x="312" y="41" type="curve" smooth="yes"/>
      <point x="174" y="41" type="line"/>
    </contour>
  </outline>
</glyph>
<glyph name="H" format="1">
  <advance width="600"/>
  <unicode hex="0048"/>
  <outline>
    <contour>
      <point x="495" y="272" type="line"/>
      <point x="446" y="41" type="line"/>
      <point x="392" y="41" type="line" smooth="yes"/>
      <point x="372" y="41"/>
      <point x="360" y="32"/>
      <point x="360" y="16" type="curve" smooth="yes"/>
      <point x="360" y="5"/>
      <point x="367" y="0"/>
      <point x="383" y="0" type="curve" smooth="yes"/>
      <point x="524" y="0" type="line" smooth="yes"/>
      <point x="543" y="0"/>
      <point x="556" y="10"/>
      <point x="556" y="25" type="curve" smooth="yes"/>
      <point x="556" y="37"/>
      <point x="550" y="41"/>
      <point x="532" y="41" type="curve" smooth="yes"/>
      <point x="487" y="41" type="line"/>
      <point x="589" y="522" type="line"/>
      <point x="614" y="522" type="line" smooth="yes"/>
      <point x="634" y="522"/>
      <point x="646" y="532"/>
      <point x="646" y="547" type="curve" smooth="yes"/>
      <point x="646" y="559"/>
      <point x="640" y="563"/>
      <point x="623" y="563" type="curve" smooth="yes"/>
      <point x="503" y="563" type="line" smooth="yes"/>
      <point x="483" y="563"/>
      <point x="471" y="554"/>
      <point x="471" y="538" type="curve" smooth="yes"/>
      <point x="471" y="527"/>
      <point x="478" y="522"/>
      <point x="494" y="522" type="curve" smooth="yes"/>
      <point x="548" y="522" type="line"/>
      <point x="504" y="313" type="line"/>
      <point x="234" y="313" type="line"/>
      <point x="278" y="522" type="line"/>
      <point x="332" y="522" type="line" smooth="yes"/>
      <point x="352" y="522"/>
      <point x="364" y="532"/>
      <point x="364" y="547" type="curve" smooth="yes"/>
      <point x="364" y="559"/>
      <point x="358" y="563"/>
      <point x="341" y="563" type="curve" smooth="yes"/>
      <point x="221" y="563" type="line" smooth="yes"/>
      <point x="201" y="563"/>
      <point x="189" y="554"/>
      <point x="189" y="538" type="curve" smooth="yes"/>
      <point x="189" y="527"/>
      <point x="196" y="522"/>
      <point x="212" y="522" type="curve" smooth="yes"/>
      <point x="237" y="522" type="line"/>
      <point x="135" y="41" type="line"/>
      <point x="89" y="41" type="line" smooth="yes"/>
      <point x="69" y="41"/>
      <point x="57" y="32"/>
      <point x="57" y="16" type="curve" smooth="yes"/>
      <point x="57" y="5"/>
      <point x="64" y="0"/>
      <point x="81" y="0" type="curve" smooth="yes"/>
      <point x="221" y="0" type="line" smooth="yes"/>
      <point x="240" y="0"/>
      <point x="253" y="10"/>
      <point x="253" y="25" type="curve" smooth="yes"/>
      <point x="253" y="37"/>
      <point x="247" y="41"/>
      <point x="230" y="41" type="curve" smooth="yes"/>
      <point x="176" y="41" type="line"/>
      <point x="225" y="272" type="line"/>
    </contour>
  </outline>
</glyph>
<glyph name="J" format="1">
  <advance width="600"/>
  <unicode hex="004A"/>
  <outline>
    <contour>
      <point x="571" y="522" type="line"/>
      <point x="667" y="522" type="line" smooth="yes"/>
      <point x="687" y="522"/>
      <point x="699" y="532"/>
      <point x="699" y="547" type="curve" smooth="yes"/>
      <point x="699" y="559"/>
      <point x="693" y="563"/>
      <point x="676" y="563" type="curve" smooth="yes"/>
      <point x="380" y="563" type="line" smooth="yes"/>
      <point x="360" y="563"/>
      <point x="348" y="554"/>
      <point x="348" y="538" type="curve" smooth="yes"/>
      <point x="348" y="527"/>
      <point x="355" y="522"/>
      <point x="372" y="522" type="curve" smooth="yes"/>
      <point x="530" y="522" type="line"/>
      <point x="454" y="165" type="line" smooth="yes"/>
      <point x="438" y="87"/>
      <point x="360" y="25"/>
      <point x="278" y="25" type="curve" smooth="yes"/>
      <point x="228" y="25"/>
      <point x="186" y="47"/>
      <point x="145" y="93" type="curve"/>
      <point x="173" y="223" type="line"/>
      <point x="174" y="235" type="line"/>
      <point x="174" y="243"/>
      <point x="167" y="250"/>
      <point x="158" y="250" type="curve" smooth="yes"/>
      <point x="144" y="250"/>
      <point x="136" y="241"/>
      <point x="132" y="223" type="curve" smooth="yes"/>
      <point x="100" y="74" type="line"/>
      <point x="158" y="9"/>
      <point x="205" y="-16"/>
      <point x="269" y="-16" type="curve" smooth="yes"/>
      <point x="371" y="-16"/>
      <point x="474" y="67"/>
      <point x="495" y="165" type="curve" smooth="yes"/>
    </contour>
  </outline>
</glyph>
<glyph name="K" format="1">
  <advance width="600"/>
  <unicode hex="004B"/>
  <outline>
    <contour>
      <point x="212" y="221" type="line"/>
      <point x="309" y="294" type="line"/>
      <point x="397" y="263"/>
      <point x="428" y="204"/>
      <point x="459" y="0" type="curve"/>
      <point x="545" y="0" type="line" smooth="yes"/>
      <point x="564" y="0"/>
      <point x="577" y="10"/>
      <point x="577" y="25" type="curve" smooth="yes"/>
      <point x="577" y="36"/>
      <point x="570" y="41"/>
      <point x="554" y="41" type="curve" smooth="yes"/>
      <point x="498" y="41" type="line"/>
      <point x="464" y="233"/>
      <point x="437" y="284"/>
      <point x="349" y="324" type="curve"/>
      <point x="613" y="522" type="line"/>
      <point x="630" y="522" type="line" smooth="yes"/>
      <point x="650" y="522"/>
      <point x="662" y="532"/>
      <point x="662" y="547" type="curve" smooth="yes"/>
      <point x="662" y="559"/>
      <point x="656" y="563"/>
      <point x="638" y="563" type="curve" smooth="yes"/>
      <point x="519" y="563" type="line" smooth="yes"/>
      <point x="499" y="563"/>
      <point x="487" y="554"/>
      <point x="487" y="538" type="curve" smooth="yes"/>
      <point x="487" y="527"/>
      <point x="494" y="522"/>
      <point x="511" y="522" type="curve" smooth="yes"/>
      <point x="556" y="522" type="line"/>
      <point x="223" y="273" type="line"/>
      <point x="276" y="522" type="line"/>
      <point x="351" y="522" type="line" smooth="yes"/>
      <point x="371" y="522"/>
      <point x="383" y="532"/>
      <point x="383" y="547" type="curve" smooth="yes"/>
      <point x="383" y="559"/>
      <point x="377" y="563"/>
      <point x="359" y="563" type="curve" smooth="yes"/>
      <point x="190" y="563" type="line" smooth="yes"/>
      <point x="170" y="563"/>
      <point x="158" y="554"/>
      <point x="158" y="539" type="curve" smooth="yes"/>
      <point x="158" y="527"/>
      <point x="165" y="522"/>
      <point x="181" y="522" type="curve" smooth="yes"/>
      <point x="235" y="522" type="line"/>
      <point x="133" y="41" type="line"/>
      <point x="79" y="41" type="line" smooth="yes"/>
      <point x="59" y="41"/>
      <point x="47" y="32"/>
      <point x="47" y="17" type="curve" smooth="yes"/>
      <point x="47" y="5"/>
      <point x="54" y="0"/>
      <point x="70" y="0" type="curve" smooth="yes"/>
      <point x="240" y="0" type="line" smooth="yes"/>
      <point x="259" y="0"/>
      <point x="272" y="10"/>
      <point x="272" y="25" type="curve" smooth="yes"/>
      <point x="272" y="36"/>
      <point x="265" y="41"/>
      <point x="248" y="41" type="curve" smooth="yes"/>
      <point x="174" y="41" type="line"/>
    </contour>
  </outline>
</glyph>
<glyph name="L" format="1">
  <advance width="600"/>
  <unicode hex="004C"/>
  <outline>
    <contour>
      <point x="338" y="522" type="line"/>
      <point x="434" y="522" type="line" smooth="yes"/>
      <point x="454" y="522"/>
      <point x="466" y="532"/>
      <point x="466" y="547" type="curve" smooth="yes"/>
      <point x="466" y="559"/>
      <point x="460" y="563"/>
      <point x="443" y="563" type="curve" smooth="yes"/>
      <point x="209" y="563" type="line" smooth="yes"/>
      <point x="190" y="563"/>
      <point x="178" y="554"/>
      <point x="178" y="539" type="curve" smooth="yes"/>
      <point x="178" y="527"/>
      <point x="184" y="522"/>
      <point x="201" y="522" type="curve" smooth="yes"/>
      <point x="297" y="522" type="line"/>
      <point x="195" y="41" type="line"/>
      <point x="99" y="41" type="line" smooth="yes"/>
      <point x="79" y="41"/>
      <point x="67" y="32"/>
      <point x="67" y="16" type="curve" smooth="yes"/>
      <point x="67" y="5"/>
      <point x="74" y="0"/>
      <point x="90" y="0" type="curve" smooth="yes"/>
      <point x="541" y="0" type="line"/>
      <point x="583" y="201" type="line" smooth="yes"/>
      <point x="584" y="206"/>
      <point x="585" y="211"/>
      <point x="585" y="214" type="curve" smooth="yes"/>
      <point x="585" y="222"/>
      <point x="578" y="228"/>
      <point x="568" y="228" type="curve" smooth="yes"/>
      <point x="555" y="228"/>
      <point x="546" y="219"/>
      <point x="542" y="201" type="curve" smooth="yes"/>
      <point x="508" y="41" type="line"/>
      <point x="236" y="41" type="line"/>
    </contour>
  </outline>
</glyph>
<glyph name="M" format="1">
  <advance width="600"/>
  <unicode hex="004D"/>
  <outline>
    <contour>
      <point x="362" y="169" type="line"/>
      <point x="594" y="522" type="line"/>
      <point x="602" y="522" type="line"/>
      <point x="500" y="41" type="line"/>
      <point x="425" y="41" type="line" smooth="yes"/>
      <point x="406" y="41"/>
      <point x="394" y="32"/>
      <point x="394" y="17" type="curve" smooth="yes"/>
      <point x="394" y="5"/>
      <point x="401" y="0"/>
      <point x="417" y="0" type="curve" smooth="yes"/>
      <point x="566" y="0" type="line" smooth="yes"/>
      <point x="585" y="0"/>
      <point x="598" y="10"/>
      <point x="598" y="25" type="curve" smooth="yes"/>
      <point x="598" y="36"/>
      <point x="591" y="41"/>
      <point x="575" y="41" type="curve" smooth="yes"/>
      <point x="541" y="41" type="line"/>
      <point x="643" y="522" type="line"/>
      <point x="668" y="522" type="line" smooth="yes"/>
      <point x="688" y="522"/>
      <point x="700" y="532"/>
      <point x="700" y="547" type="curve" smooth="yes"/>
      <point x="700" y="559"/>
      <point x="694" y="563"/>
      <point x="677" y="563" type="curve" smooth="yes"/>
      <point x="577" y="563" type="line"/>
      <point x="349" y="215" type="line"/>
      <point x="266" y="563" type="line"/>
      <point x="167" y="563" type="line" smooth="yes"/>
      <point x="147" y="563"/>
      <point x="135" y="554"/>
      <point x="135" y="539" type="curve" smooth="yes"/>
      <point x="135" y="527"/>
      <point x="141" y="522"/>
      <point x="158" y="522" type="curve" smooth="yes"/>
      <point x="183" y="522" type="line"/>
      <point x="81" y="41" type="line"/>
      <point x="47" y="41" type="line" smooth="yes"/>
      <point x="27" y="41"/>
      <point x="15" y="32"/>
      <point x="15" y="17" type="curve" smooth="yes"/>
      <point x="15" y="5"/>
      <point x="22" y="0"/>
      <point x="38" y="0" type="curve" smooth="yes"/>
      <point x="188" y="0" type="line" smooth="yes"/>
      <point x="207" y="0"/>
      <point x="220" y="10"/>
      <point x="220" y="25" type="curve" smooth="yes"/>
      <point x="220" y="36"/>
      <point x="213" y="41"/>
      <point x="196" y="41" type="curve" smooth="yes"/>
      <point x="122" y="41" type="line"/>
      <point x="224" y="522" type="line"/>
      <point x="232" y="522" type="line"/>
      <point x="316" y="169" type="line"/>
    </contour>
  </outline>
</glyph>
<glyph name="N" format="1">
  <advance width="600"/>
  <unicode hex="004E"/>
  <outline>
    <contour>
      <point x="501" y="0" type="line"/>
      <point x="612" y="522" type="line"/>
      <point x="646" y="522" type="line" smooth="yes"/>
      <point x="666" y="522"/>
      <point x="678" y="532"/>
      <point x="678" y="547" type="curve" smooth="yes"/>
      <point x="678" y="559"/>
      <point x="672" y="563"/>
      <point x="655" y="563" type="curve" smooth="yes"/>
      <point x="505" y="563" type="line" smooth="yes"/>
      <point x="485" y="563"/>
      <point x="473" y="554"/>
      <point x="473" y="538" type="curve" smooth="yes"/>
      <point x="473" y="527"/>
      <point x="480" y="522"/>
      <point x="497" y="522" type="curve" smooth="yes"/>
      <point x="571" y="522" type="line"/>
      <point x="473" y="59" type="line"/>
      <point x="275" y="563" type="line"/>
      <point x="169" y="563" type="line" smooth="yes"/>
      <point x="149" y="563"/>
      <point x="137" y="554"/>
      <point x="137" y="539" type="curve" smooth="yes"/>
      <point x="137" y="527"/>
      <point x="143" y="522"/>
      <point x="160" y="522" type="curve" smooth="yes"/>
      <point x="214" y="522" type="line"/>
      <point x="112" y="41" type="line"/>
      <point x="78" y="41" type="line" smooth="yes"/>
      <point x="58" y="41"/>
      <point x="46" y="32"/>
      <point x="46" y="17" type="curve" smooth="yes"/>
      <point x="46" y="5"/>
      <point x="53" y="0"/>
      <point x="69" y="0" type="curve" smooth="yes"/>
      <point x="219" y="0" type="line" smooth="yes"/>
      <point x="238" y="0"/>
      <point x="251" y="10"/>
      <point x="251" y="25" type="curve" smooth="yes"/>
      <point x="251" y="37"/>
      <point x="244" y="41"/>
      <point x="227" y="41" type="curve" smooth="yes"/>
      <point x="153" y="41" type="line"/>
      <point x="251" y="504" type="line"/>
      <point x="449" y="0" type="line"/>
    </contour>
  </outline>
</glyph>
<glyph name="O" format="1">
  <advance width="600"/>
  <unicode hex="004F"/>
  <outline>
    <contour>
      <point x="422" y="576" type="curve" smooth="yes"/>
      <point x="258" y="576"/>
      <point x="102" y="396"/>
      <point x="102" y="207" type="curve" smooth="yes"/>
      <point x="102" y="74"/>
      <point x="181" y="-16"/>
      <point x="296" y="-16" type="curve" smooth="yes"/>
      <point x="461" y="-16"/>
      <point x="616" y="164"/>
      <point x="616" y="357" type="curve" smooth="yes"/>
      <point x="616" y="486"/>
      <point x="536" y="576"/>
    </contour>
    <contour>
      <point x="415" y="535" type="curve" smooth="yes"/>
      <point x="507" y="535"/>
      <point x="574" y="455"/>
      <point x="574" y="345" type="curve" smooth="yes"/>
      <point x="574" y="181"/>
      <point x="441" y="25"/>
      <point x="302" y="25" type="curve" smooth="yes"/>
      <point x="211" y="25"/>
      <point x="144" y="106"/>
      <point x="144" y="216" type="curve" smooth="yes"/>
      <point x="144" y="378"/>
      <point x="277" y="535"/>
    </contour>
  </outline>
</glyph>
<glyph name="P" format="1">
  <advance width="600"/>
  <unicode hex="0050"/>
  <outline>
    <contour>
      <point x="214" y="231" type="line"/>
      <point x="346" y="231" type="line" smooth="yes"/>
      <point x="474" y="231"/>
      <point x="587" y="324"/>
      <point x="587" y="431" type="curve" smooth="yes"/>
      <point x="587" y="508"/>
      <point x="522" y="563"/>
      <point x="430" y="563" type="curve" smooth="yes"/>
      <point x="190" y="563" type="line" smooth="yes"/>
      <point x="170" y="563"/>
      <point x="158" y="554"/>
      <point x="158" y="539" type="curve" smooth="yes"/>
      <point x="158" y="527"/>
      <point x="164" y="522"/>
      <point x="181" y="522" type="curve" smooth="yes"/>
      <point x="235" y="522" type="line"/>
      <point x="133" y="41" type="line"/>
      <point x="79" y="41" type="line" smooth="yes"/>
      <point x="59" y="41"/>
      <point x="47" y="32"/>
      <point x="47" y="17" type="curve" smooth="yes"/>
      <point x="47" y="5"/>
      <point x="54" y="0"/>
      <point x="70" y="0" type="curve" smooth="yes"/>
      <point x="303" y="0" type="line" smooth="yes"/>
      <point x="323" y="0"/>
      <point x="336" y="10"/>
      <point x="336" y="25" type="curve" smooth="yes"/>
      <point x="336" y="36"/>
      <point x="329" y="41"/>
      <point x="312" y="41" type="curve" smooth="yes"/>
      <point x="174" y="41" type="line"/>
    </contour>
    <contour>
      <point x="223" y="272" type="line"/>
      <point x="276" y="522" type="line"/>
      <point x="425" y="522" type="line" smooth="yes"/>
      <point x="494" y="522"/>
      <point x="545" y="479"/>
      <point x="545" y="421" type="curve" smooth="yes"/>
      <point x="545" y="343"/>
      <point x="455" y="272"/>
      <point x="357" y="272" type="curve" smooth="yes"/>
    </contour>
  </outline>
</glyph>
<glyph name="Q" format="1">
  <advance width="600"/>
  <unicode hex="0051"/>
  <outline>
    <contour>
      <point x="301" y="-16" type="line"/>
      <point x="465" y="-11"/>
      <point x="616" y="166"/>
      <point x="616" y="354" type="curve" smooth="yes"/>
      <point x="616" y="486"/>
      <point x="537" y="576"/>
      <point x="422" y="576" type="curve" smooth="yes"/>
      <point x="258" y="576"/>
      <point x="102" y="396"/>
      <point x="102" y="206" type="curve" smooth="yes"/>
      <point x="102" y="97"/>
      <point x="160" y="10"/>
      <point x="246" y="-10" type="curve"/>
      <point x="142" y="-75" type="line" smooth="yes"/>
      <point x="132" y="-81"/>
      <point x="127" y="-89"/>
      <point x="127" y="-97" type="curve" smooth="yes"/>
      <point x="127" y="-107"/>
      <point x="133" y="-114"/>
      <point x="143" y="-114" type="curve" smooth="yes"/>
      <point x="145" y="-114"/>
      <point x="149" y="-113"/>
      <point x="153" y="-112" type="curve" smooth="yes"/>
      <point x="200" y="-100"/>
      <point x="269" y="-89"/>
      <point x="298" y="-89" type="curve" smooth="yes"/>
      <point x="323" y="-89"/>
      <point x="339" y="-92"/>
      <point x="364" y="-102" type="curve" smooth="yes"/>
      <point x="391" y="-112"/>
      <point x="402" y="-115"/>
      <point x="418" y="-115" type="curve" smooth="yes"/>
      <point x="443" y="-115"/>
      <point x="478" y="-104"/>
      <point x="510" y="-86" type="curve" smooth="yes"/>
      <point x="527" y="-76"/>
      <point x="533" y="-70"/>
      <point x="533" y="-59" type="curve" smooth="yes"/>
      <point x="533" y="-49"/>
      <point x="526" y="-43"/>
      <point x="517" y="-43" type="curve" smooth="yes"/>
      <point x="513" y="-43"/>
      <point x="509" y="-44"/>
      <point x="504" y="-47" type="curve" smooth="yes"/>
      <point x="468" y="-67"/>
      <point x="450" y="-74"/>
      <point x="429" y="-74" type="curve" smooth="yes"/>
      <point x="416" y="-74"/>
      <point x="409" y="-72"/>
      <point x="386" y="-63" type="curve" smooth="yes"/>
      <point x="359" y="-52"/>
      <point x="337" y="-48"/>
      <point x="307" y="-48" type="curve" smooth="yes"/>
      <point x="286" y="-48"/>
      <point x="270" y="-50"/>
      <point x="238" y="-56" type="curve"/>
    </contour>
    <contour>
      <point x="415" y="535" type="curve" smooth="yes"/>
      <point x="507" y="535"/>
      <point x="574" y="455"/>
      <point x="574" y="346" type="curve" smooth="yes"/>
      <point x="574" y="181"/>
      <point x="441" y="25"/>
      <point x="302" y="25" type="curve" smooth="yes"/>
      <point x="211" y="25"/>
      <point x="144" y="106"/>
      <point x="144" y="216" type="curve" smooth="yes"/>
      <point x="144" y="379"/>
      <point x="277" y="535"/>
    </contour>
  </outline>
</glyph>
<glyph name="S" format="1">
  <advance width="600"/>
  <unicode hex="0053"/>
  <outline>
    <contour>
      <point x="555" y="517" type="line"/>
      <point x="523" y="558"/>
      <point x="479" y="577"/>
      <point x="420" y="577" type="curve" smooth="yes"/>
      <point x="305" y="577"/>
      <point x="201" y="489"/>
      <point x="201" y="392" type="curve" smooth="yes"/>
      <point x="201" y="364"/>
      <point x="214" y="334"/>
      <point x="234" y="317" type="curve" smooth="yes"/>
      <point x="259" y="295"/>
      <point x="293" y="283"/>
      <point x="361" y="271" type="curve" smooth="yes"/>
      <point x="430" y="259"/>
      <point x="450" y="253"/>
      <point x="470" y="237" type="curve" smooth="yes"/>
      <point x="487" y="224"/>
      <point x="500" y="199"/>
      <point x="500" y="177" type="curve" smooth="yes"/>
      <point x="500" y="95"/>
      <point x="410" y="24"/>
      <point x="307" y="24" type="curve" smooth="yes"/>
      <point x="268" y="24"/>
      <point x="222" y="37"/>
      <point x="201" y="55" type="curve"/>
      <point x="188" y="65"/>
      <point x="160" y="103"/>
      <point x="160" y="109" type="curve"/>
      <point x="164" y="155" type="line"/>
      <point x="159" y="163"/>
      <point x="154" y="167"/>
      <point x="148" y="167" type="curve" smooth="yes"/>
      <point x="135" y="167"/>
      <point x="125" y="157"/>
      <point x="121" y="139" type="curve" smooth="yes"/>
      <point x="98" y="27" type="line" smooth="yes"/>
      <point x="97" y="23"/>
      <point x="96" y="17"/>
      <point x="96" y="15" type="curve" smooth="yes"/>
      <point x="96" y="7"/>
      <point x="103" y="0"/>
      <point x="112" y="0" type="curve" smooth="yes"/>
      <point x="126" y="0"/>
      <point x="135" y="9"/>
      <point x="139" y="27" type="curve" smooth="yes"/>
      <point x="145" y="56" type="line"/>
      <point x="176" y="9"/>
      <point x="231" y="-17"/>
      <point x="301" y="-17" type="curve" smooth="yes"/>
      <point x="364" y="-17"/>
      <point x="437" y="10"/>
      <point x="482" y="50" type="curve" smooth="yes"/>
      <point x="520" y="84"/>
      <point x="545" y="137"/>
      <point x="545" y="185" type="curve" smooth="yes"/>
      <point x="545" y="217"/>
      <point x="528" y="252"/>
      <point x="505" y="269" type="curve" smooth="yes"/>
      <point x="480" y="287"/>
      <point x="453" y="296"/>
      <point x="378" y="309" type="curve" smooth="yes"/>
      <point x="317" y="319"/>
      <point x="292" y="328"/>
      <point x="272" y="344" type="curve" smooth="yes"/>
      <point x="257" y="356"/>
      <point x="246" y="379"/>
      <point x="246" y="399" type="curve" smooth="yes"/>
      <point x="246" y="471"/>
      <point x="326" y="536"/>
      <point x="416" y="536" type="curve" smooth="yes"/>
      <point x="451" y="536"/>
      <point x="491" y="523"/>
      <point x="508" y="506" type="curve" smooth="yes"/>
      <point x="517" y="497"/>
      <point x="539" y="464"/>
      <point x="539" y="459" type="curve"/>
      <point x="536" y="417" type="line"/>
      <point x="542" y="408"/>
      <point x="547" y="405"/>
      <point x="553" y="405" type="curve" smooth="yes"/>
      <point x="565" y="405"/>
      <point x="575" y="416"/>
      <point x="578" y="433" type="curve" smooth="yes"/>
      <point x="600" y="536" type="line"/>
      <point x="602" y="543"/>
      <point x="602" y="545"/>
      <point x="602" y="548" type="curve" smooth="yes"/>
      <point x="602" y="556"/>
      <point x="595" y="563"/>
      <point x="586" y="563" type="curve" smooth="yes"/>
      <point x="572" y="563"/>
      <point x="563" y="554"/>
      <point x="559" y="536" type="curve" smooth="yes"/>
    </contour>
  </outline>
</glyph>
<glyph name="T" format="1">
  <advance width="600"/>
  <unicode hex="0054"/>
  <outline>
    <contour>
      <point x="330" y="41" type="line"/>
      <point x="432" y="522" type="line"/>
      <point x="598" y="522" type="line"/>
      <point x="583" y="449" type="line"/>
      <point x="582" y="447"/>
      <point x="582" y="436"/>
      <point x="582" y="435" type="curve"/>
      <point x="583" y="428"/>
      <point x="592" y="421"/>
      <point x="598" y="421" type="curve" smooth="yes"/>
      <point x="611" y="421"/>
      <point x="620" y="431"/>
      <point x="624" y="449" type="curve" smooth="yes"/>
      <point x="648" y="563" type="line"/>
      <point x="192" y="563" type="line"/>
      <point x="167" y="449" type="line"/>
      <point x="166" y="437" type="line"/>
      <point x="166" y="429"/>
      <point x="173" y="422"/>
      <point x="182" y="422" type="curve" smooth="yes"/>
      <point x="196" y="422"/>
      <point x="205" y="431"/>
      <point x="209" y="449" type="curve" smooth="yes"/>
      <point x="224" y="522" type="line"/>
      <point x="391" y="522" type="line"/>
      <point x="289" y="41" type="line"/>
      <point x="184" y="41" type="line" smooth="yes"/>
      <point x="164" y="41"/>
      <point x="152" y="32"/>
      <point x="152" y="17" type="curve" smooth="yes"/>
      <point x="152" y="5"/>
      <point x="159" y="0"/>
      <point x="175" y="0" type="curve" smooth="yes"/>
      <point x="426" y="0" type="line" smooth="yes"/>
      <point x="445" y="0"/>
      <point x="458" y="10"/>
      <point x="458" y="25" type="curve" smooth="yes"/>
      <point x="458" y="36"/>
      <point x="451" y="41"/>
      <point x="435" y="41" type="curve" smooth="yes"/>
    </contour>
  </outline>
</glyph>
<glyph name="V" format="1">
  <advance width="600"/>
  <unicode hex="0056"/>
  <outline>
    <contour>
      <point x="268" y="0" type="line"/>
      <point x="324" y="0" type="line"/>
      <point x="644" y="522" type="line"/>
      <point x="675" y="522" type="line" smooth="yes"/>
      <point x="695" y="522"/>
      <point x="707" y="531"/>
      <point x="707" y="547" type="curve" smooth="yes"/>
      <point x="707" y="559"/>
      <point x="701" y="563"/>
      <point x="684" y="563" type="curve" smooth="yes"/>
      <point x="533" y="563" type="line" smooth="yes"/>
      <point x="514" y="563"/>
      <point x="502" y="554"/>
      <point x="502" y="538" type="curve" smooth="yes"/>
      <point x="502" y="527"/>
      <point x="508" y="522"/>
      <point x="525" y="522" type="curve" smooth="yes"/>
      <point x="604" y="522" type="line"/>
      <point x="307" y="41" type="line"/>
      <point x="305" y="41" type="line"/>
      <point x="222" y="522" type="line"/>
      <point x="298" y="522" type="line" smooth="yes"/>
      <point x="318" y="522"/>
      <point x="330" y="531"/>
      <point x="330" y="547" type="curve" smooth="yes"/>
      <point x="330" y="559"/>
      <point x="324" y="563"/>
      <point x="306" y="563" type="curve" smooth="yes"/>
      <point x="156" y="563" type="line" smooth="yes"/>
      <point x="136" y="563"/>
      <point x="124" y="554"/>
      <point x="124" y="538" type="curve" smooth="yes"/>
      <point x="124" y="527"/>
      <point x="130" y="522"/>
      <point x="147" y="522" type="curve" smooth="yes"/>
      <point x="178" y="522" type="line"/>
    </contour>
  </outline>
</glyph>
<glyph name="W" format="1">
  <advance width="600"/>
  <unicode hex="0057"/>
  <outline>
    <contour>
      <point x="122" y="0" type="line"/>
      <point x="185" y="0" type="line"/>
      <point x="385" y="400" type="line"/>
      <point x="412" y="0" type="line"/>
      <point x="476" y="0" type="line"/>
      <point x="649" y="522" type="line"/>
      <point x="664" y="522" type="line" smooth="yes"/>
      <point x="684" y="522"/>
      <point x="696" y="532"/>
      <point x="696" y="547" type="curve" smooth="yes"/>
      <point x="696" y="559"/>
      <point x="690" y="563"/>
      <point x="673" y="563" type="curve" smooth="yes"/>
      <point x="523" y="563" type="line" smooth="yes"/>
      <point x="503" y="563"/>
      <point x="491" y="554"/>
      <point x="491" y="538" type="curve" smooth="yes"/>
      <point x="491" y="527"/>
      <point x="498" y="522"/>
      <point x="514" y="522" type="curve" smooth="yes"/>
      <point x="610" y="522" type="line"/>
      <point x="452" y="46" type="line"/>
      <point x="426" y="438" type="line"/>
      <point x="364" y="438" type="line"/>
      <point x="169" y="46" type="line"/>
      <point x="214" y="522" type="line"/>
      <point x="308" y="522" type="line" smooth="yes"/>
      <point x="328" y="522"/>
      <point x="340" y="532"/>
      <point x="340" y="547" type="curve" smooth="yes"/>
      <point x="340" y="559"/>
      <point x="334" y="563"/>
      <point x="316" y="563" type="curve" smooth="yes"/>
      <point x="167" y="563" type="line" smooth="yes"/>
      <point x="147" y="563"/>
      <point x="135" y="554"/>
      <point x="135" y="538" type="curve" smooth="yes"/>
      <point x="135" y="527"/>
      <point x="142" y="522"/>
      <point x="158" y="522" type="curve" smooth="yes"/>
      <point x="173" y="522" type="line"/>
    </contour>
  </outline>
</glyph>
<glyph name="X" format="1">
  <advance width="600"/>
  <unicode hex="0058"/>
  <outline>
    <contour>
      <point x="386" y="288" type="line"/>
      <point x="615" y="522" type="line"/>
      <point x="630" y="522" type="line" smooth="yes"/>
      <point x="650" y="522"/>
      <point x="662" y="532"/>
      <point x="662" y="547" type="curve" smooth="yes"/>
      <point x="662" y="559"/>
      <point x="656" y="563"/>
      <point x="639" y="563" type="curve" smooth="yes"/>
      <point x="528" y="563" type="line" smooth="yes"/>
      <point x="508" y="563"/>
      <point x="496" y="554"/>
      <point x="496" y="538" type="curve" smooth="yes"/>
      <point x="496" y="527"/>
      <point x="503" y="522"/>
      <point x="519" y="522" type="curve" smooth="yes"/>
      <point x="565" y="522" type="line"/>
      <point x="368" y="321" type="line"/>
      <point x="256" y="522" type="line"/>
      <point x="299" y="522" type="line" smooth="yes"/>
      <point x="319" y="522"/>
      <point x="331" y="532"/>
      <point x="331" y="547" type="curve" smooth="yes"/>
      <point x="331" y="559"/>
      <point x="325" y="563"/>
      <point x="308" y="563" type="curve" smooth="yes"/>
      <point x="197" y="563" type="line" smooth="yes"/>
      <point x="178" y="563"/>
      <point x="166" y="554"/>
      <point x="166" y="538" type="curve" smooth="yes"/>
      <point x="166" y="527"/>
      <point x="173" y="522"/>
      <point x="189" y="522" type="curve" smooth="yes"/>
      <point x="204" y="522" type="line"/>
      <point x="334" y="288" type="line"/>
      <point x="93" y="41" type="line"/>
      <point x="76" y="41" type="line" smooth="yes"/>
      <point x="56" y="41"/>
      <point x="44" y="32"/>
      <point x="44" y="16" type="curve" smooth="yes"/>
      <point x="44" y="5"/>
      <point x="51" y="0"/>
      <point x="67" y="0" type="curve" smooth="yes"/>
      <point x="198" y="0" type="line" smooth="yes"/>
      <point x="218" y="0"/>
      <point x="230" y="10"/>
      <point x="230" y="25" type="curve" smooth="yes"/>
      <point x="230" y="37"/>
      <point x="224" y="41"/>
      <point x="207" y="41" type="curve" smooth="yes"/>
      <point x="142" y="41" type="line"/>
      <point x="352" y="255" type="line"/>
      <point x="472" y="41" type="line"/>
      <point x="410" y="41" type="line" smooth="yes"/>
      <point x="390" y="41"/>
      <point x="378" y="32"/>
      <point x="378" y="16" type="curve" smooth="yes"/>
      <point x="378" y="5"/>
      <point x="385" y="0"/>
      <point x="401" y="0" type="curve" smooth="yes"/>
      <point x="533" y="0" type="line" smooth="yes"/>
      <point x="552" y="0"/>
      <point x="565" y="10"/>
      <point x="565" y="25" type="curve" smooth="yes"/>
      <point x="565" y="37"/>
      <point x="559" y="41"/>
      <point x="542" y="41" type="curve" smooth="yes"/>
      <point x="525" y="41" type="line"/>
    </contour>
  </outline>
</glyph>
<glyph name="Y" format="1">
  <advance width="600"/>
  <unicode hex="0059"/>
  <outline>
    <contour>
      <point x="376" y="254" type="line"/>
      <point x="610" y="522" type="line"/>
      <point x="633" y="522" type="line" smooth="yes"/>
      <point x="652" y="522"/>
      <point x="665" y="532"/>
      <point x="665" y="546" type="curve" smooth="yes"/>
      <point x="665" y="558"/>
      <point x="658" y="563"/>
      <point x="642" y="563" type="curve" smooth="yes"/>
      <point x="532" y="563" type="line" smooth="yes"/>
      <point x="511" y="563"/>
      <point x="499" y="554"/>
      <point x="499" y="538" type="curve" smooth="yes"/>
      <point x="499" y="527"/>
      <point x="506" y="522"/>
      <point x="523" y="522" type="curve" smooth="yes"/>
      <point x="564" y="522" type="line"/>
      <point x="366" y="295" type="line"/>
      <point x="262" y="522" type="line"/>
      <point x="300" y="522" type="line" smooth="yes"/>
      <point x="320" y="522"/>
      <point x="332" y="532"/>
      <point x="332" y="547" type="curve" smooth="yes"/>
      <point x="332" y="559"/>
      <point x="326" y="563"/>
      <point x="309" y="563" type="curve" smooth="yes"/>
      <point x="198" y="563" type="line" smooth="yes"/>
      <point x="178" y="563"/>
      <point x="166" y="554"/>
      <point x="166" y="538" type="curve" smooth="yes"/>
      <point x="166" y="527"/>
      <point x="173" y="522"/>
      <point x="189" y="522" type="curve" smooth="yes"/>
      <point x="213" y="522" type="line"/>
      <point x="335" y="254" type="line"/>
      <point x="290" y="41" type="line"/>
      <point x="185" y="41" type="line" smooth="yes"/>
      <point x="165" y="41"/>
      <point x="153" y="32"/>
      <point x="153" y="16" type="curve" smooth="yes"/>
      <point x="153" y="5"/>
      <point x="160" y="0"/>
      <point x="176" y="0" type="curve" smooth="yes"/>
      <point x="427" y="0" type="line" smooth="yes"/>
      <point x="447" y="0"/>
      <point x="459" y="10"/>
      <point x="459" y="25" type="curve" smooth="yes"/>
      <point x="459" y="36"/>
      <point x="453" y="41"/>
      <point x="436" y="41" type="curve" smooth="yes"/>
      <point x="331" y="41" type="line"/>
    </contour>
  </outline>
</glyph>
<glyph name="Z" format="1">
  <advance width="600"/>
  <unicode hex="005A"/>
  <outline>
    <contour>
      <point x="497" y="0" type="line"/>
      <point x="536" y="182" type="line"/>
      <point x="537" y="186" type="line"/>
      <point x="538" y="189"/>
      <point x="538" y="192"/>
      <point x="538" y="194" type="curve" smooth="yes"/>
      <point x="538" y="202"/>
      <point x="531" y="209"/>
      <point x="521" y="209" type="curve" smooth="yes"/>
      <point x="507" y="209"/>
      <point x="499" y="200"/>
      <point x="495" y="182" type="curve" smooth="yes"/>
      <point x="465" y="41" type="line"/>
      <point x="150" y="41" type="line"/>
      <point x="151" y="45" type="line"/>
      <point x="578" y="505" type="line"/>
      <point x="590" y="563" type="line"/>
      <point x="241" y="563" type="line"/>
      <point x="207" y="404" type="line" smooth="yes"/>
      <point x="205" y="396"/>
      <point x="205" y="395"/>
      <point x="205" y="392" type="curve" smooth="yes"/>
      <point x="205" y="383"/>
      <point x="212" y="376"/>
      <point x="221" y="376" type="curve" smooth="yes"/>
      <point x="235" y="376"/>
      <point x="244" y="385"/>
      <point x="248" y="404" type="curve" smooth="yes"/>
      <point x="273" y="522" type="line"/>
      <point x="542" y="522" type="line"/>
      <point x="541" y="519" type="line"/>
      <point x="116" y="59" type="line"/>
      <point x="103" y="0" type="line"/>
    </contour>
  </outline>
</glyph>
<glyph name="bracketleft" format="1">
  <advance width="600"/>
  <unicode hex="005B"/>
  <outline>
    <contour>
      <point x="441" y="563" type="line"/>
      <point x="538" y="563" type="line" smooth="yes"/>
      <point x="558" y="563"/>
      <point x="570" y="572"/>
      <point x="570" y="588" type="curve" smooth="yes"/>
      <point x="570" y="600"/>
      <point x="564" y="604"/>
      <point x="547" y="604" type="curve" smooth="yes"/>
      <point x="409" y="604" type="line"/>
      <point x="254" y="-124" type="line"/>
      <point x="392" y="-124" type="line" smooth="yes"/>
      <point x="412" y="-124"/>
      <point x="424" y="-114"/>
      <point x="424" y="-99" type="curve" smooth="yes"/>
      <point x="424" y="-87"/>
      <point x="418" y="-83"/>
      <point x="401" y="-83" type="curve" smooth="yes"/>
      <point x="304" y="-83" type="line"/>
    </contour>
  </outline>
</glyph>
<glyph name="backslash" format="1">
  <advance width="600"/>
  <unicode hex="005C"/>
  <outline>
    <contour>
      <point x="292" y="650" type="line" smooth="yes"/>
      <point x="289" y="664"/>
      <point x="285" y="668"/>
      <point x="275" y="668" type="curve" smooth="yes"/>
      <point x="262" y="668"/>
      <point x="250" y="656"/>
      <point x="250" y="644" type="curve" smooth="yes"/>
      <point x="250" y="642"/>
      <point x="251" y="637"/>
      <point x="252" y="633" type="curve" smooth="yes"/>
      <point x="432" y="-63" type="line" smooth="yes"/>
      <point x="435" y="-77"/>
      <point x="439" y="-81"/>
      <point x="449" y="-81" type="curve" smooth="yes"/>
      <point x="462" y="-81"/>
      <point x="474" y="-69"/>
      <point x="474" y="-57" type="curve" smooth="yes"/>
      <point x="474" y="-55"/>
      <point x="473" y="-50"/>
      <point x="472" y="-46" type="curve" smooth="yes"/>
    </contour>
  </outline>
</glyph>
<glyph name="bracketright" format="1">
  <advance width="600"/>
  <unicode hex="005D"/>
  <outline>
    <contour>
      <point x="261" y="-83" type="line"/>
      <point x="164" y="-83" type="line" smooth="yes"/>
      <point x="144" y="-83"/>
      <point x="132" y="-92"/>
      <point x="132" y="-108" type="curve" smooth="yes"/>
      <point x="132" y="-120"/>
      <point x="138" y="-124"/>
      <point x="155" y="-124" type="curve" smooth="yes"/>
      <point x="293" y="-124" type="line"/>
      <point x="448" y="604" type="line"/>
      <point x="310" y="604" type="line" smooth="yes"/>
      <point x="290" y="604"/>
      <point x="278" y="594"/>
      <point x="278" y="579" type="curve" smooth="yes"/>
      <point x="278" y="567"/>
      <point x="284" y="563"/>
      <point x="301" y="563" type="curve" smooth="yes"/>
      <point x="398" y="563" type="line"/>
    </contour>
  </outline>
</glyph>
<glyph name="asciicircum" format="1">
  <advance width="600"/>
  <unicode hex="005E"/>
  <outline>
    <contour>
      <point x="430" y="615" type="line"/>
      <point x="205" y="392" type="line" smooth="yes"/>
      <point x="195" y="382"/>
      <point x="192" y="377"/>
      <point x="192" y="370" type="curve" smooth="yes"/>
      <point x="192" y="361"/>
      <point x="199" y="354"/>
      <point x="208" y="354" type="curve" smooth="yes"/>
      <point x="216" y="354"/>
      <point x="221" y="357"/>
      <point x="231" y="367" type="curve" smooth="yes"/>
      <point x="417" y="552" type="line"/>
      <point x="524" y="367" type="line" smooth="yes"/>
      <point x="530" y="357"/>
      <point x="534" y="354"/>
      <point x="542" y="354" type="curve" smooth="yes"/>
      <point x="554" y="354"/>
      <point x="567" y="366"/>
      <point x="567" y="378" type="curve" smooth="yes"/>
      <point x="567" y="381"/>
      <point x="565" y="387"/>
      <point x="562" y="392" type="curve" smooth="yes"/>
    </contour>
  </outline>
</glyph>
<glyph name="grave" format="1">
  <advance width="600"/>
  <unicode hex="0060"/>
  <outline>
    <contour>
      <point x="328" y="630" type="line" smooth="yes"/>
      <point x="321" y="637"/>
      <point x="317" y="639"/>
      <point x="312" y="639" type="curve" smooth="yes"/>
      <point x="298" y="639"/>
      <point x="286" y="627"/>
      <point x="286" y="614" type="curve" smooth="yes"/>
      <point x="286" y="610"/>
      <point x="289" y="605"/>
      <point x="294" y="599" type="curve"/>
      <point x="387" y="499" type="line" smooth="yes"/>
      <point x="393" y="493"/>
      <point x="398" y="490"/>
      <point x="403" y="490" type="curve" smooth="yes"/>
      <point x="415" y="490"/>
      <point x="429" y="502"/>
      <point x="429" y="514" type="curve" smooth="yes"/>
      <point x="429" y="516"/>
      <point x="423" y="528"/>
      <point x="420" y="530" type="curve"/>
    </contour>
  </outline>
</glyph>
<glyph name="b" format="1">
  <advance width="600"/>
  <unicode hex="0062"/>
  <outline>
    <contour>
      <point x="272" y="604" type="line"/>
      <point x="177" y="604" type="line" smooth="yes"/>
      <point x="158" y="604"/>
      <point x="146" y="595"/>
      <point x="146" y="580" type="curve" smooth="yes"/>
      <point x="146" y="567"/>
      <point x="152" y="563"/>
      <point x="169" y="563" type="curve" smooth="yes"/>
      <point x="223" y="563" type="line"/>
      <point x="112" y="41" type="line"/>
      <point x="58" y="41" type="line" smooth="yes"/>
      <point x="38" y="41"/>
      <point x="26" y="32"/>
      <point x="26" y="17" type="curve" smooth="yes"/>
      <point x="26" y="5"/>
      <point x="33" y="0"/>
      <point x="49" y="0" type="curve" smooth="yes"/>
      <point x="144" y="0" type="line"/>
      <point x="163" y="88" type="line"/>
      <point x="195" y="19"/>
      <point x="247" y="-16"/>
      <point x="319" y="-16" type="curve" smooth="yes"/>
      <point x="459" y="-16"/>
      <point x="591" y="117"/>
      <point x="591" y="258" type="curve" smooth="yes"/>
      <point x="591" y="360"/>
      <point x="519" y="431"/>
      <point x="416" y="431" type="curve" smooth="yes"/>
      <point x="342" y="431"/>
      <point x="279" y="399"/>
      <point x="214" y="328" type="curve"/>
    </contour>
    <contour>
      <point x="404" y="390" type="curve" smooth="yes"/>
      <point x="488" y="390"/>
      <point x="549" y="330"/>
      <point x="549" y="247" type="curve" smooth="yes"/>
      <point x="549" y="132"/>
      <point x="441" y="25"/>
      <point x="326" y="25" type="curve" smooth="yes"/>
      <point x="245" y="25"/>
      <point x="184" y="86"/>
      <point x="184" y="167" type="curve" smooth="yes"/>
      <point x="184" y="282"/>
      <point x="290" y="390"/>
    </contour>
  </outline>
</glyph>
<glyph name="f" format="1">
  <advance width="600"/>
  <unicode hex="0066"/>
  <outline>
    <contour>
      <point x="351" y="376" type="line"/>
      <point x="540" y="376" type="line" smooth="yes"/>
      <point x="560" y="376"/>
      <point x="572" y="386"/>
      <point x="572" y="401" type="curve" smooth="yes"/>
      <point x="572" y="413"/>
      <point x="566" y="417"/>
      <point x="549" y="417" type="curve" smooth="yes"/>
      <point x="360" y="417" type="line"/>
      <point x="373" y="478" type="line" smooth="yes"/>
      <point x="383" y="529"/>
      <point x="436" y="563"/>
      <point x="502" y="563" type="curve" smooth="yes"/>
      <point x="525" y="563"/>
      <point x="566" y="560"/>
      <point x="589" y="557" type="curve" smooth="yes"/>
      <point x="635" y="551"/>
      <point x="635" y="551"/>
      <point x="637" y="551" type="curve" smooth="yes"/>
      <point x="651" y="551"/>
      <point x="663" y="562"/>
      <point x="663" y="576" type="curve" smooth="yes"/>
      <point x="663" y="583"/>
      <point x="658" y="589"/>
      <point x="649" y="591" type="curve" smooth="yes"/>
      <point x="617" y="597"/>
      <point x="551" y="604"/>
      <point x="512" y="604" type="curve" smooth="yes"/>
      <point x="423" y="604"/>
      <point x="347" y="551"/>
      <point x="332" y="478" type="curve" smooth="yes"/>
      <point x="319" y="417" type="line"/>
      <point x="231" y="417" type="line" smooth="yes"/>
      <point x="211" y="417"/>
      <point x="199" y="408"/>
      <point x="199" y="393" type="curve" smooth="yes"/>
      <point x="199" y="381"/>
      <point x="206" y="376"/>
      <point x="222" y="376" type="curve" smooth="yes"/>
      <point x="310" y="376" type="line"/>
      <point x="239" y="41" type="line"/>
      <point x="141" y="41" type="line" smooth="yes"/>
      <point x="121" y="41"/>
      <point x="109" y="32"/>
      <point x="109" y="17" type="curve" smooth="yes"/>
      <point x="109" y="5"/>
      <point x="116" y="0"/>
      <point x="132" y="0" type="curve" smooth="yes"/>
      <point x="449" y="0" type="line" smooth="yes"/>
      <point x="468" y="0"/>
      <point x="481" y="10"/>
      <point x="481" y="25" type="curve" smooth="yes"/>
      <point x="481" y="37"/>
      <point x="474" y="41"/>
      <point x="457" y="41" type="curve" smooth="yes"/>
      <point x="280" y="41" type="line"/>
    </contour>
  </outline>
</glyph>
<glyph name="g" format="1">
  <advance width="600"/>
  <unicode hex="0067"/>
  <outline>
    <contour>
      <point x="511" y="334" type="line"/>
      <point x="480" y="401"/>
      <point x="433" y="431"/>
      <point x="361" y="431" type="curve" smooth="yes"/>
      <point x="230" y="431"/>
      <point x="105" y="307"/>
      <point x="105" y="177" type="curve" smooth="yes"/>
      <point x="105" y="79"/>
      <point x="174" y="10"/>
      <point x="271" y="10" type="curve" smooth="yes"/>
      <point x="344" y="10"/>
      <point x="403" y="40"/>
      <point x="463" y="107" type="curve"/>
      <point x="435" y="-22" type="line" smooth="yes"/>
      <point x="421" y="-90"/>
      <point x="355" y="-145"/>
      <point x="287" y="-145" type="curve" smooth="yes"/>
      <point x="171" y="-145" type="line" smooth="yes"/>
      <point x="151" y="-145"/>
      <point x="139" y="-154"/>
      <point x="139" y="-170" type="curve" smooth="yes"/>
      <point x="139" y="-181"/>
      <point x="146" y="-186"/>
      <point x="162" y="-186" type="curve" smooth="yes"/>
      <point x="277" y="-186" type="line" smooth="yes"/>
      <point x="326" y="-186"/>
      <point x="367" y="-170"/>
      <point x="410" y="-132" type="curve" smooth="yes"/>
      <point x="447" y="-100"/>
      <point x="466" y="-69"/>
      <point x="475" y="-28" type="curve" smooth="yes"/>
      <point x="561" y="376" type="line"/>
      <point x="615" y="376" type="line" smooth="yes"/>
      <point x="635" y="376"/>
      <point x="647" y="386"/>
      <point x="647" y="401" type="curve" smooth="yes"/>
      <point x="647" y="413"/>
      <point x="641" y="417"/>
      <point x="624" y="417" type="curve" smooth="yes"/>
      <point x="529" y="417" type="line"/>
    </contour>
    <contour>
      <point x="354" y="390" type="curve" smooth="yes"/>
      <point x="435" y="390"/>
      <point x="491" y="336"/>
      <point x="491" y="258" type="curve" smooth="yes"/>
      <point x="491" y="150"/>
      <point x="392" y="51"/>
      <point x="282" y="51" type="curve" smooth="yes"/>
      <point x="202" y="51"/>
      <point x="147" y="106"/>
      <point x="147" y="186" type="curve" smooth="yes"/>
      <point x="147" y="291"/>
      <point x="247" y="390"/>
    </contour>
  </outline>
</glyph>
<glyph name="h" format="1">
  <advance width="600"/>
  <unicode hex="0068"/>
  <outline>
    <contour>
      <point x="293" y="604" type="line"/>
      <point x="198" y="604" type="line" smooth="yes"/>
      <point x="179" y="604"/>
      <point x="167" y="595"/>
      <point x="167" y="580" type="curve" smooth="yes"/>
      <point x="167" y="567"/>
      <point x="173" y="563"/>
      <point x="189" y="563" type="curve" smooth="yes"/>
      <point x="244" y="563" type="line"/>
      <point x="133" y="41" type="line"/>
      <point x="87" y="41" type="line" smooth="yes"/>
      <point x="67" y="41"/>
      <point x="55" y="32"/>
      <point x="55" y="17" type="curve" smooth="yes"/>
      <point x="55" y="5"/>
      <point x="62" y="0"/>
      <point x="78" y="0" type="curve" smooth="yes"/>
      <point x="210" y="0" type="line" smooth="yes"/>
      <point x="230" y="0"/>
      <point x="243" y="10"/>
      <point x="243" y="25" type="curve" smooth="yes"/>
      <point x="243" y="36"/>
      <point x="236" y="41"/>
      <point x="219" y="41" type="curve" smooth="yes"/>
      <point x="174" y="41" type="line"/>
      <point x="228" y="296" type="line"/>
      <point x="241" y="309" type="line" smooth="yes"/>
      <point x="309" y="373"/>
      <point x="341" y="390"/>
      <point x="396" y="390" type="curve" smooth="yes"/>
      <point x="438" y="390"/>
      <point x="457" y="384"/>
      <point x="477" y="364" type="curve" smooth="yes"/>
      <point x="493" y="349"/>
      <point x="501" y="330"/>
      <point x="501" y="309" type="curve" smooth="yes"/>
      <point x="501" y="304"/>
      <point x="500" y="295"/>
      <point x="498" y="288" type="curve"/>
      <point x="446" y="41" type="line"/>
      <point x="400" y="41" type="line" smooth="yes"/>
      <point x="381" y="41"/>
      <point x="369" y="32"/>
      <point x="369" y="17" type="curve" smooth="yes"/>
      <point x="369" y="5"/>
      <point x="376" y="0"/>
      <point x="392" y="0" type="curve" smooth="yes"/>
      <point x="524" y="0" type="line" smooth="yes"/>
      <point x="543" y="0"/>
      <point x="556" y="10"/>
      <point x="556" y="25" type="curve" smooth="yes"/>
      <point x="556" y="36"/>
      <point x="549" y="41"/>
      <point x="532" y="41" type="curve" smooth="yes"/>
      <point x="487" y="41" type="line"/>
      <point x="540" y="291" type="line" smooth="yes"/>
      <point x="542" y="301"/>
      <point x="543" y="310"/>
      <point x="543" y="319" type="curve" smooth="yes"/>
      <point x="543" y="387"/>
      <point x="491" y="431"/>
      <point x="411" y="431" type="curve" smooth="yes"/>
      <point x="350" y="431"/>
      <point x="303" y="408"/>
      <point x="239" y="347" type="curve"/>
    </contour>
  </outline>
</glyph>
<glyph name="j" format="1">
  <advance width="600"/>
  <unicode hex="006A"/>
  <outline>
    <contour>
      <point x="497" y="376" type="line"/>
      <point x="411" y="-28" type="line" smooth="yes"/>
      <point x="397" y="-96"/>
      <point x="338" y="-145"/>
      <point x="272" y="-145" type="curve" smooth="yes"/>
      <point x="144" y="-145" type="line" smooth="yes"/>
      <point x="124" y="-145"/>
      <point x="112" y="-154"/>
      <point x="112" y="-170" type="curve" smooth="yes"/>
      <point x="112" y="-181"/>
      <point x="119" y="-186"/>
      <point x="135" y="-186" type="curve" smooth="yes"/>
      <point x="264" y="-186" type="line" smooth="yes"/>
      <point x="355" y="-186"/>
      <point x="433" y="-121"/>
      <point x="452" y="-28" type="curve" smooth="yes"/>
      <point x="547" y="417" type="line"/>
      <point x="266" y="417" type="line" smooth="yes"/>
      <point x="245" y="417"/>
      <point x="233" y="408"/>
      <point x="233" y="392" type="curve" smooth="yes"/>
      <point x="233" y="381"/>
      <point x="240" y="376"/>
      <point x="257" y="376" type="curve" smooth="yes"/>
    </contour>
    <contour>
      <point x="547" y="624" type="line"/>
      <point x="488" y="624" type="line"/>
      <point x="466" y="520" type="line"/>
      <point x="525" y="520" type="line"/>
    </contour>
  </outline>
</glyph>
<glyph name="k" format="1">
  <advance width="600"/>
  <unicode hex="006B"/>
  <outline>
    <contour>
      <point x="223" y="180" type="line"/>
      <point x="278" y="219" type="line"/>
      <point x="420" y="41" type="line"/>
      <point x="392" y="41" type="line" smooth="yes"/>
      <point x="372" y="41"/>
      <point x="360" y="32"/>
      <point x="360" y="17" type="curve" smooth="yes"/>
      <point x="360" y="5"/>
      <point x="367" y="0"/>
      <point x="383" y="0" type="curve" smooth="yes"/>
      <point x="514" y="0" type="line" smooth="yes"/>
      <point x="533" y="0"/>
      <point x="546" y="10"/>
      <point x="546" y="25" type="curve" smooth="yes"/>
      <point x="546" y="37"/>
      <point x="539" y="41"/>
      <point x="523" y="41" type="curve" smooth="yes"/>
      <point x="478" y="41" type="line"/>
      <point x="314" y="245" type="line"/>
      <point x="499" y="376" type="line"/>
      <point x="546" y="376" type="line" smooth="yes"/>
      <point x="565" y="376"/>
      <point x="578" y="386"/>
      <point x="578" y="400" type="curve" smooth="yes"/>
      <point x="578" y="413"/>
      <point x="572" y="417"/>
      <point x="554" y="417" type="curve" smooth="yes"/>
      <point x="425" y="417" type="line" smooth="yes"/>
      <point x="405" y="417"/>
      <point x="393" y="408"/>
      <point x="393" y="393" type="curve" smooth="yes"/>
      <point x="393" y="381"/>
      <point x="400" y="376"/>
      <point x="416" y="376" type="curve" smooth="yes"/>
      <point x="438" y="376" type="line"/>
      <point x="234" y="229" type="line"/>
      <point x="314" y="604" type="line"/>
      <point x="218" y="604" type="line" smooth="yes"/>
      <point x="199" y="604"/>
      <point x="187" y="595"/>
      <point x="187" y="580" type="curve" smooth="yes"/>
      <point x="187" y="567"/>
      <point x="193" y="563"/>
      <point x="210" y="563" type="curve" smooth="yes"/>
      <point x="264" y="563" type="line"/>
      <point x="153" y="41" type="line"/>
      <point x="99" y="41" type="line" smooth="yes"/>
      <point x="79" y="41"/>
      <point x="67" y="32"/>
      <point x="67" y="17" type="curve" smooth="yes"/>
      <point x="67" y="5"/>
      <point x="74" y="0"/>
      <point x="90" y="0" type="curve" smooth="yes"/>
      <point x="185" y="0" type="line"/>
    </contour>
  </outline>
</glyph>
<glyph name="l" format="1">
  <advance width="600"/>
  <unicode hex="006C"/>
  <outline>
    <contour>
      <point x="449" y="604" type="line"/>
      <point x="291" y="604" type="line" smooth="yes"/>
      <point x="271" y="604"/>
      <point x="259" y="595"/>
      <point x="259" y="579" type="curve" smooth="yes"/>
      <point x="259" y="567"/>
      <point x="265" y="563"/>
      <point x="282" y="563" type="curve" smooth="yes"/>
      <point x="399" y="563" type="line"/>
      <point x="288" y="41" type="line"/>
      <point x="127" y="41" type="line" smooth="yes"/>
      <point x="108" y="41"/>
      <point x="96" y="32"/>
      <point x="96" y="16" type="curve" smooth="yes"/>
      <point x="96" y="5"/>
      <point x="103" y="0"/>
      <point x="119" y="0" type="curve" smooth="yes"/>
      <point x="481" y="0" type="line" smooth="yes"/>
      <point x="500" y="0"/>
      <point x="513" y="10"/>
      <point x="513" y="25" type="curve" smooth="yes"/>
      <point x="513" y="36"/>
      <point x="506" y="41"/>
      <point x="489" y="41" type="curve" smooth="yes"/>
      <point x="329" y="41" type="line"/>
    </contour>
  </outline>
</glyph>
<glyph name="m" format="1">
  <advance width="600"/>
  <unicode hex="006D"/>
  <outline>
    <contour>
      <point x="201" y="417" type="line"/>
      <point x="127" y="417" type="line" smooth="yes"/>
      <point x="107" y="417"/>
      <point x="95" y="408"/>
      <point x="95" y="392" type="curve" smooth="yes"/>
      <point x="95" y="381"/>
      <point x="102" y="376"/>
      <point x="118" y="376" type="curve" smooth="yes"/>
      <point x="152" y="376" type="line"/>
      <point x="81" y="41" type="line"/>
      <point x="47" y="41" type="line" smooth="yes"/>
      <point x="27" y="41"/>
      <point x="15" y="32"/>
      <point x="15" y="16" type="curve" smooth="yes"/>
      <point x="15" y="5"/>
      <point x="22" y="0"/>
      <point x="37" y="0" type="curve" smooth="yes"/>
      <point x="146" y="0" type="line" smooth="yes"/>
      <point x="165" y="0"/>
      <point x="178" y="10"/>
      <point x="178" y="25" type="curve" smooth="yes"/>
      <point x="178" y="36"/>
      <point x="171" y="41"/>
      <point x="155" y="41" type="curve" smooth="yes"/>
      <point x="121" y="41" type="line"/>
      <point x="178" y="308" type="line"/>
      <point x="228" y="366"/>
      <point x="265" y="390"/>
      <point x="300" y="390" type="curve" smooth="yes"/>
      <point x="328" y="390"/>
      <point x="351" y="364"/>
      <point x="351" y="332" type="curve" smooth="yes"/>
      <point x="351" y="327"/>
      <point x="350" y="322"/>
      <point x="349" y="316" type="curve" smooth="yes"/>
      <point x="282" y="0" type="line"/>
      <point x="356" y="0" type="line" smooth="yes"/>
      <point x="376" y="0"/>
      <point x="388" y="10"/>
      <point x="388" y="25" type="curve" smooth="yes"/>
      <point x="388" y="37"/>
      <point x="382" y="41"/>
      <point x="365" y="41" type="curve" smooth="yes"/>
      <point x="331" y="41" type="line"/>
      <point x="387" y="308" type="line"/>
      <point x="437" y="366"/>
      <point x="473" y="390"/>
      <point x="509" y="390" type="curve" smooth="yes"/>
      <point x="539" y="390"/>
      <point x="561" y="365"/>
      <point x="561" y="333" type="curve" smooth="yes"/>
      <point x="561" y="327"/>
      <point x="561" y="324"/>
      <point x="560" y="319" type="curve" smooth="yes"/>
      <point x="492" y="0" type="line"/>
      <point x="566" y="0" type="line" smooth="yes"/>
      <point x="585" y="0"/>
      <point x="598" y="10"/>
      <point x="598" y="25" type="curve" smooth="yes"/>
      <point x="598" y="37"/>
      <point x="592" y="41"/>
      <point x="575" y="41" type="curve" smooth="yes"/>
      <point x="541" y="41" type="line"/>
      <point x="600" y="323" type="line" smooth="yes"/>
      <point x="602" y="331"/>
      <point x="603" y="338"/>
      <point x="603" y="345" type="curve" smooth="yes"/>
      <point x="603" y="395"/>
      <point x="568" y="431"/>
      <point x="519" y="431" type="curve" smooth="yes"/>
      <point x="477" y="431"/>
      <point x="440" y="410"/>
      <point x="391" y="360" type="curve"/>
      <point x="379" y="408"/>
      <point x="352" y="431"/>
      <point x="309" y="431" type="curve" smooth="yes"/>
      <point x="267" y="431"/>
      <point x="233" y="412"/>
      <point x="190" y="365" type="curve"/>
    </contour>
  </outline>
</glyph>
<glyph name="o" format="1">
  <advance width="600"/>
  <unicode hex="006F"/>
  <outline>
    <contour>
      <point x="391" y="431" type="curve" smooth="yes"/>
      <point x="247" y="431"/>
      <point x="111" y="301"/>
      <point x="111" y="162" type="curve" smooth="yes"/>
      <point x="111" y="58"/>
      <point x="187" y="-16"/>
      <point x="296" y="-16" type="curve" smooth="yes"/>
      <point x="441" y="-16"/>
      <point x="577" y="113"/>
      <point x="577" y="252" type="curve" smooth="yes"/>
      <point x="577" y="358"/>
      <point x="501" y="431"/>
    </contour>
    <contour>
      <point x="382" y="390" type="curve" smooth="yes"/>
      <point x="473" y="390"/>
      <point x="535" y="331"/>
      <point x="535" y="244" type="curve" smooth="yes"/>
      <point x="535" y="130"/>
      <point x="424" y="25"/>
      <point x="305" y="25" type="curve" smooth="yes"/>
      <point x="216" y="25"/>
      <point x="153" y="85"/>
      <point x="153" y="171" type="curve" smooth="yes"/>
      <point x="153" y="284"/>
      <point x="264" y="390"/>
    </contour>
  </outline>
</glyph>
<glyph name="q" format="1">
  <advance width="600"/>
  <unicode hex="0071"/>
  <outline>
    <contour>
      <point x="532" y="335" type="line"/>
      <point x="500" y="401"/>
      <point x="450" y="431"/>
      <point x="374" y="431" type="curve" smooth="yes"/>
      <point x="233" y="431"/>
      <point x="105" y="311"/>
      <point x="105" y="178" type="curve" smooth="yes"/>
      <point x="105" y="78"/>
      <point x="177" y="10"/>
      <point x="284" y="10" type="curve" smooth="yes"/>
      <point x="361" y="10"/>
      <point x="423" y="40"/>
      <point x="484" y="106" type="curve"/>
      <point x="430" y="-145" type="line"/>
      <point x="332" y="-145" type="line" smooth="yes"/>
      <point x="312" y="-145"/>
      <point x="300" y="-154"/>
      <point x="300" y="-170" type="curve" smooth="yes"/>
      <point x="300" y="-181"/>
      <point x="307" y="-186"/>
      <point x="324" y="-186" type="curve" smooth="yes"/>
      <point x="517" y="-186" type="line" smooth="yes"/>
      <point x="536" y="-186"/>
      <point x="549" y="-176"/>
      <point x="549" y="-161" type="curve" smooth="yes"/>
      <point x="549" y="-149"/>
      <point x="542" y="-145"/>
      <point x="525" y="-145" type="curve" smooth="yes"/>
      <point x="471" y="-145" type="line"/>
      <point x="582" y="376" type="line"/>
      <point x="636" y="376" type="line" smooth="yes"/>
      <point x="656" y="376"/>
      <point x="668" y="386"/>
      <point x="668" y="401" type="curve" smooth="yes"/>
      <point x="668" y="413"/>
      <point x="662" y="417"/>
      <point x="645" y="417" type="curve" smooth="yes"/>
      <point x="550" y="417" type="line"/>
    </contour>
    <contour>
      <point x="365" y="390" type="curve" smooth="yes"/>
      <point x="452" y="390"/>
      <point x="512" y="335"/>
      <point x="512" y="254" type="curve" smooth="yes"/>
      <point x="512" y="148"/>
      <point x="407" y="51"/>
      <point x="293" y="51" type="curve" smooth="yes"/>
      <point x="207" y="51"/>
      <point x="147" y="107"/>
      <point x="147" y="186" type="curve" smooth="yes"/>
      <point x="147" y="293"/>
      <point x="251" y="390"/>
    </contour>
  </outline>
</glyph>
<glyph name="v" format="1">
  <advance width="600"/>
  <unicode hex="0076"/>
  <outline>
    <contour>
      <point x="336" y="0" type="line"/>
      <point x="582" y="376" type="line"/>
      <point x="623" y="376" type="line" smooth="yes"/>
      <point x="643" y="376"/>
      <point x="655" y="386"/>
      <point x="655" y="401" type="curve" smooth="yes"/>
      <point x="655" y="413"/>
      <point x="649" y="417"/>
      <point x="632" y="417" type="curve" smooth="yes"/>
      <point x="480" y="417" type="line" smooth="yes"/>
      <point x="460" y="417"/>
      <point x="448" y="408"/>
      <point x="448" y="392" type="curve" smooth="yes"/>
      <point x="448" y="381"/>
      <point x="455" y="376"/>
      <point x="471" y="376" type="curve" smooth="yes"/>
      <point x="540" y="376" type="line"/>
      <point x="321" y="41" type="line"/>
      <point x="302" y="41" type="line"/>
      <point x="223" y="376" type="line"/>
      <point x="289" y="376" type="line" smooth="yes"/>
      <point x="309" y="376"/>
      <point x="321" y="386"/>
      <point x="321" y="401" type="curve" smooth="yes"/>
      <point x="321" y="413"/>
      <point x="315" y="417"/>
      <point x="297" y="417" type="curve" smooth="yes"/>
      <point x="146" y="417" type="line" smooth="yes"/>
      <point x="126" y="417"/>
      <point x="114" y="408"/>
      <point x="114" y="392" type="curve" smooth="yes"/>
      <point x="114" y="381"/>
      <point x="121" y="376"/>
      <point x="137" y="376" type="curve" smooth="yes"/>
      <point x="178" y="376" type="line"/>
      <point x="266" y="0" type="line"/>
    </contour>
  </outline>
</glyph>
<glyph name="w" format="1">
  <advance width="600"/>
  <unicode hex="0077"/>
  <outline>
    <contour>
      <point x="442" y="0" type="line"/>
      <point x="604" y="376" type="line"/>
      <point x="623" y="376" type="line" smooth="yes"/>
      <point x="643" y="376"/>
      <point x="655" y="386"/>
      <point x="655" y="401" type="curve" smooth="yes"/>
      <point x="655" y="413"/>
      <point x="649" y="417"/>
      <point x="632" y="417" type="curve" smooth="yes"/>
      <point x="521" y="417" type="line" smooth="yes"/>
      <point x="501" y="417"/>
      <point x="489" y="408"/>
      <point x="489" y="392" type="curve" smooth="yes"/>
      <point x="489" y="381"/>
      <point x="496" y="376"/>
      <point x="512" y="376" type="curve" smooth="yes"/>
      <point x="562" y="376" type="line"/>
      <point x="425" y="56" type="line"/>
      <point x="391" y="311" type="line"/>
      <point x="339" y="311" type="line"/>
      <point x="199" y="56" type="line"/>
      <point x="195" y="376" type="line"/>
      <point x="248" y="376" type="line" smooth="yes"/>
      <point x="268" y="376"/>
      <point x="280" y="386"/>
      <point x="280" y="401" type="curve" smooth="yes"/>
      <point x="280" y="413"/>
      <point x="274" y="417"/>
      <point x="257" y="417" type="curve" smooth="yes"/>
      <point x="146" y="417" type="line" smooth="yes"/>
      <point x="126" y="417"/>
      <point x="114" y="408"/>
      <point x="114" y="392" type="curve" smooth="yes"/>
      <point x="114" y="381"/>
      <point x="121" y="376"/>
      <point x="137" y="376" type="curve" smooth="yes"/>
      <point x="156" y="376" type="line"/>
      <point x="160" y="0" type="line"/>
      <point x="211" y="0" type="line"/>
      <point x="356" y="259" type="line"/>
      <point x="391" y="0" type="line"/>
    </contour>
  </outline>
</glyph>
<glyph name="x" format="1">
  <advance width="600"/>
  <unicode hex="0078"/>
  <outline>
    <contour>
      <point x="375" y="219" type="line"/>
      <point x="573" y="376" type="line"/>
      <point x="579" y="376" type="line" smooth="yes"/>
      <point x="599" y="376"/>
      <point x="611" y="386"/>
      <point x="611" y="401" type="curve" smooth="yes"/>
      <point x="611" y="413"/>
      <point x="605" y="417"/>
      <point x="588" y="417" type="curve" smooth="yes"/>
      <point x="478" y="417" type="line" smooth="yes"/>
      <point x="458" y="417"/>
      <point x="446" y="408"/>
      <point x="446" y="392" type="curve" smooth="yes"/>
      <point x="446" y="381"/>
      <point x="453" y="376"/>
      <point x="469" y="376" type="curve" smooth="yes"/>
      <point x="517" y="376" type="line"/>
      <point x="352" y="246" type="line"/>
      <point x="246" y="376" type="line"/>
      <point x="292" y="376" type="line" smooth="yes"/>
      <point x="312" y="376"/>
      <point x="324" y="386"/>
      <point x="324" y="401" type="curve" smooth="yes"/>
      <point x="324" y="413"/>
      <point x="318" y="417"/>
      <point x="301" y="417" type="curve" smooth="yes"/>
      <point x="190" y="417" type="line" smooth="yes"/>
      <point x="170" y="417"/>
      <point x="158" y="408"/>
      <point x="158" y="392" type="curve" smooth="yes"/>
      <point x="158" y="381"/>
      <point x="165" y="376"/>
      <point x="181" y="376" type="curve" smooth="yes"/>
      <point x="188" y="376" type="line"/>
      <point x="318" y="219" type="line"/>
      <point x="96" y="41" type="line"/>
      <point x="87" y="41" type="line" smooth="yes"/>
      <point x="67" y="41"/>
      <point x="55" y="32"/>
      <point x="55" y="16" type="curve" smooth="yes"/>
      <point x="55" y="5"/>
      <point x="62" y="0"/>
      <point x="78" y="0" type="curve" smooth="yes"/>
      <point x="211" y="0" type="line" smooth="yes"/>
      <point x="230" y="0"/>
      <point x="243" y="10"/>
      <point x="243" y="25" type="curve" smooth="yes"/>
      <point x="243" y="37"/>
      <point x="237" y="41"/>
      <point x="220" y="41" type="curve" smooth="yes"/>
      <point x="152" y="41" type="line"/>
      <point x="340" y="190" type="line"/>
      <point x="463" y="41" type="line"/>
      <point x="399" y="41" type="line" smooth="yes"/>
      <point x="379" y="41"/>
      <point x="367" y="32"/>
      <point x="367" y="16" type="curve" smooth="yes"/>
      <point x="367" y="5"/>
      <point x="374" y="0"/>
      <point x="390" y="0" type="curve" smooth="yes"/>
      <point x="522" y="0" type="line" smooth="yes"/>
      <point x="541" y="0"/>
      <point x="554" y="10"/>
      <point x="554" y="25" type="curve" smooth="yes"/>
      <point x="554" y="37"/>
      <point x="548" y="41"/>
      <point x="531" y="41" type="curve" smooth="yes"/>
      <point x="521" y="41" type="line"/>
    </contour>
  </outline>
</glyph>
<glyph name="y" format="1">
  <advance width="600"/>
  <unicode hex="0079"/>
  <outline>
    <contour>
      <point x="282" y="0" type="line"/>
      <point x="180" y="-145" type="line"/>
      <point x="54" y="-145" type="line" smooth="yes"/>
      <point x="34" y="-145"/>
      <point x="22" y="-154"/>
      <point x="22" y="-170" type="curve" smooth="yes"/>
      <point x="22" y="-181"/>
      <point x="29" y="-186"/>
      <point x="45" y="-186" type="curve" smooth="yes"/>
      <point x="278" y="-186" type="line" smooth="yes"/>
      <point x="297" y="-186"/>
      <point x="310" y="-176"/>
      <point x="310" y="-161" type="curve" smooth="yes"/>
      <point x="310" y="-149"/>
      <point x="304" y="-145"/>
      <point x="286" y="-145" type="curve" smooth="yes"/>
      <point x="222" y="-145" type="line"/>
      <point x="589" y="376" type="line"/>
      <point x="602" y="376" type="line" smooth="yes"/>
      <point x="622" y="376"/>
      <point x="634" y="386"/>
      <point x="634" y="401" type="curve" smooth="yes"/>
      <point x="634" y="412"/>
      <point x="627" y="417"/>
      <point x="611" y="417" type="curve" smooth="yes"/>
      <point x="501" y="417" type="line" smooth="yes"/>
      <point x="481" y="417"/>
      <point x="469" y="407"/>
      <point x="469" y="393" type="curve" smooth="yes"/>
      <point x="469" y="381"/>
      <point x="476" y="376"/>
      <point x="492" y="376" type="curve" smooth="yes"/>
      <point x="546" y="376" type="line"/>
      <point x="315" y="45" type="line"/>
      <point x="221" y="376" type="line"/>
      <point x="273" y="376" type="line" smooth="yes"/>
      <point x="293" y="376"/>
      <point x="305" y="386"/>
      <point x="305" y="401" type="curve" smooth="yes"/>
      <point x="305" y="412"/>
      <point x="298" y="417"/>
      <point x="282" y="417" type="curve" smooth="yes"/>
      <point x="167" y="417" type="line" smooth="yes"/>
      <point x="147" y="417"/>
      <point x="135" y="408"/>
      <point x="135" y="392" type="curve" smooth="yes"/>
      <point x="135" y="381"/>
      <point x="142" y="376"/>
      <point x="159" y="376" type="curve" smooth="yes"/>
      <point x="175" y="376" type="line"/>
    </contour>
  </outline>
</glyph>
<glyph name="z" format="1">
  <advance width="600"/>
  <unicode hex="007A"/>
  <outline>
    <contour>
      <point x="563" y="417" type="line"/>
      <point x="213" y="417" type="line"/>
      <point x="192" y="321" type="line"/>
      <point x="191" y="309" type="line"/>
      <point x="191" y="301"/>
      <point x="199" y="294"/>
      <point x="207" y="294" type="curve" smooth="yes"/>
      <point x="221" y="294"/>
      <point x="229" y="303"/>
      <point x="233" y="321" type="curve" smooth="yes"/>
      <point x="245" y="376" type="line"/>
      <point x="497" y="376" type="line"/>
      <point x="123" y="36" type="line"/>
      <point x="115" y="0" type="line"/>
      <point x="489" y="0" type="line"/>
      <point x="510" y="97" type="line"/>
      <point x="511" y="101" type="line"/>
      <point x="512" y="104"/>
      <point x="512" y="106"/>
      <point x="512" y="109" type="curve" smooth="yes"/>
      <point x="512" y="117"/>
      <point x="505" y="124"/>
      <point x="496" y="124" type="curve" smooth="yes"/>
      <point x="482" y="124"/>
      <point x="473" y="115"/>
      <point x="469" y="97" type="curve" smooth="yes"/>
      <point x="457" y="41" type="line"/>
      <point x="180" y="41" type="line"/>
      <point x="555" y="381" type="line"/>
    </contour>
  </outline>
</glyph>
<glyph name="braceleft" format="1">
  <advance width="600"/>
  <unicode hex="007B"/>
  <outline>
    <contour>
      <point x="428" y="499" type="line" smooth="yes"/>
      <point x="436" y="533"/>
      <point x="463" y="559"/>
      <point x="497" y="563" type="curve" smooth="yes"/>
      <point x="519" y="565"/>
      <point x="528" y="573"/>
      <point x="528" y="588" type="curve" smooth="yes"/>
      <point x="528" y="598"/>
      <point x="521" y="604"/>
      <point x="509" y="604" type="curve" smooth="yes"/>
      <point x="453" y="604"/>
      <point x="400" y="558"/>
      <point x="388" y="499" type="curve" smooth="yes"/>
      <point x="351" y="326" type="line" smooth="yes"/>
      <point x="343" y="289"/>
      <point x="313" y="263"/>
      <point x="277" y="261" type="curve" smooth="yes"/>
      <point x="258" y="260"/>
      <point x="248" y="250"/>
      <point x="248" y="235" type="curve" smooth="yes"/>
      <point x="248" y="224"/>
      <point x="253" y="219"/>
      <point x="268" y="219" type="curve"/>
      <point x="298" y="217"/>
      <point x="316" y="198"/>
      <point x="316" y="170" type="curve" smooth="yes"/>
      <point x="316" y="165"/>
      <point x="315" y="159"/>
      <point x="314" y="154" type="curve" smooth="yes"/>
      <point x="278" y="-19" type="line" smooth="yes"/>
      <point x="276" y="-27"/>
      <point x="275" y="-35"/>
      <point x="275" y="-43" type="curve" smooth="yes"/>
      <point x="275" y="-90"/>
      <point x="308" y="-124"/>
      <point x="353" y="-124" type="curve" smooth="yes"/>
      <point x="369" y="-124"/>
      <point x="382" y="-114"/>
      <point x="382" y="-100" type="curve" smooth="yes"/>
      <point x="382" y="-88"/>
      <point x="377" y="-85"/>
      <point x="360" y="-83" type="curve" smooth="yes"/>
      <point x="335" y="-81"/>
      <point x="317" y="-61"/>
      <point x="317" y="-35" type="curve" smooth="yes"/>
      <point x="317" y="-28"/>
      <point x="317" y="-24"/>
      <point x="319" y="-19" type="curve"/>
      <point x="355" y="154" type="line"/>
      <point x="358" y="165"/>
      <point x="359" y="177"/>
      <point x="359" y="184" type="curve" smooth="yes"/>
      <point x="359" y="207"/>
      <point x="351" y="222"/>
      <point x="329" y="240" type="curve"/>
      <point x="366" y="262"/>
      <point x="383" y="285"/>
      <point x="392" y="326" type="curve" smooth="yes"/>
    </contour>
  </outline>
</glyph>
<glyph name="bar" format="1">
  <advance width="600"/>
  <unicode hex="007C"/>
  <outline>
    <contour>
      <point x="442" y="577" type="line" smooth="yes"/>
      <point x="444" y="585"/>
      <point x="444" y="586"/>
      <point x="444" y="589" type="curve" smooth="yes"/>
      <point x="444" y="597"/>
      <point x="437" y="604"/>
      <point x="428" y="604" type="curve" smooth="yes"/>
      <point x="415" y="604"/>
      <point x="406" y="594"/>
      <point x="402" y="577" type="curve" smooth="yes"/>
      <point x="259" y="-97" type="line" smooth="yes"/>
      <point x="258" y="-101"/>
      <point x="257" y="-107"/>
      <point x="257" y="-109" type="curve" smooth="yes"/>
      <point x="257" y="-117"/>
      <point x="264" y="-124"/>
      <point x="273" y="-124" type="curve" smooth="yes"/>
      <point x="286" y="-124"/>
      <point x="295" y="-115"/>
      <point x="299" y="-97" type="curve" smooth="yes"/>
    </contour>
  </outline>
</glyph>
<glyph name="braceright" format="1">
  <advance width="600"/>
  <unicode hex="007D"/>
  <outline>
    <contour>
      <point x="275" y="-19" type="line" smooth="yes"/>
      <point x="267" y="-53"/>
      <point x="240" y="-79"/>
      <point x="206" y="-83" type="curve" smooth="yes"/>
      <point x="184" y="-85"/>
      <point x="175" y="-93"/>
      <point x="175" y="-108" type="curve" smooth="yes"/>
      <point x="175" y="-118"/>
      <point x="182" y="-124"/>
      <point x="194" y="-124" type="curve" smooth="yes"/>
      <point x="250" y="-124"/>
      <point x="303" y="-78"/>
      <point x="315" y="-19" type="curve" smooth="yes"/>
      <point x="352" y="154" type="line" smooth="yes"/>
      <point x="360" y="191"/>
      <point x="390" y="217"/>
      <point x="426" y="219" type="curve" smooth="yes"/>
      <point x="445" y="220"/>
      <point x="455" y="230"/>
      <point x="455" y="245" type="curve" smooth="yes"/>
      <point x="455" y="256"/>
      <point x="450" y="261"/>
      <point x="435" y="261" type="curve"/>
      <point x="405" y="263"/>
      <point x="387" y="282"/>
      <point x="387" y="311" type="curve" smooth="yes"/>
      <point x="387" y="315"/>
      <point x="388" y="321"/>
      <point x="389" y="326" type="curve" smooth="yes"/>
      <point x="425" y="499" type="line" smooth="yes"/>
      <point x="427" y="507"/>
      <point x="428" y="515"/>
      <point x="428" y="524" type="curve" smooth="yes"/>
      <point x="428" y="570"/>
      <point x="395" y="604"/>
      <point x="350" y="604" type="curve" smooth="yes"/>
      <point x="334" y="604"/>
      <point x="321" y="594"/>
      <point x="321" y="580" type="curve" smooth="yes"/>
      <point x="321" y="568"/>
      <point x="326" y="565"/>
      <point x="343" y="563" type="curve" smooth="yes"/>
      <point x="368" y="561"/>
      <point x="386" y="541"/>
      <point x="386" y="515" type="curve" smooth="yes"/>
      <point x="386" y="508"/>
      <point x="386" y="504"/>
      <point x="384" y="499" type="curve"/>
      <point x="348" y="326" type="line"/>
      <point x="345" y="315"/>
      <point x="344" y="304"/>
      <point x="344" y="296" type="curve" smooth="yes"/>
      <point x="344" y="274"/>
      <point x="352" y="258"/>
      <point x="374" y="240" type="curve"/>
      <point x="337" y="218"/>
      <point x="320" y="195"/>
      <point x="311" y="154" type="curve" smooth="yes"/>
    </contour>
  </outline>
</glyph>
<glyph name="asciitilde" format="1">
  <advance width="600"/>
  <unicode hex="007E"/>
  <outline>
    <contour>
      <point x="558" y="330" type="curve" smooth="yes"/>
      <point x="549" y="330"/>
      <point x="544" y="327"/>
      <point x="524" y="305" type="curve" smooth="yes"/>
      <point x="491" y="269"/>
      <point x="464" y="253"/>
      <point x="440" y="253" type="curve" smooth="yes"/>
      <point x="425" y="253"/>
      <point x="417" y="258"/>
      <point x="391" y="282" type="curve" smooth="yes"/>
      <point x="376" y="296"/>
      <point x="376" y="296"/>
      <point x="372" y="301" type="curve"/>
      <point x="349" y="323" type="line"/>
      <point x="327" y="340"/>
      <point x="308" y="348"/>
      <point x="287" y="348" type="curve" smooth="yes"/>
      <point x="254" y="348"/>
      <point x="226" y="333"/>
      <point x="183" y="294" type="curve" smooth="yes"/>
      <point x="155" y="267"/>
      <point x="145" y="255"/>
      <point x="145" y="245" type="curve" smooth="yes"/>
      <point x="145" y="237"/>
      <point x="152" y="230"/>
      <point x="161" y="230" type="curve" smooth="yes"/>
      <point x="168" y="230"/>
      <point x="174" y="234"/>
      <point x="183" y="242" type="curve"/>
      <point x="239" y="299"/>
      <point x="251" y="307"/>
      <point x="278" y="307" type="curve" smooth="yes"/>
      <point x="295" y="307"/>
      <point x="312" y="297"/>
      <point x="332" y="277" type="curve" smooth="yes"/>
      <point x="383" y="224"/>
      <point x="402" y="212"/>
      <point x="433" y="212" type="curve" smooth="yes"/>
      <point x="465" y="212"/>
      <point x="498" y="230"/>
      <point x="541" y="271" type="curve" smooth="yes"/>
      <point x="566" y="294"/>
      <point x="575" y="306"/>
      <point x="575" y="315" type="curve" smooth="yes"/>
      <point x="575" y="323"/>
      <point x="567" y="330"/>
    </contour>
  </outline>
</glyph>
<glyph name="exclamdown" format="1">
  <advance width="600"/>
  <unicode hex="00A1"/>
  <outline>
    <contour>
      <point x="227" y="-161" type="line" smooth="yes"/>
      <point x="224" y="-173"/>
      <point x="222" y="-182"/>
      <point x="222" y="-187" type="curve" smooth="yes"/>
      <point x="222" y="-203"/>
      <point x="236" y="-216"/>
      <point x="254" y="-216" type="curve" smooth="yes"/>
      <point x="283" y="-216"/>
      <point x="299" y="-198"/>
      <point x="305" y="-161" type="curve" smooth="yes"/>
      <point x="356" y="165" type="line" smooth="yes"/>
      <point x="357" y="171"/>
      <point x="357" y="174"/>
      <point x="357" y="178" type="curve" smooth="yes"/>
      <point x="357" y="186"/>
      <point x="350" y="193"/>
      <point x="342" y="193" type="curve" smooth="yes"/>
      <point x="328" y="193"/>
      <point x="320" y="185"/>
      <point x="315" y="165" type="curve" smooth="yes"/>
    </contour>
    <contour>
      <point x="374" y="317" type="line" smooth="yes"/>
      <point x="408" y="317"/>
      <point x="439" y="345"/>
      <point x="439" y="378" type="curve" smooth="yes"/>
      <point x="439" y="401"/>
      <point x="421" y="417"/>
      <point x="395" y="417" type="curve" smooth="yes"/>
      <point x="383" y="417" type="line" smooth="yes"/>
      <point x="347" y="417"/>
      <point x="316" y="389"/>
      <point x="316" y="357" type="curve" smooth="yes"/>
      <point x="316" y="333"/>
      <point x="335" y="317"/>
      <point x="362" y="317" type="curve" smooth="yes"/>
    </contour>
  </outline>
</glyph>
<glyph name="cent" format="1">
  <advance width="600"/>
  <unicode hex="00A2"/>
  <outline>
    <contour>
      <point x="385" y="496" type="line"/>
      <point x="326" y="483"/>
      <point x="292" y="468"/>
      <point x="256" y="437" type="curve" smooth="yes"/>
      <point x="206" y="395"/>
      <point x="175" y="332"/>
      <point x="175" y="273" type="curve" smooth="yes"/>
      <point x="175" y="194"/>
      <point x="227" y="137"/>
      <point x="307" y="127" type="curve"/>
      <point x="283" y="14" type="line"/>
      <point x="282" y="10" type="line"/>
      <point x="281" y="7"/>
      <point x="281" y="4"/>
      <point x="281" y="2" type="curve" smooth="yes"/>
      <point x="281" y="-6"/>
      <point x="289" y="-13"/>
      <point x="297" y="-13" type="curve" smooth="yes"/>
      <point x="311" y="-13"/>
      <point x="320" y="-4"/>
      <point x="324" y="14" type="curve" smooth="yes"/>
      <point x="348" y="127" type="line"/>
      <point x="388" y="129"/>
      <point x="432" y="142"/>
      <point x="474" y="163" type="curve" smooth="yes"/>
      <point x="501" y="176"/>
      <point x="512" y="188"/>
      <point x="512" y="202" type="curve" smooth="yes"/>
      <point x="512" y="208"/>
      <point x="503" y="216"/>
      <point x="496" y="216" type="curve" smooth="yes"/>
      <point x="492" y="216"/>
      <point x="484" y="212"/>
      <point x="477" y="207" type="curve" smooth="yes"/>
      <point x="440" y="181"/>
      <point x="386" y="164"/>
      <point x="339" y="164" type="curve" smooth="yes"/>
      <point x="269" y="164"/>
      <point x="216" y="213"/>
      <point x="216" y="277" type="curve" smooth="yes"/>
      <point x="216" y="375"/>
      <point x="305" y="459"/>
      <point x="407" y="459" type="curve" smooth="yes"/>
      <point x="438" y="459"/>
      <point x="468" y="451"/>
      <point x="484" y="438" type="curve"/>
      <point x="494" y="431"/>
      <point x="509" y="409"/>
      <point x="509" y="404" type="curve"/>
      <point x="507" y="375" type="line"/>
      <point x="507" y="371"/>
      <point x="518" y="363"/>
      <point x="523" y="363" type="curve" smooth="yes"/>
      <point x="536" y="363"/>
      <point x="545" y="373"/>
      <point x="549" y="392" type="curve" smooth="yes"/>
      <point x="562" y="453" type="line"/>
      <point x="563" y="456"/>
      <point x="563" y="458"/>
      <point x="563" y="461" type="curve" smooth="yes"/>
      <point x="563" y="472"/>
      <point x="557" y="478"/>
      <point x="546" y="478" type="curve" smooth="yes"/>
      <point x="537" y="478"/>
      <point x="529" y="472"/>
      <point x="523" y="461" type="curve"/>
      <point x="503" y="483"/>
      <point x="465" y="497"/>
      <point x="427" y="497" type="curve"/>
      <point x="449" y="603" type="line" smooth="yes"/>
      <point x="451" y="611"/>
      <point x="451" y="611"/>
      <point x="451" y="614" type="curve" smooth="yes"/>
      <point x="451" y="623"/>
      <point x="444" y="630"/>
      <point x="434" y="630" type="curve" smooth="yes"/>
      <point x="421" y="630"/>
      <point x="412" y="621"/>
      <point x="408" y="603" type="curve" smooth="yes"/>
    </contour>
  </outline>
</glyph>
<glyph name="sterling" format="1">
  <advance width="600"/>
  <unicode hex="00A3"/>
  <outline>
    <contour>
      <point x="191" y="41" type="line"/>
      <point x="248" y="94"/>
      <point x="289" y="189"/>
      <point x="292" y="273" type="curve"/>
      <point x="382" y="273" type="line" smooth="yes"/>
      <point x="402" y="273"/>
      <point x="414" y="283"/>
      <point x="414" y="298" type="curve" smooth="yes"/>
      <point x="414" y="310"/>
      <point x="408" y="314"/>
      <point x="391" y="314" type="curve" smooth="yes"/>
      <point x="292" y="314" type="line"/>
      <point x="291" y="328" type="line" smooth="yes"/>
      <point x="287" y="379"/>
      <point x="287" y="379"/>
      <point x="287" y="396" type="curve" smooth="yes"/>
      <point x="287" y="439"/>
      <point x="297" y="466"/>
      <point x="323" y="495" type="curve" smooth="yes"/>
      <point x="348" y="521"/>
      <point x="381" y="537"/>
      <point x="413" y="537" type="curve" smooth="yes"/>
      <point x="448" y="537"/>
      <point x="473" y="522"/>
      <point x="493" y="488" type="curve" smooth="yes"/>
      <point x="498" y="479"/>
      <point x="502" y="476"/>
      <point x="508" y="476" type="curve" smooth="yes"/>
      <point x="520" y="476"/>
      <point x="533" y="488"/>
      <point x="533" y="499" type="curve" smooth="yes"/>
      <point x="533" y="508"/>
      <point x="524" y="525"/>
      <point x="511" y="539" type="curve" smooth="yes"/>
      <point x="487" y="565"/>
      <point x="457" y="578"/>
      <point x="421" y="578" type="curve" smooth="yes"/>
      <point x="326" y="578"/>
      <point x="245" y="493"/>
      <point x="245" y="393" type="curve" smooth="yes"/>
      <point x="245" y="373"/>
      <point x="246" y="353"/>
      <point x="251" y="314" type="curve"/>
      <point x="157" y="314" type="line" smooth="yes"/>
      <point x="137" y="314"/>
      <point x="125" y="305"/>
      <point x="125" y="290" type="curve" smooth="yes"/>
      <point x="125" y="278"/>
      <point x="132" y="273"/>
      <point x="148" y="273" type="curve" smooth="yes"/>
      <point x="252" y="273" type="line"/>
      <point x="248" y="166"/>
      <point x="175" y="41"/>
      <point x="117" y="40" type="curve" smooth="yes"/>
      <point x="101" y="40"/>
      <point x="90" y="30"/>
      <point x="90" y="17" type="curve" smooth="yes"/>
      <point x="90" y="5"/>
      <point x="97" y="0"/>
      <point x="113" y="0" type="curve" smooth="yes"/>
      <point x="436" y="0" type="line" smooth="yes"/>
      <point x="465" y="0"/>
      <point x="493" y="15"/>
      <point x="514" y="41" type="curve" smooth="yes"/>
      <point x="529" y="59"/>
      <point x="541" y="86"/>
      <point x="541" y="100" type="curve" smooth="yes"/>
      <point x="541" y="108"/>
      <point x="534" y="115"/>
      <point x="525" y="115" type="curve" smooth="yes"/>
      <point x="512" y="115"/>
      <point x="504" y="108"/>
      <point x="499" y="92" type="curve" smooth="yes"/>
      <point x="489" y="60"/>
      <point x="469" y="41"/>
      <point x="443" y="41" type="curve" smooth="yes"/>
    </contour>
  </outline>
</glyph>
<glyph name="currency" format="1">
  <advance width="600"/>
  <unicode hex="00A4"/>
  <outline>
    <contour>
      <point x="233" y="162" type="line"/>
      <point x="259" y="139"/>
      <point x="290" y="127"/>
      <point x="326" y="127" type="curve" smooth="yes"/>
      <point x="364" y="127"/>
      <point x="400" y="138"/>
      <point x="436" y="162" type="curve"/>
      <point x="479" y="106" type="line" smooth="yes"/>
      <point x="485" y="98"/>
      <point x="490" y="95"/>
      <point x="495" y="95" type="curve" smooth="yes"/>
      <point x="508" y="95"/>
      <point x="521" y="108"/>
      <point x="521" y="119" type="curve"/>
      <point x="516" y="134"/>
      <point x="516" y="134"/>
      <point x="515" y="135" type="curve"/>
      <point x="471" y="191" type="line"/>
      <point x="510" y="230"/>
      <point x="532" y="280"/>
      <point x="532" y="327" type="curve" smooth="yes"/>
      <point x="532" y="351"/>
      <point x="527" y="373"/>
      <point x="515" y="394" type="curve"/>
      <point x="582" y="450" type="line"/>
      <point x="594" y="459"/>
      <point x="597" y="464"/>
      <point x="597" y="473" type="curve" smooth="yes"/>
      <point x="597" y="482"/>
      <point x="590" y="489"/>
      <point x="580" y="489" type="curve" smooth="yes"/>
      <point x="574" y="489"/>
      <point x="569" y="487"/>
      <point x="559" y="478" type="curve" smooth="yes"/>
      <point x="492" y="423" type="line"/>
      <point x="468" y="446"/>
      <point x="435" y="458"/>
      <point x="399" y="458" type="curve" smooth="yes"/>
      <point x="360" y="458"/>
      <point x="323" y="446"/>
      <point x="288" y="423" type="curve"/>
      <point x="244" y="478" type="line"/>
      <point x="238" y="487"/>
      <point x="234" y="489"/>
      <point x="227" y="489" type="curve" smooth="yes"/>
      <point x="215" y="489"/>
      <point x="202" y="477"/>
      <point x="202" y="465" type="curve" smooth="yes"/>
      <point x="202" y="461"/>
      <point x="204" y="456"/>
      <point x="209" y="450" type="curve" smooth="yes"/>
      <point x="253" y="394" type="line"/>
      <point x="217" y="358"/>
      <point x="193" y="305"/>
      <point x="193" y="259" type="curve" smooth="yes"/>
      <point x="193" y="236"/>
      <point x="199" y="214"/>
      <point x="210" y="191" type="curve"/>
      <point x="142" y="135" type="line" smooth="yes"/>
      <point x="131" y="125"/>
      <point x="127" y="119"/>
      <point x="127" y="111" type="curve" smooth="yes"/>
      <point x="127" y="102"/>
      <point x="134" y="95"/>
      <point x="144" y="95" type="curve" smooth="yes"/>
      <point x="150" y="95"/>
      <point x="155" y="98"/>
      <point x="165" y="106" type="curve" smooth="yes"/>
    </contour>
    <contour>
      <point x="388" y="417" type="curve" smooth="yes"/>
      <point x="447" y="417"/>
      <point x="489" y="376"/>
      <point x="489" y="318" type="curve" smooth="yes"/>
      <point x="489" y="241"/>
      <point x="414" y="168"/>
      <point x="334" y="168" type="curve" smooth="yes"/>
      <point x="277" y="168"/>
      <point x="235" y="210"/>
      <point x="235" y="267" type="curve" smooth="yes"/>
      <point x="235" y="344"/>
      <point x="310" y="417"/>
    </contour>
  </outline>
</glyph>
<glyph name="yen" format="1">
  <advance width="600"/>
  <unicode hex="00A5"/>
  <outline>
    <contour>
      <point x="372" y="238" type="line"/>
      <point x="503" y="238" type="line" smooth="yes"/>
      <point x="520" y="238"/>
      <point x="529" y="246"/>
      <point x="529" y="264" type="curve" smooth="yes"/>
      <point x="529" y="272"/>
      <point x="523" y="275"/>
      <point x="510" y="275" type="curve" smooth="yes"/>
      <point x="392" y="275" type="line"/>
      <point x="609" y="522" type="line"/>
      <point x="633" y="522" type="line" smooth="yes"/>
      <point x="653" y="522"/>
      <point x="665" y="532"/>
      <point x="665" y="546" type="curve" smooth="yes"/>
      <point x="665" y="559"/>
      <point x="659" y="563"/>
      <point x="642" y="563" type="curve" smooth="yes"/>
      <point x="532" y="563" type="line" smooth="yes"/>
      <point x="512" y="563"/>
      <point x="500" y="554"/>
      <point x="500" y="539" type="curve" smooth="yes"/>
      <point x="500" y="527"/>
      <point x="506" y="522"/>
      <point x="523" y="522" type="curve" smooth="yes"/>
      <point x="562" y="522" type="line"/>
      <point x="363" y="295" type="line"/>
      <point x="260" y="522" type="line"/>
      <point x="299" y="522" type="line" smooth="yes"/>
      <point x="319" y="522"/>
      <point x="331" y="532"/>
      <point x="331" y="547" type="curve" smooth="yes"/>
      <point x="331" y="559"/>
      <point x="325" y="563"/>
      <point x="308" y="563" type="curve" smooth="yes"/>
      <point x="198" y="563" type="line" smooth="yes"/>
      <point x="178" y="563"/>
      <point x="166" y="554"/>
      <point x="166" y="538" type="curve" smooth="yes"/>
      <point x="166" y="527"/>
      <point x="172" y="522"/>
      <point x="189" y="522" type="curve" smooth="yes"/>
      <point x="213" y="522" type="line"/>
      <point x="324" y="275" type="line"/>
      <point x="208" y="275" type="line" smooth="yes"/>
      <point x="190" y="275"/>
      <point x="182" y="267"/>
      <point x="182" y="250" type="curve" smooth="yes"/>
      <point x="182" y="241"/>
      <point x="187" y="238"/>
      <point x="200" y="238" type="curve" smooth="yes"/>
      <point x="331" y="238" type="line"/>
      <point x="318" y="178" type="line"/>
      <point x="187" y="178" type="line" smooth="yes"/>
      <point x="170" y="178"/>
      <point x="161" y="170"/>
      <point x="161" y="153" type="curve" smooth="yes"/>
      <point x="161" y="145"/>
      <point x="167" y="141"/>
      <point x="180" y="141" type="curve" smooth="yes"/>
      <point x="310" y="141" type="line"/>
      <point x="289" y="41" type="line"/>
      <point x="203" y="41" type="line" smooth="yes"/>
      <point x="183" y="41"/>
      <point x="171" y="32"/>
      <point x="171" y="16" type="curve" smooth="yes"/>
      <point x="171" y="5"/>
      <point x="178" y="0"/>
      <point x="194" y="0" type="curve" smooth="yes"/>
      <point x="407" y="0" type="line" smooth="yes"/>
      <point x="426" y="0"/>
      <point x="439" y="10"/>
      <point x="439" y="25" type="curve" smooth="yes"/>
      <point x="439" y="37"/>
      <point x="433" y="41"/>
      <point x="416" y="41" type="curve" smooth="yes"/>
      <point x="330" y="41" type="line"/>
      <point x="351" y="141" type="line"/>
      <point x="482" y="141" type="line" smooth="yes"/>
      <point x="499" y="141"/>
      <point x="508" y="150"/>
      <point x="508" y="167" type="curve" smooth="yes"/>
      <point x="508" y="174"/>
      <point x="502" y="178"/>
      <point x="490" y="178" type="curve" smooth="yes"/>
      <point x="359" y="178" type="line"/>
    </contour>
  </outline>
</glyph>
<glyph name="brokenbar" format="1">
  <advance width="600"/>
  <unicode hex="00A6"/>
  <outline>
    <contour>
      <point x="442" y="577" type="line" smooth="yes"/>
      <point x="444" y="585"/>
      <point x="444" y="586"/>
      <point x="444" y="589" type="curve" smooth="yes"/>
      <point x="444" y="597"/>
      <point x="437" y="604"/>
      <point x="428" y="604" type="curve" smooth="yes"/>
      <point x="415" y="604"/>
      <point x="406" y="594"/>
      <point x="402" y="577" type="curve" smooth="yes"/>
      <point x="345" y="310" type="line"/>
      <point x="344" y="298" type="line"/>
      <point x="344" y="290"/>
      <point x="351" y="283"/>
      <point x="360" y="283" type="curve" smooth="yes"/>
      <point x="373" y="283"/>
      <point x="381" y="292"/>
      <point x="385" y="310" type="curve" smooth="yes"/>
    </contour>
    <contour>
      <point x="356" y="170" type="line"/>
      <point x="357" y="182" type="line"/>
      <point x="357" y="190"/>
      <point x="350" y="197"/>
      <point x="341" y="197" type="curve" smooth="yes"/>
      <point x="328" y="197"/>
      <point x="319" y="188"/>
      <point x="315" y="170" type="curve" smooth="yes"/>
      <point x="259" y="-97" type="line" smooth="yes"/>
      <point x="258" y="-101"/>
      <point x="257" y="-107"/>
      <point x="257" y="-109" type="curve" smooth="yes"/>
      <point x="257" y="-117"/>
      <point x="264" y="-124"/>
      <point x="273" y="-124" type="curve" smooth="yes"/>
      <point x="286" y="-124"/>
      <point x="295" y="-115"/>
      <point x="299" y="-97" type="curve" smooth="yes"/>
    </contour>
  </outline>
</glyph>
<glyph name="section" format="1">
  <advance width="600"/>
  <unicode hex="00A7"/>
  <outline>
    <contour>
      <point x="624" y="603" type="line"/>
      <point x="412" y="603" type="line" smooth="yes"/>
      <point x="334" y="603"/>
      <point x="257" y="536"/>
      <point x="257" y="468" type="curve" smooth="yes"/>
      <point x="257" y="458"/>
      <point x="258" y="451"/>
      <point x="262" y="441" type="curve"/>
      <point x="193" y="436"/>
      <point x="140" y="394"/>
      <point x="140" y="345" type="curve" smooth="yes"/>
      <point x="140" y="301"/>
      <point x="174" y="260"/>
      <point x="252" y="211" type="curve" smooth="yes"/>
      <point x="309" y="175" type="line" smooth="yes"/>
      <point x="385" y="127"/>
      <point x="416" y="95"/>
      <point x="416" y="65" type="curve" smooth="yes"/>
      <point x="416" y="19"/>
      <point x="364" y="-22"/>
      <point x="306" y="-22" type="curve" smooth="yes"/>
      <point x="141" y="-22" type="line"/>
      <point x="156" y="49" type="line"/>
      <point x="157" y="58" type="line"/>
      <point x="157" y="67"/>
      <point x="150" y="73"/>
      <point x="140" y="73" type="curve" smooth="yes"/>
      <point x="127" y="73"/>
      <point x="118" y="64"/>
      <point x="115" y="49" type="curve" smooth="yes"/>
      <point x="91" y="-62" type="line"/>
      <point x="298" y="-62" type="line" smooth="yes"/>
      <point x="384" y="-62"/>
      <point x="458" y="1"/>
      <point x="458" y="75" type="curve" smooth="yes"/>
      <point x="458" y="84"/>
      <point x="457" y="91"/>
      <point x="453" y="101" type="curve"/>
      <point x="495" y="106"/>
      <point x="515" y="113"/>
      <point x="538" y="132" type="curve" smooth="yes"/>
      <point x="562" y="150"/>
      <point x="575" y="175"/>
      <point x="575" y="202" type="curve" smooth="yes"/>
      <point x="575" y="245"/>
      <point x="545" y="281"/>
      <point x="470" y="327" type="curve" smooth="yes"/>
      <point x="421" y="358" type="line" smooth="yes"/>
      <point x="326" y="417"/>
      <point x="298" y="444"/>
      <point x="298" y="474" type="curve" smooth="yes"/>
      <point x="298" y="519"/>
      <point x="351" y="563"/>
      <point x="406" y="563" type="curve" smooth="yes"/>
      <point x="574" y="563" type="line"/>
      <point x="560" y="494" type="line" smooth="yes"/>
      <point x="559" y="489"/>
      <point x="558" y="486"/>
      <point x="558" y="484" type="curve"/>
      <point x="557" y="476"/>
      <point x="565" y="469"/>
      <point x="575" y="469" type="curve" smooth="yes"/>
      <point x="588" y="469"/>
      <point x="597" y="478"/>
      <point x="601" y="494" type="curve" smooth="yes"/>
    </contour>
    <contour>
      <point x="445" y="290" type="line" smooth="yes"/>
      <point x="498" y="258"/>
      <point x="531" y="220"/>
      <point x="531" y="192" type="curve" smooth="yes"/>
      <point x="531" y="163"/>
      <point x="497" y="143"/>
      <point x="447" y="142" type="curve"/>
      <point x="434" y="141"/>
      <point x="433" y="141"/>
      <point x="429" y="139" type="curve"/>
      <point x="414" y="157"/>
      <point x="389" y="177"/>
      <point x="340" y="208" type="curve" smooth="yes"/>
      <point x="285" y="243" type="line" smooth="yes"/>
      <point x="219" y="285"/>
      <point x="184" y="322"/>
      <point x="184" y="350" type="curve" smooth="yes"/>
      <point x="184" y="379"/>
      <point x="221" y="402"/>
      <point x="268" y="402" type="curve" smooth="yes"/>
      <point x="275" y="402" type="line" smooth="yes"/>
      <point x="280" y="402"/>
      <point x="282" y="402"/>
      <point x="286" y="403" type="curve"/>
      <point x="308" y="379"/>
      <point x="332" y="361"/>
      <point x="388" y="326" type="curve" smooth="yes"/>
    </contour>
  </outline>
</glyph>
<glyph name="dieresis" format="1">
  <advance width="600"/>
  <unicode hex="00A8"/>
  <outline>
    <contour>
      <point x="319" y="611" type="curve" smooth="yes"/>
      <point x="288" y="611"/>
      <point x="258" y="581"/>
      <point x="258" y="551" type="curve" smooth="yes"/>
      <point x="258" y="528"/>
      <point x="275" y="511"/>
      <point x="298" y="511" type="curve" smooth="yes"/>
      <point x="330" y="511"/>
      <point x="360" y="540"/>
      <point x="360" y="571" type="curve" smooth="yes"/>
      <point x="360" y="594"/>
      <point x="343" y="611"/>
    </contour>
    <contour>
      <point x="540" y="611" type="curve" smooth="yes"/>
      <point x="509" y="611"/>
      <point x="479" y="581"/>
      <point x="479" y="551" type="curve" smooth="yes"/>
      <point x="479" y="528"/>
      <point x="496" y="511"/>
      <point x="519" y="511" type="curve" smooth="yes"/>
      <point x="551" y="511"/>
      <point x="581" y="540"/>
      <point x="581" y="571" type="curve" smooth="yes"/>
      <point x="581" y="594"/>
      <point x="564" y="611"/>
    </contour>
  </outline>
</glyph>
<glyph name="copyright" format="1">
  <advance width="600"/>
  <unicode hex="00A9"/>
  <outline>
    <contour>
      <point x="209" y="260" type="line" smooth="yes"/>
      <point x="207" y="251"/>
      <point x="206" y="241"/>
      <point x="206" y="232" type="curve" smooth="yes"/>
      <point x="206" y="164"/>
      <point x="258" y="111"/>
      <point x="326" y="111" type="curve" smooth="yes"/>
      <point x="366" y="111"/>
      <point x="408" y="128"/>
      <point x="443" y="159" type="curve" smooth="yes"/>
      <point x="460" y="173"/>
      <point x="465" y="180"/>
      <point x="465" y="189" type="curve" smooth="yes"/>
      <point x="465" y="197"/>
      <point x="459" y="202"/>
      <point x="451" y="202" type="curve" smooth="yes"/>
      <point x="445" y="202"/>
      <point x="440" y="200"/>
      <point x="434" y="194" type="curve" smooth="yes"/>
      <point x="400" y="161"/>
      <point x="370" y="147"/>
      <point x="334" y="147" type="curve" smooth="yes"/>
      <point x="282" y="147"/>
      <point x="243" y="186"/>
      <point x="243" y="239" type="curve" smooth="yes"/>
      <point x="243" y="247"/>
      <point x="244" y="255"/>
      <point x="246" y="263" type="curve" smooth="yes"/>
      <point x="254" y="302" type="line" smooth="yes"/>
      <point x="267" y="364"/>
      <point x="325" y="415"/>
      <point x="381" y="415" type="curve" smooth="yes"/>
      <point x="403" y="415"/>
      <point x="431" y="405"/>
      <point x="443" y="393" type="curve"/>
      <point x="446" y="389"/>
      <point x="459" y="370"/>
      <point x="459" y="369" type="curve"/>
      <point x="457" y="348" type="line"/>
      <point x="461" y="341"/>
      <point x="466" y="337"/>
      <point x="472" y="337" type="curve" smooth="yes"/>
      <point x="481" y="337"/>
      <point x="491" y="347"/>
      <point x="494" y="358" type="curve"/>
      <point x="507" y="423" type="line"/>
      <point x="508" y="425"/>
      <point x="508" y="426"/>
      <point x="508" y="429" type="curve" smooth="yes"/>
      <point x="508" y="437"/>
      <point x="502" y="443"/>
      <point x="494" y="443" type="curve" smooth="yes"/>
      <point x="483" y="443"/>
      <point x="475" y="435"/>
      <point x="471" y="421" type="curve"/>
      <point x="441" y="443"/>
      <point x="420" y="450"/>
      <point x="389" y="450" type="curve" smooth="yes"/>
      <point x="312" y="450"/>
      <point x="235" y="385"/>
      <point x="219" y="305" type="curve" smooth="yes"/>
    </contour>
    <contour>
      <point x="426" y="578" type="curve" smooth="yes"/>
      <point x="235" y="578"/>
      <point x="57" y="405"/>
      <point x="57" y="220" type="curve" smooth="yes"/>
      <point x="57" y="85"/>
      <point x="157" y="-15"/>
      <point x="294" y="-15" type="curve" smooth="yes"/>
      <point x="485" y="-15"/>
      <point x="663" y="158"/>
      <point x="663" y="343" type="curve" smooth="yes"/>
      <point x="663" y="479"/>
      <point x="563" y="578"/>
    </contour>
    <contour>
      <point x="416" y="537" type="curve" smooth="yes"/>
      <point x="534" y="537"/>
      <point x="621" y="451"/>
      <point x="621" y="334" type="curve" smooth="yes"/>
      <point x="621" y="175"/>
      <point x="468" y="26"/>
      <point x="303" y="26" type="curve" smooth="yes"/>
      <point x="185" y="26"/>
      <point x="99" y="112"/>
      <point x="99" y="229" type="curve" smooth="yes"/>
      <point x="99" y="388"/>
      <point x="252" y="537"/>
    </contour>
  </outline>
</glyph>
<glyph name="ordfeminine" format="1">
  <advance width="600"/>
  <unicode hex="00AA"/>
  <outline>
    <contour>
      <point x="421" y="282" type="line"/>
      <point x="484" y="282" type="line" smooth="yes"/>
      <point x="500" y="282"/>
      <point x="511" y="291"/>
      <point x="511" y="305" type="curve" smooth="yes"/>
      <point x="511" y="314"/>
      <point x="505" y="319"/>
      <point x="492" y="319" type="curve" smooth="yes"/>
      <point x="466" y="319" type="line"/>
      <point x="502" y="490" type="line" smooth="yes"/>
      <point x="503" y="496"/>
      <point x="504" y="501"/>
      <point x="504" y="506" type="curve" smooth="yes"/>
      <point x="504" y="547"/>
      <point x="470" y="574"/>
      <point x="420" y="574" type="curve" smooth="yes"/>
      <point x="394" y="574"/>
      <point x="340" y="561"/>
      <point x="317" y="550" type="curve" smooth="yes"/>
      <point x="306" y="545"/>
      <point x="301" y="538"/>
      <point x="301" y="528" type="curve" smooth="yes"/>
      <point x="301" y="521"/>
      <point x="307" y="514"/>
      <point x="315" y="514" type="curve" smooth="yes"/>
      <point x="318" y="514"/>
      <point x="319" y="514"/>
      <point x="329" y="518" type="curve"/>
      <point x="364" y="530"/>
      <point x="392" y="537"/>
      <point x="410" y="537" type="curve" smooth="yes"/>
      <point x="443" y="537"/>
      <point x="466" y="522"/>
      <point x="466" y="500" type="curve" smooth="yes"/>
      <point x="466" y="495"/>
      <point x="466" y="494"/>
      <point x="465" y="490" type="curve" smooth="yes"/>
      <point x="456" y="446" type="line"/>
      <point x="427" y="452"/>
      <point x="407" y="455"/>
      <point x="385" y="455" type="curve" smooth="yes"/>
      <point x="300" y="455"/>
      <point x="229" y="404"/>
      <point x="229" y="343" type="curve" smooth="yes"/>
      <point x="229" y="303"/>
      <point x="261" y="279"/>
      <point x="313" y="279" type="curve" smooth="yes"/>
      <point x="352" y="279"/>
      <point x="381" y="286"/>
      <point x="426" y="308" type="curve"/>
    </contour>
    <contour>
      <point x="435" y="350" type="line"/>
      <point x="394" y="326"/>
      <point x="359" y="316"/>
      <point x="320" y="316" type="curve" smooth="yes"/>
      <point x="287" y="316"/>
      <point x="266" y="329"/>
      <point x="266" y="348" type="curve" smooth="yes"/>
      <point x="266" y="387"/>
      <point x="318" y="420"/>
      <point x="379" y="420" type="curve" smooth="yes"/>
      <point x="402" y="420"/>
      <point x="434" y="415"/>
      <point x="448" y="409" type="curve"/>
    </contour>
  </outline>
</glyph>
<glyph name="guillemotleft" format="1">
  <advance width="600"/>
  <unicode hex="00AB"/>
  <outline>
    <contour>
      <point x="108" y="209" type="line"/>
      <point x="274" y="11" type="line" smooth="yes"/>
      <point x="280" y="4"/>
      <point x="286" y="0"/>
      <point x="292" y="0" type="curve" smooth="yes"/>
      <point x="305" y="0"/>
      <point x="317" y="12"/>
      <point x="317" y="25" type="curve" smooth="yes"/>
      <point x="317" y="29"/>
      <point x="316" y="32"/>
      <point x="310" y="40" type="curve"/>
      <point x="203" y="209" type="line"/>
      <point x="382" y="377" type="line" smooth="yes"/>
      <point x="395" y="389"/>
      <point x="397" y="393"/>
      <point x="397" y="401" type="curve" smooth="yes"/>
      <point x="397" y="410"/>
      <point x="390" y="417"/>
      <point x="381" y="417" type="curve" smooth="yes"/>
      <point x="374" y="417"/>
      <point x="368" y="414"/>
      <point x="358" y="406" type="curve" smooth="yes"/>
    </contour>
    <contour>
      <point x="337" y="209" type="line"/>
      <point x="503" y="11" type="line" smooth="yes"/>
      <point x="509" y="4"/>
      <point x="515" y="0"/>
      <point x="521" y="0" type="curve" smooth="yes"/>
      <point x="534" y="0"/>
      <point x="546" y="12"/>
      <point x="546" y="25" type="curve" smooth="yes"/>
      <point x="546" y="29"/>
      <point x="545" y="32"/>
      <point x="539" y="40" type="curve"/>
      <point x="432" y="209" type="line"/>
      <point x="611" y="377" type="line" smooth="yes"/>
      <point x="624" y="389"/>
      <point x="626" y="393"/>
      <point x="626" y="401" type="curve" smooth="yes"/>
      <point x="626" y="410"/>
      <point x="619" y="417"/>
      <point x="610" y="417" type="curve" smooth="yes"/>
      <point x="603" y="417"/>
      <point x="597" y="414"/>
      <point x="586" y="406" type="curve" smooth="yes"/>
    </contour>
  </outline>
</glyph>
<glyph name="logicalnot" format="1">
  <advance width="600"/>
  <unicode hex="00AC"/>
  <outline>
    <contour>
      <point x="571" y="397" type="line"/>
      <point x="528" y="195" type="line"/>
      <point x="528" y="195"/>
      <point x="528" y="193"/>
      <point x="527" y="191" type="curve"/>
      <point x="526" y="188"/>
      <point x="526" y="185"/>
      <point x="526" y="183" type="curve" smooth="yes"/>
      <point x="526" y="175"/>
      <point x="534" y="168"/>
      <point x="542" y="168" type="curve" smooth="yes"/>
      <point x="556" y="168"/>
      <point x="566" y="178"/>
      <point x="569" y="195" type="curve" smooth="yes"/>
      <point x="621" y="438" type="line"/>
      <point x="192" y="438" type="line" smooth="yes"/>
      <point x="172" y="438"/>
      <point x="160" y="429"/>
      <point x="160" y="413" type="curve" smooth="yes"/>
      <point x="160" y="402"/>
      <point x="167" y="397"/>
      <point x="183" y="397" type="curve" smooth="yes"/>
    </contour>
  </outline>
</glyph>
<glyph name="registered" format="1">
  <advance width="600"/>
  <unicode hex="00AE"/>
  <outline>
    <contour>
      <point x="288" y="258" type="line"/>
      <point x="352" y="258" type="line"/>
      <point x="385" y="246"/>
      <point x="413" y="198"/>
      <point x="433" y="120" type="curve"/>
      <point x="472" y="120" type="line" smooth="yes"/>
      <point x="485" y="120"/>
      <point x="496" y="130"/>
      <point x="496" y="142" type="curve" smooth="yes"/>
      <point x="496" y="151"/>
      <point x="490" y="156"/>
      <point x="480" y="156" type="curve" smooth="yes"/>
      <point x="465" y="156" type="line"/>
      <point x="438" y="230"/>
      <point x="431" y="242"/>
      <point x="404" y="269" type="curve"/>
      <point x="457" y="283"/>
      <point x="493" y="323"/>
      <point x="493" y="369" type="curve" smooth="yes"/>
      <point x="493" y="414"/>
      <point x="458" y="443"/>
      <point x="405" y="443" type="curve" smooth="yes"/>
      <point x="268" y="443" type="line" smooth="yes"/>
      <point x="254" y="443"/>
      <point x="243" y="434"/>
      <point x="243" y="421" type="curve" smooth="yes"/>
      <point x="243" y="412"/>
      <point x="249" y="407"/>
      <point x="260" y="407" type="curve" smooth="yes"/>
      <point x="284" y="407" type="line"/>
      <point x="231" y="156" type="line"/>
      <point x="206" y="156" type="line" smooth="yes"/>
      <point x="193" y="156"/>
      <point x="182" y="146"/>
      <point x="182" y="134" type="curve" smooth="yes"/>
      <point x="182" y="125"/>
      <point x="188" y="120"/>
      <point x="199" y="120" type="curve" smooth="yes"/>
      <point x="295" y="120" type="line" smooth="yes"/>
      <point x="308" y="120"/>
      <point x="319" y="130"/>
      <point x="319" y="142" type="curve" smooth="yes"/>
      <point x="319" y="151"/>
      <point x="313" y="156"/>
      <point x="302" y="156" type="curve" smooth="yes"/>
      <point x="267" y="156" type="line"/>
    </contour>
    <contour>
      <point x="296" y="294" type="line"/>
      <point x="320" y="407" type="line"/>
      <point x="397" y="407" type="line" smooth="yes"/>
      <point x="433" y="407"/>
      <point x="456" y="390"/>
      <point x="456" y="362" type="curve" smooth="yes"/>
      <point x="456" y="322"/>
      <point x="413" y="294"/>
      <point x="352" y="294" type="curve" smooth="yes"/>
    </contour>
    <contour>
      <point x="426" y="578" type="curve" smooth="yes"/>
      <point x="235" y="578"/>
      <point x="57" y="405"/>
      <point x="57" y="220" type="curve" smooth="yes"/>
      <point x="57" y="85"/>
      <point x="157" y="-15"/>
      <point x="294" y="-15" type="curve" smooth="yes"/>
      <point x="485" y="-15"/>
      <point x="663" y="158"/>
      <point x="663" y="343" type="curve" smooth="yes"/>
      <point x="663" y="479"/>
      <point x="563" y="578"/>
    </contour>
    <contour>
      <point x="416" y="537" type="curve" smooth="yes"/>
      <point x="534" y="537"/>
      <point x="621" y="451"/>
      <point x="621" y="334" type="curve" smooth="yes"/>
      <point x="621" y="175"/>
      <point x="468" y="26"/>
      <point x="303" y="26" type="curve" smooth="yes"/>
      <point x="185" y="26"/>
      <point x="99" y="112"/>
      <point x="99" y="229" type="curve" smooth="yes"/>
      <point x="99" y="388"/>
      <point x="252" y="537"/>
    </contour>
  </outline>
</glyph>
<glyph name="macron" format="1">
  <advance width="600"/>
  <unicode hex="00AF"/>
  <outline>
    <contour>
      <point x="532" y="536" type="line" smooth="yes"/>
      <point x="552" y="536"/>
      <point x="564" y="545"/>
      <point x="564" y="560" type="curve" smooth="yes"/>
      <point x="564" y="571"/>
      <point x="557" y="576"/>
      <point x="541" y="576" type="curve" smooth="yes"/>
      <point x="305" y="576" type="line" smooth="yes"/>
      <point x="285" y="576"/>
      <point x="273" y="567"/>
      <point x="273" y="552" type="curve" smooth="yes"/>
      <point x="273" y="541"/>
      <point x="280" y="536"/>
      <point x="296" y="536" type="curve" smooth="yes"/>
    </contour>
  </outline>
</glyph>
<glyph name="degree" format="1">
  <advance width="600"/>
  <unicode hex="00B0"/>
  <outline>
    <contour>
      <point x="437" y="636" type="curve" smooth="yes"/>
      <point x="344" y="636"/>
      <point x="257" y="552"/>
      <point x="257" y="462" type="curve" smooth="yes"/>
      <point x="257" y="394"/>
      <point x="306" y="346"/>
      <point x="375" y="346" type="curve" smooth="yes"/>
      <point x="466" y="346"/>
      <point x="553" y="432"/>
      <point x="553" y="521" type="curve" smooth="yes"/>
      <point x="553" y="587"/>
      <point x="504" y="636"/>
    </contour>
    <contour>
      <point x="428" y="595" type="curve" smooth="yes"/>
      <point x="476" y="595"/>
      <point x="511" y="560"/>
      <point x="511" y="513" type="curve" smooth="yes"/>
      <point x="511" y="448"/>
      <point x="449" y="387"/>
      <point x="383" y="387" type="curve" smooth="yes"/>
      <point x="334" y="387"/>
      <point x="299" y="421"/>
      <point x="299" y="470" type="curve" smooth="yes"/>
      <point x="299" y="535"/>
      <point x="361" y="595"/>
    </contour>
  </outline>
</glyph>
<glyph name="plusminus" format="1">
  <advance width="600"/>
  <unicode hex="00B1"/>
  <outline>
    <contour>
      <point x="384" y="301" type="line"/>
      <point x="565" y="301" type="line" smooth="yes"/>
      <point x="585" y="301"/>
      <point x="597" y="310"/>
      <point x="597" y="325" type="curve" smooth="yes"/>
      <point x="597" y="337"/>
      <point x="591" y="341"/>
      <point x="573" y="341" type="curve" smooth="yes"/>
      <point x="393" y="341" type="line"/>
      <point x="427" y="502" type="line"/>
      <point x="428" y="506" type="line"/>
      <point x="429" y="509"/>
      <point x="429" y="512"/>
      <point x="429" y="514" type="curve" smooth="yes"/>
      <point x="429" y="522"/>
      <point x="421" y="529"/>
      <point x="413" y="529" type="curve" smooth="yes"/>
      <point x="399" y="529"/>
      <point x="390" y="520"/>
      <point x="386" y="502" type="curve" smooth="yes"/>
      <point x="352" y="341" type="line"/>
      <point x="171" y="341" type="line" smooth="yes"/>
      <point x="152" y="341"/>
      <point x="140" y="332"/>
      <point x="140" y="317" type="curve" smooth="yes"/>
      <point x="140" y="306"/>
      <point x="147" y="301"/>
      <point x="163" y="301" type="curve" smooth="yes"/>
      <point x="343" y="301" type="line"/>
      <point x="309" y="139" type="line" smooth="yes"/>
      <point x="307" y="131"/>
      <point x="307" y="130"/>
      <point x="307" y="127" type="curve" smooth="yes"/>
      <point x="307" y="119"/>
      <point x="315" y="112"/>
      <point x="324" y="112" type="curve" smooth="yes"/>
      <point x="337" y="112"/>
      <point x="346" y="121"/>
      <point x="350" y="139" type="curve" smooth="yes"/>
    </contour>
    <contour>
      <point x="108" y="40" type="line" smooth="yes"/>
      <point x="88" y="40"/>
      <point x="76" y="31"/>
      <point x="76" y="16" type="curve" smooth="yes"/>
      <point x="76" y="5"/>
      <point x="83" y="0"/>
      <point x="99" y="0" type="curve" smooth="yes"/>
      <point x="501" y="0" type="line" smooth="yes"/>
      <point x="521" y="0"/>
      <point x="533" y="9"/>
      <point x="533" y="24" type="curve" smooth="yes"/>
      <point x="533" y="35"/>
      <point x="526" y="40"/>
      <point x="510" y="40" type="curve" smooth="yes"/>
    </contour>
  </outline>
</glyph>
<glyph name="acute" format="1">
  <advance width="600"/>
  <unicode hex="00B4"/>
  <outline>
    <contour>
      <point x="560" y="599" type="line" smooth="yes"/>
      <point x="573" y="608"/>
      <point x="577" y="614"/>
      <point x="577" y="623" type="curve" smooth="yes"/>
      <point x="577" y="632"/>
      <point x="570" y="639"/>
      <point x="561" y="639" type="curve" smooth="yes"/>
      <point x="555" y="639"/>
      <point x="550" y="637"/>
      <point x="540" y="630" type="curve" smooth="yes"/>
      <point x="405" y="530" type="line" smooth="yes"/>
      <point x="392" y="520"/>
      <point x="388" y="515"/>
      <point x="388" y="506" type="curve" smooth="yes"/>
      <point x="388" y="497"/>
      <point x="395" y="490"/>
      <point x="405" y="490" type="curve" smooth="yes"/>
      <point x="410" y="490"/>
      <point x="416" y="493"/>
      <point x="425" y="499" type="curve" smooth="yes"/>
    </contour>
  </outline>
</glyph>
<glyph name="paragraph" format="1">
  <advance width="600"/>
  <unicode hex="00B6"/>
  <outline>
    <contour>
      <point x="557" y="563" type="line"/>
      <point x="618" y="563" type="line" smooth="yes"/>
      <point x="636" y="563"/>
      <point x="648" y="573"/>
      <point x="648" y="588" type="curve" smooth="yes"/>
      <point x="648" y="599"/>
      <point x="641" y="604"/>
      <point x="627" y="604" type="curve" smooth="yes"/>
      <point x="427" y="604" type="line" smooth="yes"/>
      <point x="297" y="604"/>
      <point x="195" y="543"/>
      <point x="176" y="453" type="curve" smooth="yes"/>
      <point x="166" y="406" type="line"/>
      <point x="164" y="399"/>
      <point x="163" y="391"/>
      <point x="163" y="386" type="curve" smooth="yes"/>
      <point x="163" y="343"/>
      <point x="189" y="307"/>
      <point x="234" y="284" type="curve" smooth="yes"/>
      <point x="261" y="271"/>
      <point x="294" y="263"/>
      <point x="340" y="260" type="curve"/>
      <point x="280" y="-21" type="line"/>
      <point x="182" y="-21" type="line" smooth="yes"/>
      <point x="164" y="-21"/>
      <point x="152" y="-31"/>
      <point x="152" y="-46" type="curve" smooth="yes"/>
      <point x="152" y="-56"/>
      <point x="159" y="-62"/>
      <point x="174" y="-62" type="curve" smooth="yes"/>
      <point x="308" y="-62" type="line" smooth="yes"/>
      <point x="326" y="-62"/>
      <point x="338" y="-52"/>
      <point x="338" y="-37" type="curve" smooth="yes"/>
      <point x="338" y="-27"/>
      <point x="332" y="-22"/>
      <point x="321" y="-21" type="curve"/>
      <point x="445" y="563" type="line"/>
      <point x="517" y="563" type="line"/>
      <point x="393" y="-21" type="line"/>
      <point x="378" y="-22"/>
      <point x="367" y="-33"/>
      <point x="367" y="-45" type="curve" smooth="yes"/>
      <point x="367" y="-57"/>
      <point x="374" y="-62"/>
      <point x="388" y="-62" type="curve" smooth="yes"/>
      <point x="487" y="-62" type="line" smooth="yes"/>
      <point x="505" y="-62"/>
      <point x="517" y="-52"/>
      <point x="517" y="-37" type="curve" smooth="yes"/>
      <point x="517" y="-26"/>
      <point x="510" y="-21"/>
      <point x="495" y="-21" type="curve" smooth="yes"/>
      <point x="433" y="-21" type="line"/>
    </contour>
    <contour>
      <point x="350" y="307" type="line"/>
      <point x="282" y="314"/>
      <point x="232" y="354"/>
      <point x="235" y="400" type="curve"/>
      <point x="235" y="403"/>
      <point x="236" y="408"/>
      <point x="237" y="414" type="curve" smooth="yes"/>
      <point x="245" y="451" type="line" smooth="yes"/>
      <point x="258" y="505"/>
      <point x="328" y="553"/>
      <point x="403" y="558" type="curve"/>
    </contour>
  </outline>
</glyph>
<glyph name="periodcentered" format="1">
  <advance width="600"/>
  <unicode hex="00B7"/>
  <outline>
    <contour>
      <point x="369" y="348" type="line" smooth="yes"/>
      <point x="325" y="348"/>
      <point x="285" y="311"/>
      <point x="285" y="269" type="curve" smooth="yes"/>
      <point x="285" y="238"/>
      <point x="308" y="217"/>
      <point x="341" y="217" type="curve" smooth="yes"/>
      <point x="352" y="217" type="line" smooth="yes"/>
      <point x="396" y="217"/>
      <point x="436" y="254"/>
      <point x="436" y="296" type="curve" smooth="yes"/>
      <point x="436" y="327"/>
      <point x="413" y="348"/>
      <point x="380" y="348" type="curve" smooth="yes"/>
    </contour>
  </outline>
</glyph>
<glyph name="cedilla" format="1">
  <advance width="600"/>
  <unicode hex="00B8"/>
  <outline>
    <contour>
      <point x="274" y="0" type="line"/>
      <point x="257" y="-81" type="line"/>
      <point x="278" y="-81" type="line" smooth="yes"/>
      <point x="305" y="-81"/>
      <point x="319" y="-88"/>
      <point x="319" y="-101" type="curve" smooth="yes"/>
      <point x="319" y="-121"/>
      <point x="297" y="-135"/>
      <point x="268" y="-135" type="curve" smooth="yes"/>
      <point x="253" y="-135"/>
      <point x="240" y="-131"/>
      <point x="220" y="-119" type="curve" smooth="yes"/>
      <point x="213" y="-115"/>
      <point x="210" y="-114"/>
      <point x="205" y="-114" type="curve" smooth="yes"/>
      <point x="192" y="-114"/>
      <point x="181" y="-125"/>
      <point x="181" y="-138" type="curve" smooth="yes"/>
      <point x="181" y="-154"/>
      <point x="225" y="-173"/>
      <point x="262" y="-173" type="curve" smooth="yes"/>
      <point x="315" y="-173"/>
      <point x="356" y="-138"/>
      <point x="356" y="-93" type="curve" smooth="yes"/>
      <point x="356" y="-63"/>
      <point x="338" y="-48"/>
      <point x="302" y="-47" type="curve"/>
      <point x="312" y="0" type="line"/>
    </contour>
  </outline>
</glyph>
<glyph name="ordmasculine" format="1">
  <advance width="600"/>
  <unicode hex="00BA"/>
  <outline>
    <contour>
      <point x="424" y="577" type="curve" smooth="yes"/>
      <point x="331" y="577"/>
      <point x="243" y="491"/>
      <point x="243" y="400" type="curve" smooth="yes"/>
      <point x="243" y="333"/>
      <point x="293" y="284"/>
      <point x="360" y="284" type="curve" smooth="yes"/>
      <point x="454" y="284"/>
      <point x="543" y="369"/>
      <point x="543" y="460" type="curve" smooth="yes"/>
      <point x="543" y="529"/>
      <point x="494" y="577"/>
    </contour>
    <contour>
      <point x="416" y="540" type="curve" smooth="yes"/>
      <point x="468" y="540"/>
      <point x="505" y="504"/>
      <point x="505" y="453" type="curve" smooth="yes"/>
      <point x="505" y="385"/>
      <point x="439" y="321"/>
      <point x="369" y="321" type="curve" smooth="yes"/>
      <point x="318" y="321"/>
      <point x="281" y="358"/>
      <point x="281" y="408" type="curve" smooth="yes"/>
      <point x="281" y="476"/>
      <point x="347" y="540"/>
    </contour>
  </outline>
</glyph>
<glyph name="guillemotright" format="1">
  <advance width="600"/>
  <unicode hex="00BB"/>
  <outline>
    <contour>
      <point x="355" y="208" type="line"/>
      <point x="190" y="406" type="line" smooth="yes"/>
      <point x="184" y="413"/>
      <point x="178" y="417"/>
      <point x="172" y="417" type="curve" smooth="yes"/>
      <point x="159" y="417"/>
      <point x="147" y="405"/>
      <point x="147" y="392" type="curve" smooth="yes"/>
      <point x="147" y="388"/>
      <point x="148" y="386"/>
      <point x="154" y="377" type="curve" smooth="yes"/>
      <point x="260" y="208" type="line"/>
      <point x="82" y="40" type="line" smooth="yes"/>
      <point x="69" y="28"/>
      <point x="67" y="24"/>
      <point x="67" y="16" type="curve" smooth="yes"/>
      <point x="67" y="6"/>
      <point x="74" y="0"/>
      <point x="83" y="0" type="curve" smooth="yes"/>
      <point x="90" y="0"/>
      <point x="97" y="3"/>
      <point x="107" y="11" type="curve" smooth="yes"/>
    </contour>
    <contour>
      <point x="585" y="208" type="line"/>
      <point x="420" y="406" type="line" smooth="yes"/>
      <point x="414" y="413"/>
      <point x="408" y="417"/>
      <point x="402" y="417" type="curve" smooth="yes"/>
      <point x="389" y="417"/>
      <point x="377" y="405"/>
      <point x="377" y="392" type="curve" smooth="yes"/>
      <point x="377" y="388"/>
      <point x="378" y="385"/>
      <point x="384" y="377" type="curve"/>
      <point x="490" y="208" type="line"/>
      <point x="312" y="40" type="line" smooth="yes"/>
      <point x="300" y="28"/>
      <point x="297" y="24"/>
      <point x="297" y="16" type="curve" smooth="yes"/>
      <point x="297" y="7"/>
      <point x="304" y="0"/>
      <point x="313" y="0" type="curve" smooth="yes"/>
      <point x="320" y="0"/>
      <point x="326" y="3"/>
      <point x="336" y="11" type="curve" smooth="yes"/>
    </contour>
  </outline>
</glyph>
<glyph name="onequarter" format="1">
  <advance width="600"/>
  <unicode hex="00BC"/>
  <outline>
    <contour>
      <point x="274" y="612" type="line"/>
      <point x="135" y="572"/>
      <point x="135" y="572"/>
      <point x="135" y="555" type="curve" smooth="yes"/>
      <point x="135" y="548"/>
      <point x="141" y="541"/>
      <point x="148" y="541" type="curve" smooth="yes"/>
      <point x="151" y="541"/>
      <point x="154" y="541"/>
      <point x="158" y="542" type="curve"/>
      <point x="227" y="563" type="line"/>
      <point x="170" y="295" type="line"/>
      <point x="147" y="296"/>
      <point x="126" y="296"/>
      <point x="109" y="296" type="curve" smooth="yes"/>
      <point x="87" y="296"/>
      <point x="74" y="288"/>
      <point x="74" y="273" type="curve" smooth="yes"/>
      <point x="74" y="264"/>
      <point x="80" y="259"/>
      <point x="91" y="259" type="curve" smooth="yes"/>
      <point x="270" y="259" type="line" smooth="yes"/>
      <point x="284" y="259"/>
      <point x="295" y="269"/>
      <point x="295" y="281" type="curve" smooth="yes"/>
      <point x="295" y="290"/>
      <point x="289" y="295"/>
      <point x="277" y="295" type="curve" smooth="yes"/>
      <point x="206" y="295" type="line"/>
    </contour>
    <contour>
      <point x="593" y="477" type="line" smooth="yes"/>
      <point x="601" y="484"/>
      <point x="605" y="492"/>
      <point x="605" y="498" type="curve" smooth="yes"/>
      <point x="605" y="507"/>
      <point x="598" y="514"/>
      <point x="589" y="514" type="curve" smooth="yes"/>
      <point x="583" y="514"/>
      <point x="580" y="512"/>
      <point x="569" y="502" type="curve" smooth="yes"/>
      <point x="130" y="88" type="line" smooth="yes"/>
      <point x="120" y="79"/>
      <point x="117" y="73"/>
      <point x="117" y="67" type="curve" smooth="yes"/>
      <point x="117" y="58"/>
      <point x="124" y="51"/>
      <point x="133" y="51" type="curve" smooth="yes"/>
      <point x="140" y="51"/>
      <point x="144" y="53"/>
      <point x="154" y="63" type="curve" smooth="yes"/>
    </contour>
    <contour>
      <point x="529" y="93" type="line"/>
      <point x="517" y="36" type="line"/>
      <point x="487" y="36" type="line"/>
      <point x="468" y="37"/>
      <point x="456" y="28"/>
      <point x="456" y="14" type="curve" smooth="yes"/>
      <point x="456" y="5"/>
      <point x="462" y="0"/>
      <point x="473" y="0" type="curve" smooth="yes"/>
      <point x="559" y="0" type="line" smooth="yes"/>
      <point x="573" y="0"/>
      <point x="584" y="10"/>
      <point x="584" y="22" type="curve" smooth="yes"/>
      <point x="584" y="31"/>
      <point x="578" y="36"/>
      <point x="567" y="36" type="curve" smooth="yes"/>
      <point x="553" y="36" type="line"/>
      <point x="565" y="93" type="line"/>
      <point x="593" y="93"/>
      <point x="604" y="99"/>
      <point x="604" y="115" type="curve" smooth="yes"/>
      <point x="604" y="124"/>
      <point x="598" y="129"/>
      <point x="586" y="129" type="curve" smooth="yes"/>
      <point x="573" y="129" type="line"/>
      <point x="619" y="345" type="line"/>
      <point x="562" y="345" type="line"/>
      <point x="388" y="127" type="line"/>
      <point x="380" y="93" type="line"/>
    </contour>
    <contour>
      <point x="537" y="129" type="line"/>
      <point x="429" y="129" type="line"/>
      <point x="574" y="309" type="line"/>
      <point x="575" y="309" type="line"/>
    </contour>
  </outline>
</glyph>
